G04 #@! TF.FileFunction,Soldermask,Top*
%FSLAX46Y46*%
G04 Gerber Fmt 4.6, Leading zero omitted, Abs format (unit mm)*
G04 Created by KiCad (PCBNEW (2014-11-29 BZR 5307)-product) date Sat 24 Jan 2015 07:23:43 PM CST*
%MOMM*%
G01*
G04 APERTURE LIST*
%ADD10C,0.100000*%
%ADD11R,0.700000X2.400000*%
%ADD12R,2.400000X0.700000*%
%ADD13R,4.057600X2.432000*%
%ADD14R,1.416000X2.432000*%
%ADD15C,1.700000*%
%ADD16C,2.400000*%
%ADD17C,1.800000*%
%ADD18R,4.972000X2.940000*%
%ADD19R,1.250000X1.250000*%
%ADD20R,1.900000X1.650000*%
%ADD21R,1.650000X1.900000*%
%ADD22R,2.398980X2.398980*%
%ADD23C,2.398980*%
%ADD24C,1.797000*%
%ADD25R,3.956000X2.432000*%
%ADD26R,2.432000X2.432000*%
%ADD27O,2.432000X2.432000*%
%ADD28C,3.400000*%
%ADD29R,2.800000X2.800000*%
%ADD30R,3.300000X2.800000*%
%ADD31R,2.900000X3.300000*%
%ADD32R,0.999440X1.400760*%
%ADD33O,2.099260X3.900120*%
%ADD34R,2.100000X2.400000*%
%ADD35R,2.400000X2.100000*%
%ADD36C,1.900000*%
%ADD37C,2.200000*%
%ADD38R,2.432000X2.127200*%
%ADD39O,2.432000X2.127200*%
%ADD40R,11.068000X9.290000*%
%ADD41R,2.178000X2.686000*%
%ADD42R,2.127200X2.432000*%
%ADD43O,2.127200X2.432000*%
%ADD44R,1.400760X0.999440*%
%ADD45C,1.924000*%
%ADD46C,6.100000*%
G04 APERTURE END LIST*
D10*
D11*
X94484000Y-56168143D03*
X94984000Y-56168143D03*
X95484000Y-56168143D03*
X95984000Y-56168143D03*
X96484000Y-56168143D03*
X96984000Y-56168143D03*
X97484000Y-56168143D03*
X97984000Y-56168143D03*
X98484000Y-56168143D03*
X98984000Y-56168143D03*
X99484000Y-56168143D03*
X99984000Y-56168143D03*
X100484000Y-56168143D03*
X100984000Y-56168143D03*
X101484000Y-56168143D03*
X101984000Y-56168143D03*
D12*
X92084000Y-66068143D03*
X92084000Y-65568143D03*
X92084000Y-65068143D03*
X92084000Y-64568143D03*
X92084000Y-64068143D03*
X92084000Y-63568143D03*
X92084000Y-63068143D03*
X92084000Y-62568143D03*
X92084000Y-62068143D03*
X92084000Y-61568143D03*
X92084000Y-61068143D03*
X92084000Y-60568143D03*
X92084000Y-60068143D03*
X92084000Y-59568143D03*
X92084000Y-59068143D03*
X92084000Y-58568143D03*
X104384000Y-66068143D03*
X104384000Y-65568143D03*
X104384000Y-65068143D03*
X104384000Y-64568143D03*
X104384000Y-64068143D03*
X104384000Y-63568143D03*
X104384000Y-63068143D03*
X104384000Y-62568143D03*
X104384000Y-62068143D03*
X104384000Y-61568143D03*
X104384000Y-61068143D03*
X104384000Y-60568143D03*
X104384000Y-60068143D03*
X104384000Y-59568143D03*
X104384000Y-59068143D03*
X104384000Y-58568143D03*
D11*
X101984000Y-68468143D03*
X101484000Y-68468143D03*
X100984000Y-68468143D03*
X100484000Y-68468143D03*
X99984000Y-68468143D03*
X99484000Y-68468143D03*
X98984000Y-68468143D03*
X98484000Y-68468143D03*
X97984000Y-68468143D03*
X97484000Y-68468143D03*
X96984000Y-68468143D03*
X96484000Y-68468143D03*
X95984000Y-68468143D03*
X95484000Y-68468143D03*
X94984000Y-68468143D03*
X94484000Y-68468143D03*
D13*
X159004000Y-64008000D03*
D14*
X159004000Y-57404000D03*
X156718000Y-57404000D03*
X161290000Y-57404000D03*
D15*
X221440000Y-78780000D03*
X215440000Y-83780000D03*
D16*
X171450000Y-83840000D03*
X173950000Y-86340000D03*
X168950000Y-86340000D03*
X171450000Y-102850000D03*
X168950000Y-100350000D03*
X173950000Y-100350000D03*
D17*
X218440000Y-100330000D03*
X213360000Y-100330000D03*
X210820000Y-100330000D03*
X208280000Y-100330000D03*
X208280000Y-105410000D03*
X210820000Y-105410000D03*
X213360000Y-105410000D03*
X218440000Y-105410000D03*
X87630000Y-100330000D03*
X92710000Y-100330000D03*
X95250000Y-100330000D03*
X97790000Y-100330000D03*
X97790000Y-95250000D03*
X95250000Y-95250000D03*
X92710000Y-95250000D03*
X87630000Y-95250000D03*
X87630000Y-115570000D03*
X92710000Y-115570000D03*
X95250000Y-115570000D03*
X97790000Y-115570000D03*
X97790000Y-110490000D03*
X95250000Y-110490000D03*
X92710000Y-110490000D03*
X87630000Y-110490000D03*
X135890000Y-111760000D03*
X130810000Y-111760000D03*
X128270000Y-111760000D03*
X125730000Y-111760000D03*
X125730000Y-116840000D03*
X128270000Y-116840000D03*
X130810000Y-116840000D03*
X135890000Y-116840000D03*
X135890000Y-96520000D03*
X130810000Y-96520000D03*
X128270000Y-96520000D03*
X125730000Y-96520000D03*
X125730000Y-101600000D03*
X128270000Y-101600000D03*
X130810000Y-101600000D03*
X135890000Y-101600000D03*
X135890000Y-81280000D03*
X130810000Y-81280000D03*
X128270000Y-81280000D03*
X125730000Y-81280000D03*
X125730000Y-86360000D03*
X128270000Y-86360000D03*
X130810000Y-86360000D03*
X135890000Y-86360000D03*
X87630000Y-85090000D03*
X92710000Y-85090000D03*
X95250000Y-85090000D03*
X97790000Y-85090000D03*
X97790000Y-80010000D03*
X95250000Y-80010000D03*
X92710000Y-80010000D03*
X87630000Y-80010000D03*
D18*
X224282000Y-115570000D03*
X224282000Y-111315500D03*
X224282000Y-119824500D03*
X224282000Y-96520000D03*
X224282000Y-92265500D03*
X224282000Y-100774500D03*
D19*
X207010000Y-90170000D03*
X207010000Y-86820000D03*
X212090000Y-119380000D03*
X212090000Y-116030000D03*
X195580000Y-121920000D03*
X195580000Y-125270000D03*
D15*
X186055000Y-114300000D03*
X194945000Y-114300000D03*
X187960000Y-111760000D03*
X193040000Y-117475000D03*
X203200000Y-113665000D03*
X203200000Y-122555000D03*
X205740000Y-115570000D03*
X200025000Y-120650000D03*
X119340000Y-86820000D03*
X114340000Y-80820000D03*
X119340000Y-102060000D03*
X114340000Y-96060000D03*
X109180000Y-86820000D03*
X104180000Y-80820000D03*
X131112000Y-77430000D03*
X137112000Y-72430000D03*
X109180000Y-102060000D03*
X104180000Y-96060000D03*
X109180000Y-117300000D03*
X104180000Y-111300000D03*
X119340000Y-117300000D03*
X114340000Y-111300000D03*
D20*
X207030000Y-92710000D03*
X209530000Y-92710000D03*
X204450000Y-78740000D03*
X201950000Y-78740000D03*
D21*
X165354000Y-57638000D03*
X165354000Y-55138000D03*
D22*
X200660000Y-73660000D03*
D23*
X198120000Y-73660000D03*
D22*
X204470000Y-66675000D03*
D23*
X201930000Y-66675000D03*
D22*
X197485000Y-65405000D03*
D23*
X197485000Y-67945000D03*
D22*
X207010000Y-73660000D03*
D23*
X204470000Y-73660000D03*
D22*
X203835000Y-60325000D03*
D23*
X203835000Y-57785000D03*
D21*
X198755000Y-60305000D03*
X198755000Y-57805000D03*
X194945000Y-60305000D03*
X194945000Y-57805000D03*
D22*
X151130000Y-57150000D03*
D23*
X151130000Y-59690000D03*
D21*
X191135000Y-60305000D03*
X191135000Y-57805000D03*
D20*
X193020000Y-68580000D03*
X190520000Y-68580000D03*
X193020000Y-64770000D03*
X190520000Y-64770000D03*
D21*
X184150000Y-100310000D03*
X184150000Y-97810000D03*
X184150000Y-90190000D03*
X184150000Y-92690000D03*
X153670000Y-82530000D03*
X153670000Y-80030000D03*
D24*
X111760000Y-116840000D03*
X111760000Y-119380000D03*
X111760000Y-101600000D03*
X111760000Y-104140000D03*
X111760000Y-86360000D03*
X111760000Y-88900000D03*
X125984000Y-70866000D03*
X123444000Y-70866000D03*
X111760000Y-111760000D03*
X111760000Y-109220000D03*
X111760000Y-96520000D03*
X111760000Y-93980000D03*
X111760000Y-81280000D03*
X111760000Y-78740000D03*
X125984000Y-76200000D03*
X125984000Y-73660000D03*
X101600000Y-119380000D03*
X99060000Y-119380000D03*
X101600000Y-104140000D03*
X99060000Y-104140000D03*
X101600000Y-88900000D03*
X99060000Y-88900000D03*
X123190000Y-76200000D03*
X123190000Y-73660000D03*
D21*
X109220000Y-55900000D03*
X109220000Y-58400000D03*
X111760000Y-55900000D03*
X111760000Y-58400000D03*
D20*
X212070000Y-113030000D03*
X209570000Y-113030000D03*
X195560000Y-128270000D03*
X193060000Y-128270000D03*
D25*
X184150000Y-62230000D03*
X184150000Y-57150000D03*
D26*
X198120000Y-86360000D03*
D27*
X200660000Y-86360000D03*
D28*
X224790000Y-69120000D03*
X224790000Y-73120000D03*
X217170000Y-69120000D03*
X217170000Y-73120000D03*
D29*
X224720000Y-58430000D03*
D30*
X215420000Y-58430000D03*
D31*
X211370000Y-62980000D03*
D16*
X223520000Y-62230000D03*
X216520000Y-62230000D03*
D32*
X188277500Y-74716640D03*
X189230000Y-72603360D03*
X190182500Y-74716640D03*
D33*
X171450000Y-110490000D03*
X168910000Y-110490000D03*
X173990000Y-110490000D03*
X171450000Y-76200000D03*
X173990000Y-76200000D03*
X168910000Y-76200000D03*
D34*
X210820000Y-89630000D03*
X210820000Y-85630000D03*
D35*
X202470000Y-82550000D03*
X206470000Y-82550000D03*
X193580000Y-78740000D03*
X197580000Y-78740000D03*
X193580000Y-82550000D03*
X197580000Y-82550000D03*
D24*
X208280000Y-96520000D03*
X210820000Y-96520000D03*
X201930000Y-96520000D03*
X204470000Y-96520000D03*
D34*
X175260000Y-95980000D03*
X175260000Y-91980000D03*
D24*
X201930000Y-90170000D03*
X201930000Y-92710000D03*
D35*
X183610000Y-106680000D03*
X179610000Y-106680000D03*
D34*
X171450000Y-95980000D03*
X171450000Y-91980000D03*
D24*
X189230000Y-101600000D03*
X189230000Y-104140000D03*
X189230000Y-86360000D03*
X189230000Y-88900000D03*
D35*
X183610000Y-80010000D03*
X179610000Y-80010000D03*
D24*
X194310000Y-101600000D03*
X194310000Y-104140000D03*
X194310000Y-86360000D03*
X194310000Y-88900000D03*
D35*
X179610000Y-110490000D03*
X183610000Y-110490000D03*
X179610000Y-76200000D03*
X183610000Y-76200000D03*
D34*
X217170000Y-116110000D03*
X217170000Y-120110000D03*
X217170000Y-123730000D03*
X217170000Y-127730000D03*
D35*
X206280000Y-124460000D03*
X210280000Y-124460000D03*
D34*
X185420000Y-117380000D03*
X185420000Y-121380000D03*
D35*
X198660000Y-128270000D03*
X202660000Y-128270000D03*
X206280000Y-128270000D03*
X210280000Y-128270000D03*
D36*
X196040000Y-93250000D03*
X190040000Y-93250000D03*
X196040000Y-97250000D03*
X190040000Y-97250000D03*
X162020000Y-84280000D03*
X162020000Y-78280000D03*
X158020000Y-84280000D03*
X158020000Y-78280000D03*
D37*
X156130000Y-90680000D03*
X146130000Y-90680000D03*
X156130000Y-122680000D03*
X146130000Y-122680000D03*
D38*
X87884000Y-63500000D03*
D39*
X87884000Y-66040000D03*
X87884000Y-68580000D03*
D32*
X165417500Y-93766640D03*
X166370000Y-91653360D03*
X167322500Y-93766640D03*
D40*
X175260000Y-65913000D03*
D41*
X177800000Y-57150000D03*
X172720000Y-57150000D03*
D21*
X113284000Y-74656000D03*
X113284000Y-72156000D03*
D20*
X114828000Y-58420000D03*
X117328000Y-58420000D03*
D22*
X114808000Y-62230000D03*
D23*
X117348000Y-62230000D03*
D20*
X92476000Y-53594000D03*
X94976000Y-53594000D03*
D21*
X120904000Y-57170000D03*
X120904000Y-59670000D03*
D42*
X90170000Y-72390000D03*
D43*
X92710000Y-72390000D03*
X95250000Y-72390000D03*
X97790000Y-72390000D03*
X100330000Y-72390000D03*
X102870000Y-72390000D03*
D35*
X165132000Y-122428000D03*
X169132000Y-122428000D03*
X171418000Y-119380000D03*
X167418000Y-119380000D03*
D26*
X106934000Y-74168000D03*
D27*
X109474000Y-74168000D03*
D42*
X109220000Y-50800000D03*
D43*
X106680000Y-50800000D03*
X104140000Y-50800000D03*
X101600000Y-50800000D03*
X99060000Y-50800000D03*
X96520000Y-50800000D03*
D32*
X217487500Y-110276640D03*
X218440000Y-108163360D03*
X219392500Y-110276640D03*
D35*
X109950000Y-70866000D03*
X105950000Y-70866000D03*
D32*
X88582500Y-105877360D03*
X87630000Y-107990640D03*
X86677500Y-105877360D03*
X88582500Y-90637360D03*
X87630000Y-92750640D03*
X86677500Y-90637360D03*
D44*
X86319360Y-76009500D03*
X88432640Y-76962000D03*
X86319360Y-77914500D03*
D45*
X105918000Y-68072000D03*
D46*
X224028000Y-50292000D03*
X224028000Y-128778000D03*
X85852000Y-128778000D03*
X85852000Y-50292000D03*
M02*
