G04 #@! TF.FileFunction,Legend,Top*
%FSLAX46Y46*%
G04 Gerber Fmt 4.6, Leading zero omitted, Abs format (unit mm)*
G04 Created by KiCad (PCBNEW (2014-11-29 BZR 5307)-product) date Sat 04 Jul 2015 02:05:10 PM CDT*
%MOMM*%
G01*
G04 APERTURE LIST*
%ADD10C,0.100000*%
%ADD11C,0.300000*%
%ADD12C,0.200000*%
%ADD13C,0.152400*%
%ADD14C,0.101600*%
%ADD15C,0.355600*%
%ADD16C,0.150000*%
%ADD17C,0.304800*%
%ADD18C,0.203200*%
%ADD19C,0.127000*%
G04 APERTURE END LIST*
D10*
D11*
X188440572Y-120796857D02*
X188654858Y-120868286D01*
X188726286Y-120939714D01*
X188797715Y-121082571D01*
X188797715Y-121296857D01*
X188726286Y-121439714D01*
X188654858Y-121511143D01*
X188512000Y-121582571D01*
X187940572Y-121582571D01*
X187940572Y-120082571D01*
X188440572Y-120082571D01*
X188583429Y-120154000D01*
X188654858Y-120225429D01*
X188726286Y-120368286D01*
X188726286Y-120511143D01*
X188654858Y-120654000D01*
X188583429Y-120725429D01*
X188440572Y-120796857D01*
X187940572Y-120796857D01*
X189440572Y-121582571D02*
X189440572Y-120582571D01*
X189440572Y-120082571D02*
X189369143Y-120154000D01*
X189440572Y-120225429D01*
X189512000Y-120154000D01*
X189440572Y-120082571D01*
X189440572Y-120225429D01*
X190797715Y-121582571D02*
X190797715Y-120796857D01*
X190726286Y-120654000D01*
X190583429Y-120582571D01*
X190297715Y-120582571D01*
X190154858Y-120654000D01*
X190797715Y-121511143D02*
X190654858Y-121582571D01*
X190297715Y-121582571D01*
X190154858Y-121511143D01*
X190083429Y-121368286D01*
X190083429Y-121225429D01*
X190154858Y-121082571D01*
X190297715Y-121011143D01*
X190654858Y-121011143D01*
X190797715Y-120939714D01*
X191440572Y-121511143D02*
X191583429Y-121582571D01*
X191869144Y-121582571D01*
X192012001Y-121511143D01*
X192083429Y-121368286D01*
X192083429Y-121296857D01*
X192012001Y-121154000D01*
X191869144Y-121082571D01*
X191654858Y-121082571D01*
X191512001Y-121011143D01*
X191440572Y-120868286D01*
X191440572Y-120796857D01*
X191512001Y-120654000D01*
X191654858Y-120582571D01*
X191869144Y-120582571D01*
X192012001Y-120654000D01*
X193797715Y-120225429D02*
X193869144Y-120154000D01*
X194012001Y-120082571D01*
X194369144Y-120082571D01*
X194512001Y-120154000D01*
X194583430Y-120225429D01*
X194654858Y-120368286D01*
X194654858Y-120511143D01*
X194583430Y-120725429D01*
X193726287Y-121582571D01*
X194654858Y-121582571D01*
X179296572Y-120796857D02*
X179510858Y-120868286D01*
X179582286Y-120939714D01*
X179653715Y-121082571D01*
X179653715Y-121296857D01*
X179582286Y-121439714D01*
X179510858Y-121511143D01*
X179368000Y-121582571D01*
X178796572Y-121582571D01*
X178796572Y-120082571D01*
X179296572Y-120082571D01*
X179439429Y-120154000D01*
X179510858Y-120225429D01*
X179582286Y-120368286D01*
X179582286Y-120511143D01*
X179510858Y-120654000D01*
X179439429Y-120725429D01*
X179296572Y-120796857D01*
X178796572Y-120796857D01*
X180296572Y-121582571D02*
X180296572Y-120582571D01*
X180296572Y-120082571D02*
X180225143Y-120154000D01*
X180296572Y-120225429D01*
X180368000Y-120154000D01*
X180296572Y-120082571D01*
X180296572Y-120225429D01*
X181653715Y-121582571D02*
X181653715Y-120796857D01*
X181582286Y-120654000D01*
X181439429Y-120582571D01*
X181153715Y-120582571D01*
X181010858Y-120654000D01*
X181653715Y-121511143D02*
X181510858Y-121582571D01*
X181153715Y-121582571D01*
X181010858Y-121511143D01*
X180939429Y-121368286D01*
X180939429Y-121225429D01*
X181010858Y-121082571D01*
X181153715Y-121011143D01*
X181510858Y-121011143D01*
X181653715Y-120939714D01*
X182296572Y-121511143D02*
X182439429Y-121582571D01*
X182725144Y-121582571D01*
X182868001Y-121511143D01*
X182939429Y-121368286D01*
X182939429Y-121296857D01*
X182868001Y-121154000D01*
X182725144Y-121082571D01*
X182510858Y-121082571D01*
X182368001Y-121011143D01*
X182296572Y-120868286D01*
X182296572Y-120796857D01*
X182368001Y-120654000D01*
X182510858Y-120582571D01*
X182725144Y-120582571D01*
X182868001Y-120654000D01*
X185510858Y-121582571D02*
X184653715Y-121582571D01*
X185082287Y-121582571D02*
X185082287Y-120082571D01*
X184939430Y-120296857D01*
X184796572Y-120439714D01*
X184653715Y-120511143D01*
D12*
X156100190Y-53329143D02*
X156052571Y-53376762D01*
X155909714Y-53424381D01*
X155814476Y-53424381D01*
X155671618Y-53376762D01*
X155576380Y-53281524D01*
X155528761Y-53186286D01*
X155481142Y-52995810D01*
X155481142Y-52852952D01*
X155528761Y-52662476D01*
X155576380Y-52567238D01*
X155671618Y-52472000D01*
X155814476Y-52424381D01*
X155909714Y-52424381D01*
X156052571Y-52472000D01*
X156100190Y-52519619D01*
X156671618Y-53424381D02*
X156576380Y-53376762D01*
X156528761Y-53329143D01*
X156481142Y-53233905D01*
X156481142Y-52948190D01*
X156528761Y-52852952D01*
X156576380Y-52805333D01*
X156671618Y-52757714D01*
X156814476Y-52757714D01*
X156909714Y-52805333D01*
X156957333Y-52852952D01*
X157004952Y-52948190D01*
X157004952Y-53233905D01*
X156957333Y-53329143D01*
X156909714Y-53376762D01*
X156814476Y-53424381D01*
X156671618Y-53424381D01*
X157433523Y-52757714D02*
X157433523Y-53757714D01*
X157433523Y-52805333D02*
X157528761Y-52757714D01*
X157719238Y-52757714D01*
X157814476Y-52805333D01*
X157862095Y-52852952D01*
X157909714Y-52948190D01*
X157909714Y-53233905D01*
X157862095Y-53329143D01*
X157814476Y-53376762D01*
X157719238Y-53424381D01*
X157528761Y-53424381D01*
X157433523Y-53376762D01*
X158243047Y-52757714D02*
X158481142Y-53424381D01*
X158719238Y-52757714D02*
X158481142Y-53424381D01*
X158385904Y-53662476D01*
X158338285Y-53710095D01*
X158243047Y-53757714D01*
X159100190Y-53424381D02*
X159100190Y-52757714D01*
X159100190Y-52948190D02*
X159147809Y-52852952D01*
X159195428Y-52805333D01*
X159290666Y-52757714D01*
X159385905Y-52757714D01*
X159719238Y-53424381D02*
X159719238Y-52757714D01*
X159719238Y-52424381D02*
X159671619Y-52472000D01*
X159719238Y-52519619D01*
X159766857Y-52472000D01*
X159719238Y-52424381D01*
X159719238Y-52519619D01*
X160624000Y-52757714D02*
X160624000Y-53567238D01*
X160576381Y-53662476D01*
X160528762Y-53710095D01*
X160433523Y-53757714D01*
X160290666Y-53757714D01*
X160195428Y-53710095D01*
X160624000Y-53376762D02*
X160528762Y-53424381D01*
X160338285Y-53424381D01*
X160243047Y-53376762D01*
X160195428Y-53329143D01*
X160147809Y-53233905D01*
X160147809Y-52948190D01*
X160195428Y-52852952D01*
X160243047Y-52805333D01*
X160338285Y-52757714D01*
X160528762Y-52757714D01*
X160624000Y-52805333D01*
X161100190Y-53424381D02*
X161100190Y-52424381D01*
X161528762Y-53424381D02*
X161528762Y-52900571D01*
X161481143Y-52805333D01*
X161385905Y-52757714D01*
X161243047Y-52757714D01*
X161147809Y-52805333D01*
X161100190Y-52852952D01*
X161862095Y-52757714D02*
X162243047Y-52757714D01*
X162004952Y-52424381D02*
X162004952Y-53281524D01*
X162052571Y-53376762D01*
X162147809Y-53424381D01*
X162243047Y-53424381D01*
X163338286Y-53424381D02*
X163338286Y-52424381D01*
X163719239Y-52424381D01*
X163814477Y-52472000D01*
X163862096Y-52519619D01*
X163909715Y-52614857D01*
X163909715Y-52757714D01*
X163862096Y-52852952D01*
X163814477Y-52900571D01*
X163719239Y-52948190D01*
X163338286Y-52948190D01*
X164338286Y-53424381D02*
X164338286Y-52424381D01*
X164766858Y-53424381D02*
X164766858Y-52900571D01*
X164719239Y-52805333D01*
X164624001Y-52757714D01*
X164481143Y-52757714D01*
X164385905Y-52805333D01*
X164338286Y-52852952D01*
X165243048Y-53424381D02*
X165243048Y-52757714D01*
X165243048Y-52424381D02*
X165195429Y-52472000D01*
X165243048Y-52519619D01*
X165290667Y-52472000D01*
X165243048Y-52424381D01*
X165243048Y-52519619D01*
X165862095Y-53424381D02*
X165766857Y-53376762D01*
X165719238Y-53281524D01*
X165719238Y-52424381D01*
X166243048Y-53424381D02*
X166243048Y-52757714D01*
X166243048Y-52424381D02*
X166195429Y-52472000D01*
X166243048Y-52519619D01*
X166290667Y-52472000D01*
X166243048Y-52424381D01*
X166243048Y-52519619D01*
X166719238Y-52757714D02*
X166719238Y-53757714D01*
X166719238Y-52805333D02*
X166814476Y-52757714D01*
X167004953Y-52757714D01*
X167100191Y-52805333D01*
X167147810Y-52852952D01*
X167195429Y-52948190D01*
X167195429Y-53233905D01*
X167147810Y-53329143D01*
X167100191Y-53376762D01*
X167004953Y-53424381D01*
X166814476Y-53424381D01*
X166719238Y-53376762D01*
X168909715Y-52472000D02*
X168814477Y-52424381D01*
X168671620Y-52424381D01*
X168528762Y-52472000D01*
X168433524Y-52567238D01*
X168385905Y-52662476D01*
X168338286Y-52852952D01*
X168338286Y-52995810D01*
X168385905Y-53186286D01*
X168433524Y-53281524D01*
X168528762Y-53376762D01*
X168671620Y-53424381D01*
X168766858Y-53424381D01*
X168909715Y-53376762D01*
X168957334Y-53329143D01*
X168957334Y-52995810D01*
X168766858Y-52995810D01*
X169385905Y-53329143D02*
X169433524Y-53376762D01*
X169385905Y-53424381D01*
X169338286Y-53376762D01*
X169385905Y-53329143D01*
X169385905Y-53424381D01*
X171100191Y-53424381D02*
X170624000Y-53424381D01*
X170624000Y-52424381D01*
X171814477Y-53376762D02*
X171719239Y-53424381D01*
X171528762Y-53424381D01*
X171433524Y-53376762D01*
X171385905Y-53281524D01*
X171385905Y-52900571D01*
X171433524Y-52805333D01*
X171528762Y-52757714D01*
X171719239Y-52757714D01*
X171814477Y-52805333D01*
X171862096Y-52900571D01*
X171862096Y-52995810D01*
X171385905Y-53091048D01*
X172671620Y-53376762D02*
X172576382Y-53424381D01*
X172385905Y-53424381D01*
X172290667Y-53376762D01*
X172243048Y-53281524D01*
X172243048Y-52900571D01*
X172290667Y-52805333D01*
X172385905Y-52757714D01*
X172576382Y-52757714D01*
X172671620Y-52805333D01*
X172719239Y-52900571D01*
X172719239Y-52995810D01*
X172243048Y-53091048D01*
X173862096Y-52519619D02*
X173909715Y-52472000D01*
X174004953Y-52424381D01*
X174243049Y-52424381D01*
X174338287Y-52472000D01*
X174385906Y-52519619D01*
X174433525Y-52614857D01*
X174433525Y-52710095D01*
X174385906Y-52852952D01*
X173814477Y-53424381D01*
X174433525Y-53424381D01*
X175052572Y-52424381D02*
X175147811Y-52424381D01*
X175243049Y-52472000D01*
X175290668Y-52519619D01*
X175338287Y-52614857D01*
X175385906Y-52805333D01*
X175385906Y-53043429D01*
X175338287Y-53233905D01*
X175290668Y-53329143D01*
X175243049Y-53376762D01*
X175147811Y-53424381D01*
X175052572Y-53424381D01*
X174957334Y-53376762D01*
X174909715Y-53329143D01*
X174862096Y-53233905D01*
X174814477Y-53043429D01*
X174814477Y-52805333D01*
X174862096Y-52614857D01*
X174909715Y-52519619D01*
X174957334Y-52472000D01*
X175052572Y-52424381D01*
X176338287Y-53424381D02*
X175766858Y-53424381D01*
X176052572Y-53424381D02*
X176052572Y-52424381D01*
X175957334Y-52567238D01*
X175862096Y-52662476D01*
X175766858Y-52710095D01*
X177243049Y-52424381D02*
X176766858Y-52424381D01*
X176719239Y-52900571D01*
X176766858Y-52852952D01*
X176862096Y-52805333D01*
X177100192Y-52805333D01*
X177195430Y-52852952D01*
X177243049Y-52900571D01*
X177290668Y-52995810D01*
X177290668Y-53233905D01*
X177243049Y-53329143D01*
X177195430Y-53376762D01*
X177100192Y-53424381D01*
X176862096Y-53424381D01*
X176766858Y-53376762D01*
X176719239Y-53329143D01*
X177719239Y-53329143D02*
X177766858Y-53376762D01*
X177719239Y-53424381D01*
X177671620Y-53376762D01*
X177719239Y-53329143D01*
X177719239Y-53424381D01*
X157885904Y-55024381D02*
X157409713Y-55024381D01*
X157409713Y-54024381D01*
X158219237Y-55024381D02*
X158219237Y-54357714D01*
X158219237Y-54024381D02*
X158171618Y-54072000D01*
X158219237Y-54119619D01*
X158266856Y-54072000D01*
X158219237Y-54024381D01*
X158219237Y-54119619D01*
X159123999Y-54976762D02*
X159028761Y-55024381D01*
X158838284Y-55024381D01*
X158743046Y-54976762D01*
X158695427Y-54929143D01*
X158647808Y-54833905D01*
X158647808Y-54548190D01*
X158695427Y-54452952D01*
X158743046Y-54405333D01*
X158838284Y-54357714D01*
X159028761Y-54357714D01*
X159123999Y-54405333D01*
X159933523Y-54976762D02*
X159838285Y-55024381D01*
X159647808Y-55024381D01*
X159552570Y-54976762D01*
X159504951Y-54881524D01*
X159504951Y-54500571D01*
X159552570Y-54405333D01*
X159647808Y-54357714D01*
X159838285Y-54357714D01*
X159933523Y-54405333D01*
X159981142Y-54500571D01*
X159981142Y-54595810D01*
X159504951Y-54691048D01*
X160409713Y-54357714D02*
X160409713Y-55024381D01*
X160409713Y-54452952D02*
X160457332Y-54405333D01*
X160552570Y-54357714D01*
X160695428Y-54357714D01*
X160790666Y-54405333D01*
X160838285Y-54500571D01*
X160838285Y-55024381D01*
X161266856Y-54976762D02*
X161362094Y-55024381D01*
X161552570Y-55024381D01*
X161647809Y-54976762D01*
X161695428Y-54881524D01*
X161695428Y-54833905D01*
X161647809Y-54738667D01*
X161552570Y-54691048D01*
X161409713Y-54691048D01*
X161314475Y-54643429D01*
X161266856Y-54548190D01*
X161266856Y-54500571D01*
X161314475Y-54405333D01*
X161409713Y-54357714D01*
X161552570Y-54357714D01*
X161647809Y-54405333D01*
X162504952Y-54976762D02*
X162409714Y-55024381D01*
X162219237Y-55024381D01*
X162123999Y-54976762D01*
X162076380Y-54881524D01*
X162076380Y-54500571D01*
X162123999Y-54405333D01*
X162219237Y-54357714D01*
X162409714Y-54357714D01*
X162504952Y-54405333D01*
X162552571Y-54500571D01*
X162552571Y-54595810D01*
X162076380Y-54691048D01*
X163409714Y-55024381D02*
X163409714Y-54024381D01*
X163409714Y-54976762D02*
X163314476Y-55024381D01*
X163123999Y-55024381D01*
X163028761Y-54976762D01*
X162981142Y-54929143D01*
X162933523Y-54833905D01*
X162933523Y-54548190D01*
X162981142Y-54452952D01*
X163028761Y-54405333D01*
X163123999Y-54357714D01*
X163314476Y-54357714D01*
X163409714Y-54405333D01*
X165076381Y-54357714D02*
X165076381Y-55024381D01*
X164647809Y-54357714D02*
X164647809Y-54881524D01*
X164695428Y-54976762D01*
X164790666Y-55024381D01*
X164933524Y-55024381D01*
X165028762Y-54976762D01*
X165076381Y-54929143D01*
X165552571Y-54357714D02*
X165552571Y-55024381D01*
X165552571Y-54452952D02*
X165600190Y-54405333D01*
X165695428Y-54357714D01*
X165838286Y-54357714D01*
X165933524Y-54405333D01*
X165981143Y-54500571D01*
X165981143Y-55024381D01*
X166885905Y-55024381D02*
X166885905Y-54024381D01*
X166885905Y-54976762D02*
X166790667Y-55024381D01*
X166600190Y-55024381D01*
X166504952Y-54976762D01*
X166457333Y-54929143D01*
X166409714Y-54833905D01*
X166409714Y-54548190D01*
X166457333Y-54452952D01*
X166504952Y-54405333D01*
X166600190Y-54357714D01*
X166790667Y-54357714D01*
X166885905Y-54405333D01*
X167743048Y-54976762D02*
X167647810Y-55024381D01*
X167457333Y-55024381D01*
X167362095Y-54976762D01*
X167314476Y-54881524D01*
X167314476Y-54500571D01*
X167362095Y-54405333D01*
X167457333Y-54357714D01*
X167647810Y-54357714D01*
X167743048Y-54405333D01*
X167790667Y-54500571D01*
X167790667Y-54595810D01*
X167314476Y-54691048D01*
X168219238Y-55024381D02*
X168219238Y-54357714D01*
X168219238Y-54548190D02*
X168266857Y-54452952D01*
X168314476Y-54405333D01*
X168409714Y-54357714D01*
X168504953Y-54357714D01*
X169457334Y-54357714D02*
X169838286Y-54357714D01*
X169600191Y-54024381D02*
X169600191Y-54881524D01*
X169647810Y-54976762D01*
X169743048Y-55024381D01*
X169838286Y-55024381D01*
X170171620Y-55024381D02*
X170171620Y-54024381D01*
X170600192Y-55024381D02*
X170600192Y-54500571D01*
X170552573Y-54405333D01*
X170457335Y-54357714D01*
X170314477Y-54357714D01*
X170219239Y-54405333D01*
X170171620Y-54452952D01*
X171457335Y-54976762D02*
X171362097Y-55024381D01*
X171171620Y-55024381D01*
X171076382Y-54976762D01*
X171028763Y-54881524D01*
X171028763Y-54500571D01*
X171076382Y-54405333D01*
X171171620Y-54357714D01*
X171362097Y-54357714D01*
X171457335Y-54405333D01*
X171504954Y-54500571D01*
X171504954Y-54595810D01*
X171028763Y-54691048D01*
X172552573Y-54024381D02*
X173124002Y-54024381D01*
X172838287Y-55024381D02*
X172838287Y-54024381D01*
X173409716Y-54738667D02*
X173885907Y-54738667D01*
X173314478Y-55024381D02*
X173647811Y-54024381D01*
X173981145Y-55024381D01*
X174314478Y-55024381D02*
X174314478Y-54024381D01*
X174695431Y-54024381D01*
X174790669Y-54072000D01*
X174838288Y-54119619D01*
X174885907Y-54214857D01*
X174885907Y-54357714D01*
X174838288Y-54452952D01*
X174790669Y-54500571D01*
X174695431Y-54548190D01*
X174314478Y-54548190D01*
X175885907Y-55024381D02*
X175552573Y-54548190D01*
X175314478Y-55024381D02*
X175314478Y-54024381D01*
X175695431Y-54024381D01*
X175790669Y-54072000D01*
X175838288Y-54119619D01*
X175885907Y-54214857D01*
X175885907Y-54357714D01*
X175838288Y-54452952D01*
X175790669Y-54500571D01*
X175695431Y-54548190D01*
X175314478Y-54548190D01*
X158195427Y-55624381D02*
X158385904Y-55624381D01*
X158481142Y-55672000D01*
X158576380Y-55767238D01*
X158623999Y-55957714D01*
X158623999Y-56291048D01*
X158576380Y-56481524D01*
X158481142Y-56576762D01*
X158385904Y-56624381D01*
X158195427Y-56624381D01*
X158100189Y-56576762D01*
X158004951Y-56481524D01*
X157957332Y-56291048D01*
X157957332Y-55957714D01*
X158004951Y-55767238D01*
X158100189Y-55672000D01*
X158195427Y-55624381D01*
X159052570Y-55957714D02*
X159052570Y-56957714D01*
X159052570Y-56005333D02*
X159147808Y-55957714D01*
X159338285Y-55957714D01*
X159433523Y-56005333D01*
X159481142Y-56052952D01*
X159528761Y-56148190D01*
X159528761Y-56433905D01*
X159481142Y-56529143D01*
X159433523Y-56576762D01*
X159338285Y-56624381D01*
X159147808Y-56624381D01*
X159052570Y-56576762D01*
X160338285Y-56576762D02*
X160243047Y-56624381D01*
X160052570Y-56624381D01*
X159957332Y-56576762D01*
X159909713Y-56481524D01*
X159909713Y-56100571D01*
X159957332Y-56005333D01*
X160052570Y-55957714D01*
X160243047Y-55957714D01*
X160338285Y-56005333D01*
X160385904Y-56100571D01*
X160385904Y-56195810D01*
X159909713Y-56291048D01*
X160814475Y-55957714D02*
X160814475Y-56624381D01*
X160814475Y-56052952D02*
X160862094Y-56005333D01*
X160957332Y-55957714D01*
X161100190Y-55957714D01*
X161195428Y-56005333D01*
X161243047Y-56100571D01*
X161243047Y-56624381D01*
X162481142Y-56624381D02*
X162481142Y-55624381D01*
X162481142Y-56100571D02*
X163052571Y-56100571D01*
X163052571Y-56624381D02*
X163052571Y-55624381D01*
X163957333Y-56624381D02*
X163957333Y-56100571D01*
X163909714Y-56005333D01*
X163814476Y-55957714D01*
X163623999Y-55957714D01*
X163528761Y-56005333D01*
X163957333Y-56576762D02*
X163862095Y-56624381D01*
X163623999Y-56624381D01*
X163528761Y-56576762D01*
X163481142Y-56481524D01*
X163481142Y-56386286D01*
X163528761Y-56291048D01*
X163623999Y-56243429D01*
X163862095Y-56243429D01*
X163957333Y-56195810D01*
X164433523Y-56624381D02*
X164433523Y-55957714D01*
X164433523Y-56148190D02*
X164481142Y-56052952D01*
X164528761Y-56005333D01*
X164623999Y-55957714D01*
X164719238Y-55957714D01*
X165481143Y-56624381D02*
X165481143Y-55624381D01*
X165481143Y-56576762D02*
X165385905Y-56624381D01*
X165195428Y-56624381D01*
X165100190Y-56576762D01*
X165052571Y-56529143D01*
X165004952Y-56433905D01*
X165004952Y-56148190D01*
X165052571Y-56052952D01*
X165100190Y-56005333D01*
X165195428Y-55957714D01*
X165385905Y-55957714D01*
X165481143Y-56005333D01*
X165862095Y-55957714D02*
X166052571Y-56624381D01*
X166243048Y-56148190D01*
X166433524Y-56624381D01*
X166624000Y-55957714D01*
X167433524Y-56624381D02*
X167433524Y-56100571D01*
X167385905Y-56005333D01*
X167290667Y-55957714D01*
X167100190Y-55957714D01*
X167004952Y-56005333D01*
X167433524Y-56576762D02*
X167338286Y-56624381D01*
X167100190Y-56624381D01*
X167004952Y-56576762D01*
X166957333Y-56481524D01*
X166957333Y-56386286D01*
X167004952Y-56291048D01*
X167100190Y-56243429D01*
X167338286Y-56243429D01*
X167433524Y-56195810D01*
X167909714Y-56624381D02*
X167909714Y-55957714D01*
X167909714Y-56148190D02*
X167957333Y-56052952D01*
X168004952Y-56005333D01*
X168100190Y-55957714D01*
X168195429Y-55957714D01*
X168909715Y-56576762D02*
X168814477Y-56624381D01*
X168624000Y-56624381D01*
X168528762Y-56576762D01*
X168481143Y-56481524D01*
X168481143Y-56100571D01*
X168528762Y-56005333D01*
X168624000Y-55957714D01*
X168814477Y-55957714D01*
X168909715Y-56005333D01*
X168957334Y-56100571D01*
X168957334Y-56195810D01*
X168481143Y-56291048D01*
X170624001Y-56624381D02*
X170147810Y-56624381D01*
X170147810Y-55624381D01*
X170957334Y-56624381D02*
X170957334Y-55957714D01*
X170957334Y-55624381D02*
X170909715Y-55672000D01*
X170957334Y-55719619D01*
X171004953Y-55672000D01*
X170957334Y-55624381D01*
X170957334Y-55719619D01*
X171862096Y-56576762D02*
X171766858Y-56624381D01*
X171576381Y-56624381D01*
X171481143Y-56576762D01*
X171433524Y-56529143D01*
X171385905Y-56433905D01*
X171385905Y-56148190D01*
X171433524Y-56052952D01*
X171481143Y-56005333D01*
X171576381Y-55957714D01*
X171766858Y-55957714D01*
X171862096Y-56005333D01*
X172671620Y-56576762D02*
X172576382Y-56624381D01*
X172385905Y-56624381D01*
X172290667Y-56576762D01*
X172243048Y-56481524D01*
X172243048Y-56100571D01*
X172290667Y-56005333D01*
X172385905Y-55957714D01*
X172576382Y-55957714D01*
X172671620Y-56005333D01*
X172719239Y-56100571D01*
X172719239Y-56195810D01*
X172243048Y-56291048D01*
X173147810Y-55957714D02*
X173147810Y-56624381D01*
X173147810Y-56052952D02*
X173195429Y-56005333D01*
X173290667Y-55957714D01*
X173433525Y-55957714D01*
X173528763Y-56005333D01*
X173576382Y-56100571D01*
X173576382Y-56624381D01*
X174004953Y-56576762D02*
X174100191Y-56624381D01*
X174290667Y-56624381D01*
X174385906Y-56576762D01*
X174433525Y-56481524D01*
X174433525Y-56433905D01*
X174385906Y-56338667D01*
X174290667Y-56291048D01*
X174147810Y-56291048D01*
X174052572Y-56243429D01*
X174004953Y-56148190D01*
X174004953Y-56100571D01*
X174052572Y-56005333D01*
X174147810Y-55957714D01*
X174290667Y-55957714D01*
X174385906Y-56005333D01*
X175243049Y-56576762D02*
X175147811Y-56624381D01*
X174957334Y-56624381D01*
X174862096Y-56576762D01*
X174814477Y-56481524D01*
X174814477Y-56100571D01*
X174862096Y-56005333D01*
X174957334Y-55957714D01*
X175147811Y-55957714D01*
X175243049Y-56005333D01*
X175290668Y-56100571D01*
X175290668Y-56195810D01*
X174814477Y-56291048D01*
X154504952Y-57557714D02*
X154743047Y-58224381D01*
X154981143Y-57557714D01*
X155743048Y-58176762D02*
X155647810Y-58224381D01*
X155457333Y-58224381D01*
X155362095Y-58176762D01*
X155314476Y-58081524D01*
X155314476Y-57700571D01*
X155362095Y-57605333D01*
X155457333Y-57557714D01*
X155647810Y-57557714D01*
X155743048Y-57605333D01*
X155790667Y-57700571D01*
X155790667Y-57795810D01*
X155314476Y-57891048D01*
X156219238Y-58224381D02*
X156219238Y-57557714D01*
X156219238Y-57748190D02*
X156266857Y-57652952D01*
X156314476Y-57605333D01*
X156409714Y-57557714D01*
X156504953Y-57557714D01*
X156790667Y-58176762D02*
X156885905Y-58224381D01*
X157076381Y-58224381D01*
X157171620Y-58176762D01*
X157219239Y-58081524D01*
X157219239Y-58033905D01*
X157171620Y-57938667D01*
X157076381Y-57891048D01*
X156933524Y-57891048D01*
X156838286Y-57843429D01*
X156790667Y-57748190D01*
X156790667Y-57700571D01*
X156838286Y-57605333D01*
X156933524Y-57557714D01*
X157076381Y-57557714D01*
X157171620Y-57605333D01*
X157647810Y-58224381D02*
X157647810Y-57557714D01*
X157647810Y-57224381D02*
X157600191Y-57272000D01*
X157647810Y-57319619D01*
X157695429Y-57272000D01*
X157647810Y-57224381D01*
X157647810Y-57319619D01*
X158266857Y-58224381D02*
X158171619Y-58176762D01*
X158124000Y-58129143D01*
X158076381Y-58033905D01*
X158076381Y-57748190D01*
X158124000Y-57652952D01*
X158171619Y-57605333D01*
X158266857Y-57557714D01*
X158409715Y-57557714D01*
X158504953Y-57605333D01*
X158552572Y-57652952D01*
X158600191Y-57748190D01*
X158600191Y-58033905D01*
X158552572Y-58129143D01*
X158504953Y-58176762D01*
X158409715Y-58224381D01*
X158266857Y-58224381D01*
X159028762Y-57557714D02*
X159028762Y-58224381D01*
X159028762Y-57652952D02*
X159076381Y-57605333D01*
X159171619Y-57557714D01*
X159314477Y-57557714D01*
X159409715Y-57605333D01*
X159457334Y-57700571D01*
X159457334Y-58224381D01*
X161219239Y-58224381D02*
X160647810Y-58224381D01*
X160933524Y-58224381D02*
X160933524Y-57224381D01*
X160838286Y-57367238D01*
X160743048Y-57462476D01*
X160647810Y-57510095D01*
X161647810Y-58129143D02*
X161695429Y-58176762D01*
X161647810Y-58224381D01*
X161600191Y-58176762D01*
X161647810Y-58129143D01*
X161647810Y-58224381D01*
X162314476Y-57224381D02*
X162409715Y-57224381D01*
X162504953Y-57272000D01*
X162552572Y-57319619D01*
X162600191Y-57414857D01*
X162647810Y-57605333D01*
X162647810Y-57843429D01*
X162600191Y-58033905D01*
X162552572Y-58129143D01*
X162504953Y-58176762D01*
X162409715Y-58224381D01*
X162314476Y-58224381D01*
X162219238Y-58176762D01*
X162171619Y-58129143D01*
X162124000Y-58033905D01*
X162076381Y-57843429D01*
X162076381Y-57605333D01*
X162124000Y-57414857D01*
X162171619Y-57319619D01*
X162219238Y-57272000D01*
X162314476Y-57224381D01*
X164124001Y-58605333D02*
X164076381Y-58557714D01*
X163981143Y-58414857D01*
X163933524Y-58319619D01*
X163885905Y-58176762D01*
X163838286Y-57938667D01*
X163838286Y-57748190D01*
X163885905Y-57510095D01*
X163933524Y-57367238D01*
X163981143Y-57272000D01*
X164076381Y-57129143D01*
X164124001Y-57081524D01*
X164409715Y-57557714D02*
X164600191Y-58224381D01*
X164790668Y-57748190D01*
X164981144Y-58224381D01*
X165171620Y-57557714D01*
X165457334Y-57557714D02*
X165647810Y-58224381D01*
X165838287Y-57748190D01*
X166028763Y-58224381D01*
X166219239Y-57557714D01*
X166504953Y-57557714D02*
X166695429Y-58224381D01*
X166885906Y-57748190D01*
X167076382Y-58224381D01*
X167266858Y-57557714D01*
X167647810Y-58129143D02*
X167695429Y-58176762D01*
X167647810Y-58224381D01*
X167600191Y-58176762D01*
X167647810Y-58129143D01*
X167647810Y-58224381D01*
X167981143Y-57557714D02*
X168362095Y-57557714D01*
X168124000Y-57224381D02*
X168124000Y-58081524D01*
X168171619Y-58176762D01*
X168266857Y-58224381D01*
X168362095Y-58224381D01*
X169124001Y-58224381D02*
X169124001Y-57700571D01*
X169076382Y-57605333D01*
X168981144Y-57557714D01*
X168790667Y-57557714D01*
X168695429Y-57605333D01*
X169124001Y-58176762D02*
X169028763Y-58224381D01*
X168790667Y-58224381D01*
X168695429Y-58176762D01*
X168647810Y-58081524D01*
X168647810Y-57986286D01*
X168695429Y-57891048D01*
X168790667Y-57843429D01*
X169028763Y-57843429D01*
X169124001Y-57795810D01*
X169600191Y-57557714D02*
X169600191Y-58557714D01*
X169600191Y-57605333D02*
X169695429Y-57557714D01*
X169885906Y-57557714D01*
X169981144Y-57605333D01*
X170028763Y-57652952D01*
X170076382Y-57748190D01*
X170076382Y-58033905D01*
X170028763Y-58129143D01*
X169981144Y-58176762D01*
X169885906Y-58224381D01*
X169695429Y-58224381D01*
X169600191Y-58176762D01*
X170504953Y-58224381D02*
X170504953Y-57557714D01*
X170504953Y-57748190D02*
X170552572Y-57652952D01*
X170600191Y-57605333D01*
X170695429Y-57557714D01*
X170790668Y-57557714D01*
X171124001Y-58129143D02*
X171171620Y-58176762D01*
X171124001Y-58224381D01*
X171076382Y-58176762D01*
X171124001Y-58129143D01*
X171124001Y-58224381D01*
X171743048Y-58224381D02*
X171647810Y-58176762D01*
X171600191Y-58129143D01*
X171552572Y-58033905D01*
X171552572Y-57748190D01*
X171600191Y-57652952D01*
X171647810Y-57605333D01*
X171743048Y-57557714D01*
X171885906Y-57557714D01*
X171981144Y-57605333D01*
X172028763Y-57652952D01*
X172076382Y-57748190D01*
X172076382Y-58033905D01*
X172028763Y-58129143D01*
X171981144Y-58176762D01*
X171885906Y-58224381D01*
X171743048Y-58224381D01*
X172504953Y-58224381D02*
X172504953Y-57557714D01*
X172504953Y-57748190D02*
X172552572Y-57652952D01*
X172600191Y-57605333D01*
X172695429Y-57557714D01*
X172790668Y-57557714D01*
X173552573Y-57557714D02*
X173552573Y-58367238D01*
X173504954Y-58462476D01*
X173457335Y-58510095D01*
X173362096Y-58557714D01*
X173219239Y-58557714D01*
X173124001Y-58510095D01*
X173552573Y-58176762D02*
X173457335Y-58224381D01*
X173266858Y-58224381D01*
X173171620Y-58176762D01*
X173124001Y-58129143D01*
X173076382Y-58033905D01*
X173076382Y-57748190D01*
X173124001Y-57652952D01*
X173171620Y-57605333D01*
X173266858Y-57557714D01*
X173457335Y-57557714D01*
X173552573Y-57605333D01*
X174743049Y-57176762D02*
X173885906Y-58462476D01*
X175266858Y-57224381D02*
X175457335Y-57224381D01*
X175552573Y-57272000D01*
X175647811Y-57367238D01*
X175695430Y-57557714D01*
X175695430Y-57891048D01*
X175647811Y-58081524D01*
X175552573Y-58176762D01*
X175457335Y-58224381D01*
X175266858Y-58224381D01*
X175171620Y-58176762D01*
X175076382Y-58081524D01*
X175028763Y-57891048D01*
X175028763Y-57557714D01*
X175076382Y-57367238D01*
X175171620Y-57272000D01*
X175266858Y-57224381D01*
X176124001Y-58224381D02*
X176124001Y-57224381D01*
X176124001Y-57700571D02*
X176695430Y-57700571D01*
X176695430Y-58224381D02*
X176695430Y-57224381D01*
X177647811Y-58224381D02*
X177171620Y-58224381D01*
X177171620Y-57224381D01*
X177885906Y-58605333D02*
X177933525Y-58557714D01*
X178028763Y-58414857D01*
X178076382Y-58319619D01*
X178124001Y-58176762D01*
X178171620Y-57938667D01*
X178171620Y-57748190D01*
X178124001Y-57510095D01*
X178076382Y-57367238D01*
X178028763Y-57272000D01*
X177933525Y-57129143D01*
X177885906Y-57081524D01*
X178647811Y-58129143D02*
X178695430Y-58176762D01*
X178647811Y-58224381D01*
X178600192Y-58176762D01*
X178647811Y-58129143D01*
X178647811Y-58224381D01*
D13*
X94832714Y-46844857D02*
X94070714Y-46844857D01*
X94832714Y-46409429D01*
X94070714Y-46409429D01*
X94615000Y-46082857D02*
X94615000Y-45720000D01*
X94832714Y-46155429D02*
X94070714Y-45901429D01*
X94832714Y-45647429D01*
X94070714Y-45502286D02*
X94832714Y-45248286D01*
X94070714Y-44994286D01*
X87357858Y-62066714D02*
X86995001Y-62066714D01*
X86995001Y-61304714D01*
X88047286Y-61994143D02*
X88011000Y-62030429D01*
X87902143Y-62066714D01*
X87829572Y-62066714D01*
X87720715Y-62030429D01*
X87648143Y-61957857D01*
X87611858Y-61885286D01*
X87575572Y-61740143D01*
X87575572Y-61631286D01*
X87611858Y-61486143D01*
X87648143Y-61413571D01*
X87720715Y-61341000D01*
X87829572Y-61304714D01*
X87902143Y-61304714D01*
X88011000Y-61341000D01*
X88047286Y-61377286D01*
X88373858Y-62066714D02*
X88373858Y-61304714D01*
X88555286Y-61304714D01*
X88664143Y-61341000D01*
X88736715Y-61413571D01*
X88773000Y-61486143D01*
X88809286Y-61631286D01*
X88809286Y-61740143D01*
X88773000Y-61885286D01*
X88736715Y-61957857D01*
X88664143Y-62030429D01*
X88555286Y-62066714D01*
X88373858Y-62066714D01*
X84201001Y-68924714D02*
X84201001Y-68162714D01*
X84382429Y-68162714D01*
X84491286Y-68199000D01*
X84563858Y-68271571D01*
X84600143Y-68344143D01*
X84636429Y-68489286D01*
X84636429Y-68598143D01*
X84600143Y-68743286D01*
X84563858Y-68815857D01*
X84491286Y-68888429D01*
X84382429Y-68924714D01*
X84201001Y-68924714D01*
X84926715Y-68707000D02*
X85289572Y-68707000D01*
X84854143Y-68924714D02*
X85108143Y-68162714D01*
X85362143Y-68924714D01*
X85507286Y-68162714D02*
X85942715Y-68162714D01*
X85725001Y-68924714D02*
X85725001Y-68162714D01*
X86160429Y-68707000D02*
X86523286Y-68707000D01*
X86087857Y-68924714D02*
X86341857Y-68162714D01*
X86595857Y-68924714D01*
X84763428Y-65659000D02*
X84690857Y-65622714D01*
X84582000Y-65622714D01*
X84473143Y-65659000D01*
X84400571Y-65731571D01*
X84364286Y-65804143D01*
X84328000Y-65949286D01*
X84328000Y-66058143D01*
X84364286Y-66203286D01*
X84400571Y-66275857D01*
X84473143Y-66348429D01*
X84582000Y-66384714D01*
X84654571Y-66384714D01*
X84763428Y-66348429D01*
X84799714Y-66312143D01*
X84799714Y-66058143D01*
X84654571Y-66058143D01*
X85126286Y-66384714D02*
X85126286Y-65622714D01*
X85561714Y-66384714D01*
X85561714Y-65622714D01*
X85924572Y-66384714D02*
X85924572Y-65622714D01*
X86106000Y-65622714D01*
X86214857Y-65659000D01*
X86287429Y-65731571D01*
X86323714Y-65804143D01*
X86360000Y-65949286D01*
X86360000Y-66058143D01*
X86323714Y-66203286D01*
X86287429Y-66275857D01*
X86214857Y-66348429D01*
X86106000Y-66384714D01*
X85924572Y-66384714D01*
X84255429Y-63082714D02*
X84727143Y-63082714D01*
X84473143Y-63373000D01*
X84582001Y-63373000D01*
X84654572Y-63409286D01*
X84690858Y-63445571D01*
X84727143Y-63518143D01*
X84727143Y-63699571D01*
X84690858Y-63772143D01*
X84654572Y-63808429D01*
X84582001Y-63844714D01*
X84364286Y-63844714D01*
X84291715Y-63808429D01*
X84255429Y-63772143D01*
X85053715Y-63772143D02*
X85090000Y-63808429D01*
X85053715Y-63844714D01*
X85017429Y-63808429D01*
X85053715Y-63772143D01*
X85053715Y-63844714D01*
X85344000Y-63082714D02*
X85815714Y-63082714D01*
X85561714Y-63373000D01*
X85670572Y-63373000D01*
X85743143Y-63409286D01*
X85779429Y-63445571D01*
X85815714Y-63518143D01*
X85815714Y-63699571D01*
X85779429Y-63772143D01*
X85743143Y-63808429D01*
X85670572Y-63844714D01*
X85452857Y-63844714D01*
X85380286Y-63808429D01*
X85344000Y-63772143D01*
X86069714Y-63336714D02*
X86251143Y-63844714D01*
X86432571Y-63336714D01*
X96610715Y-49112714D02*
X96538143Y-49076429D01*
X96501858Y-49003857D01*
X96501858Y-48350714D01*
X99005572Y-49112714D02*
X99005572Y-48604714D01*
X99005572Y-48749857D02*
X99041857Y-48677286D01*
X99078143Y-48641000D01*
X99150714Y-48604714D01*
X99223286Y-48604714D01*
X100910572Y-49076429D02*
X100983143Y-49112714D01*
X101128286Y-49112714D01*
X101200858Y-49076429D01*
X101237143Y-49003857D01*
X101237143Y-48967571D01*
X101200858Y-48895000D01*
X101128286Y-48858714D01*
X101019429Y-48858714D01*
X100946858Y-48822429D01*
X100910572Y-48749857D01*
X100910572Y-48713571D01*
X100946858Y-48641000D01*
X101019429Y-48604714D01*
X101128286Y-48604714D01*
X101200858Y-48641000D01*
X101854000Y-49076429D02*
X101781429Y-49112714D01*
X101636286Y-49112714D01*
X101563715Y-49076429D01*
X101527429Y-49003857D01*
X101527429Y-48713571D01*
X101563715Y-48641000D01*
X101636286Y-48604714D01*
X101781429Y-48604714D01*
X101854000Y-48641000D01*
X101890286Y-48713571D01*
X101890286Y-48786143D01*
X101527429Y-48858714D01*
X102325715Y-49112714D02*
X102253143Y-49076429D01*
X102216858Y-49003857D01*
X102216858Y-48350714D01*
X104303286Y-49112714D02*
X104303286Y-48350714D01*
X104303286Y-49076429D02*
X104230715Y-49112714D01*
X104085572Y-49112714D01*
X104013000Y-49076429D01*
X103976715Y-49040143D01*
X103940429Y-48967571D01*
X103940429Y-48749857D01*
X103976715Y-48677286D01*
X104013000Y-48641000D01*
X104085572Y-48604714D01*
X104230715Y-48604714D01*
X104303286Y-48641000D01*
X107097286Y-48604714D02*
X107097286Y-49112714D01*
X106770715Y-48604714D02*
X106770715Y-49003857D01*
X106807000Y-49076429D01*
X106879572Y-49112714D01*
X106988429Y-49112714D01*
X107061000Y-49076429D01*
X107097286Y-49040143D01*
X108639429Y-48350714D02*
X109111143Y-48350714D01*
X108857143Y-48641000D01*
X108966001Y-48641000D01*
X109038572Y-48677286D01*
X109074858Y-48713571D01*
X109111143Y-48786143D01*
X109111143Y-48967571D01*
X109074858Y-49040143D01*
X109038572Y-49076429D01*
X108966001Y-49112714D01*
X108748286Y-49112714D01*
X108675715Y-49076429D01*
X108639429Y-49040143D01*
X109437715Y-49040143D02*
X109474000Y-49076429D01*
X109437715Y-49112714D01*
X109401429Y-49076429D01*
X109437715Y-49040143D01*
X109437715Y-49112714D01*
X109728000Y-48350714D02*
X110199714Y-48350714D01*
X109945714Y-48641000D01*
X110054572Y-48641000D01*
X110127143Y-48677286D01*
X110163429Y-48713571D01*
X110199714Y-48786143D01*
X110199714Y-48967571D01*
X110163429Y-49040143D01*
X110127143Y-49076429D01*
X110054572Y-49112714D01*
X109836857Y-49112714D01*
X109764286Y-49076429D01*
X109728000Y-49040143D01*
X110453714Y-48604714D02*
X110635143Y-49112714D01*
X110816571Y-48604714D01*
D14*
X104986667Y-66765714D02*
X105059238Y-66789905D01*
X105083429Y-66814095D01*
X105107619Y-66862476D01*
X105107619Y-66935048D01*
X105083429Y-66983429D01*
X105059238Y-67007619D01*
X105010857Y-67031810D01*
X104817333Y-67031810D01*
X104817333Y-66523810D01*
X104986667Y-66523810D01*
X105035048Y-66548000D01*
X105059238Y-66572190D01*
X105083429Y-66620571D01*
X105083429Y-66668952D01*
X105059238Y-66717333D01*
X105035048Y-66741524D01*
X104986667Y-66765714D01*
X104817333Y-66765714D01*
X105422095Y-66523810D02*
X105518857Y-66523810D01*
X105567238Y-66548000D01*
X105615619Y-66596381D01*
X105639810Y-66693143D01*
X105639810Y-66862476D01*
X105615619Y-66959238D01*
X105567238Y-67007619D01*
X105518857Y-67031810D01*
X105422095Y-67031810D01*
X105373714Y-67007619D01*
X105325333Y-66959238D01*
X105301143Y-66862476D01*
X105301143Y-66693143D01*
X105325333Y-66596381D01*
X105373714Y-66548000D01*
X105422095Y-66523810D01*
X105954285Y-66523810D02*
X106051047Y-66523810D01*
X106099428Y-66548000D01*
X106147809Y-66596381D01*
X106172000Y-66693143D01*
X106172000Y-66862476D01*
X106147809Y-66959238D01*
X106099428Y-67007619D01*
X106051047Y-67031810D01*
X105954285Y-67031810D01*
X105905904Y-67007619D01*
X105857523Y-66959238D01*
X105833333Y-66862476D01*
X105833333Y-66693143D01*
X105857523Y-66596381D01*
X105905904Y-66548000D01*
X105954285Y-66523810D01*
X106317142Y-66523810D02*
X106607428Y-66523810D01*
X106462285Y-67031810D02*
X106462285Y-66523810D01*
X106873523Y-66523810D02*
X106921904Y-66523810D01*
X106970285Y-66548000D01*
X106994476Y-66572190D01*
X107018666Y-66620571D01*
X107042857Y-66717333D01*
X107042857Y-66838286D01*
X107018666Y-66935048D01*
X106994476Y-66983429D01*
X106970285Y-67007619D01*
X106921904Y-67031810D01*
X106873523Y-67031810D01*
X106825142Y-67007619D01*
X106800952Y-66983429D01*
X106776761Y-66935048D01*
X106752571Y-66838286D01*
X106752571Y-66717333D01*
X106776761Y-66620571D01*
X106800952Y-66572190D01*
X106825142Y-66548000D01*
X106873523Y-66523810D01*
D13*
X107097286Y-76544714D02*
X106843286Y-76181857D01*
X106661858Y-76544714D02*
X106661858Y-75782714D01*
X106952143Y-75782714D01*
X107024715Y-75819000D01*
X107061000Y-75855286D01*
X107097286Y-75927857D01*
X107097286Y-76036714D01*
X107061000Y-76109286D01*
X107024715Y-76145571D01*
X106952143Y-76181857D01*
X106661858Y-76181857D01*
X107423858Y-76145571D02*
X107677858Y-76145571D01*
X107786715Y-76544714D02*
X107423858Y-76544714D01*
X107423858Y-75782714D01*
X107786715Y-75782714D01*
X108077001Y-76508429D02*
X108185858Y-76544714D01*
X108367287Y-76544714D01*
X108439858Y-76508429D01*
X108476144Y-76472143D01*
X108512429Y-76399571D01*
X108512429Y-76327000D01*
X108476144Y-76254429D01*
X108439858Y-76218143D01*
X108367287Y-76181857D01*
X108222144Y-76145571D01*
X108149572Y-76109286D01*
X108113287Y-76073000D01*
X108077001Y-76000429D01*
X108077001Y-75927857D01*
X108113287Y-75855286D01*
X108149572Y-75819000D01*
X108222144Y-75782714D01*
X108403572Y-75782714D01*
X108512429Y-75819000D01*
X108839001Y-76145571D02*
X109093001Y-76145571D01*
X109201858Y-76544714D02*
X108839001Y-76544714D01*
X108839001Y-75782714D01*
X109201858Y-75782714D01*
X109419572Y-75782714D02*
X109855001Y-75782714D01*
X109637287Y-76544714D02*
X109637287Y-75782714D01*
X103178429Y-75982285D02*
X103214714Y-75873428D01*
X103214714Y-75691999D01*
X103178429Y-75619428D01*
X103142143Y-75583142D01*
X103069571Y-75546857D01*
X102997000Y-75546857D01*
X102924429Y-75583142D01*
X102888143Y-75619428D01*
X102851857Y-75691999D01*
X102815571Y-75837142D01*
X102779286Y-75909714D01*
X102743000Y-75945999D01*
X102670429Y-75982285D01*
X102597857Y-75982285D01*
X102525286Y-75945999D01*
X102489000Y-75909714D01*
X102452714Y-75837142D01*
X102452714Y-75655714D01*
X102489000Y-75546857D01*
X102452714Y-75292857D02*
X103214714Y-75111428D01*
X102670429Y-74966285D01*
X103214714Y-74821143D01*
X102452714Y-74639714D01*
X102452714Y-74204286D02*
X102452714Y-74059143D01*
X102489000Y-73986571D01*
X102561571Y-73914000D01*
X102706714Y-73877714D01*
X102960714Y-73877714D01*
X103105857Y-73914000D01*
X103178429Y-73986571D01*
X103214714Y-74059143D01*
X103214714Y-74204286D01*
X103178429Y-74276857D01*
X103105857Y-74349428D01*
X102960714Y-74385714D01*
X102706714Y-74385714D01*
X102561571Y-74349428D01*
X102489000Y-74276857D01*
X102452714Y-74204286D01*
X100674714Y-76816856D02*
X99912714Y-76816856D01*
X100674714Y-76381428D01*
X99912714Y-76381428D01*
X100674714Y-75583142D02*
X100311857Y-75837142D01*
X100674714Y-76018570D02*
X99912714Y-76018570D01*
X99912714Y-75728285D01*
X99949000Y-75655713D01*
X99985286Y-75619428D01*
X100057857Y-75583142D01*
X100166714Y-75583142D01*
X100239286Y-75619428D01*
X100275571Y-75655713D01*
X100311857Y-75728285D01*
X100311857Y-76018570D01*
X100638429Y-75292856D02*
X100674714Y-75183999D01*
X100674714Y-75002570D01*
X100638429Y-74929999D01*
X100602143Y-74893713D01*
X100529571Y-74857428D01*
X100457000Y-74857428D01*
X100384429Y-74893713D01*
X100348143Y-74929999D01*
X100311857Y-75002570D01*
X100275571Y-75147713D01*
X100239286Y-75220285D01*
X100203000Y-75256570D01*
X100130429Y-75292856D01*
X100057857Y-75292856D01*
X99985286Y-75256570D01*
X99949000Y-75220285D01*
X99912714Y-75147713D01*
X99912714Y-74966285D01*
X99949000Y-74857428D01*
X99912714Y-74639714D02*
X99912714Y-74204285D01*
X100674714Y-74421999D02*
X99912714Y-74421999D01*
X98098429Y-77179714D02*
X98134714Y-77070857D01*
X98134714Y-76889428D01*
X98098429Y-76816857D01*
X98062143Y-76780571D01*
X97989571Y-76744286D01*
X97917000Y-76744286D01*
X97844429Y-76780571D01*
X97808143Y-76816857D01*
X97771857Y-76889428D01*
X97735571Y-77034571D01*
X97699286Y-77107143D01*
X97663000Y-77143428D01*
X97590429Y-77179714D01*
X97517857Y-77179714D01*
X97445286Y-77143428D01*
X97409000Y-77107143D01*
X97372714Y-77034571D01*
X97372714Y-76853143D01*
X97409000Y-76744286D01*
X97372714Y-76490286D02*
X98134714Y-76308857D01*
X97590429Y-76163714D01*
X98134714Y-76018572D01*
X97372714Y-75837143D01*
X98134714Y-75546857D02*
X97372714Y-75546857D01*
X97372714Y-75365429D01*
X97409000Y-75256572D01*
X97481571Y-75184000D01*
X97554143Y-75147715D01*
X97699286Y-75111429D01*
X97808143Y-75111429D01*
X97953286Y-75147715D01*
X98025857Y-75184000D01*
X98098429Y-75256572D01*
X98134714Y-75365429D01*
X98134714Y-75546857D01*
X98134714Y-74784857D02*
X97372714Y-74784857D01*
X97372714Y-74276858D02*
X97372714Y-74131715D01*
X97409000Y-74059143D01*
X97481571Y-73986572D01*
X97626714Y-73950286D01*
X97880714Y-73950286D01*
X98025857Y-73986572D01*
X98098429Y-74059143D01*
X98134714Y-74131715D01*
X98134714Y-74276858D01*
X98098429Y-74349429D01*
X98025857Y-74422000D01*
X97880714Y-74458286D01*
X97626714Y-74458286D01*
X97481571Y-74422000D01*
X97409000Y-74349429D01*
X97372714Y-74276858D01*
X94869000Y-75510572D02*
X94832714Y-75583143D01*
X94832714Y-75692000D01*
X94869000Y-75800857D01*
X94941571Y-75873429D01*
X95014143Y-75909714D01*
X95159286Y-75946000D01*
X95268143Y-75946000D01*
X95413286Y-75909714D01*
X95485857Y-75873429D01*
X95558429Y-75800857D01*
X95594714Y-75692000D01*
X95594714Y-75619429D01*
X95558429Y-75510572D01*
X95522143Y-75474286D01*
X95268143Y-75474286D01*
X95268143Y-75619429D01*
X95594714Y-75147714D02*
X94832714Y-75147714D01*
X95594714Y-74712286D01*
X94832714Y-74712286D01*
X95594714Y-74349428D02*
X94832714Y-74349428D01*
X94832714Y-74168000D01*
X94869000Y-74059143D01*
X94941571Y-73986571D01*
X95014143Y-73950286D01*
X95159286Y-73914000D01*
X95268143Y-73914000D01*
X95413286Y-73950286D01*
X95485857Y-73986571D01*
X95558429Y-74059143D01*
X95594714Y-74168000D01*
X95594714Y-74349428D01*
X93018429Y-77288571D02*
X93054714Y-77179714D01*
X93054714Y-76998285D01*
X93018429Y-76925714D01*
X92982143Y-76889428D01*
X92909571Y-76853143D01*
X92837000Y-76853143D01*
X92764429Y-76889428D01*
X92728143Y-76925714D01*
X92691857Y-76998285D01*
X92655571Y-77143428D01*
X92619286Y-77216000D01*
X92583000Y-77252285D01*
X92510429Y-77288571D01*
X92437857Y-77288571D01*
X92365286Y-77252285D01*
X92329000Y-77216000D01*
X92292714Y-77143428D01*
X92292714Y-76962000D01*
X92329000Y-76853143D01*
X92292714Y-76599143D02*
X93054714Y-76417714D01*
X92510429Y-76272571D01*
X93054714Y-76127429D01*
X92292714Y-75946000D01*
X92982143Y-75220286D02*
X93018429Y-75256572D01*
X93054714Y-75365429D01*
X93054714Y-75438000D01*
X93018429Y-75546857D01*
X92945857Y-75619429D01*
X92873286Y-75655714D01*
X92728143Y-75692000D01*
X92619286Y-75692000D01*
X92474143Y-75655714D01*
X92401571Y-75619429D01*
X92329000Y-75546857D01*
X92292714Y-75438000D01*
X92292714Y-75365429D01*
X92329000Y-75256572D01*
X92365286Y-75220286D01*
X93054714Y-74530857D02*
X93054714Y-74893714D01*
X92292714Y-74893714D01*
X93054714Y-74276857D02*
X92292714Y-74276857D01*
X93054714Y-73841429D02*
X92619286Y-74168000D01*
X92292714Y-73841429D02*
X92728143Y-74276857D01*
X89752714Y-76018571D02*
X89752714Y-75546857D01*
X90043000Y-75800857D01*
X90043000Y-75691999D01*
X90079286Y-75619428D01*
X90115571Y-75583142D01*
X90188143Y-75546857D01*
X90369571Y-75546857D01*
X90442143Y-75583142D01*
X90478429Y-75619428D01*
X90514714Y-75691999D01*
X90514714Y-75909714D01*
X90478429Y-75982285D01*
X90442143Y-76018571D01*
X90442143Y-75220285D02*
X90478429Y-75184000D01*
X90514714Y-75220285D01*
X90478429Y-75256571D01*
X90442143Y-75220285D01*
X90514714Y-75220285D01*
X89752714Y-74930000D02*
X89752714Y-74458286D01*
X90043000Y-74712286D01*
X90043000Y-74603428D01*
X90079286Y-74530857D01*
X90115571Y-74494571D01*
X90188143Y-74458286D01*
X90369571Y-74458286D01*
X90442143Y-74494571D01*
X90478429Y-74530857D01*
X90514714Y-74603428D01*
X90514714Y-74821143D01*
X90478429Y-74893714D01*
X90442143Y-74930000D01*
X90006714Y-74204286D02*
X90514714Y-74022857D01*
X90006714Y-73841429D01*
D15*
X92449955Y-130265714D02*
X92353193Y-130362476D01*
X92062908Y-130459238D01*
X91869384Y-130459238D01*
X91579098Y-130362476D01*
X91385574Y-130168952D01*
X91288813Y-129975429D01*
X91192051Y-129588381D01*
X91192051Y-129298095D01*
X91288813Y-128911048D01*
X91385574Y-128717524D01*
X91579098Y-128524000D01*
X91869384Y-128427238D01*
X92062908Y-128427238D01*
X92353193Y-128524000D01*
X92449955Y-128620762D01*
X93320813Y-130459238D02*
X93320813Y-128427238D01*
X94191670Y-130459238D02*
X94191670Y-129394857D01*
X94094908Y-129201333D01*
X93901384Y-129104571D01*
X93611098Y-129104571D01*
X93417574Y-129201333D01*
X93320813Y-129298095D01*
X95159289Y-130459238D02*
X95159289Y-129104571D01*
X95159289Y-128427238D02*
X95062527Y-128524000D01*
X95159289Y-128620762D01*
X95256050Y-128524000D01*
X95159289Y-128427238D01*
X95159289Y-128620762D01*
X96126908Y-130459238D02*
X96126908Y-128427238D01*
X96126908Y-129201333D02*
X96320431Y-129104571D01*
X96707479Y-129104571D01*
X96901003Y-129201333D01*
X96997765Y-129298095D01*
X97094527Y-129491619D01*
X97094527Y-130072190D01*
X96997765Y-130265714D01*
X96901003Y-130362476D01*
X96707479Y-130459238D01*
X96320431Y-130459238D01*
X96126908Y-130362476D01*
X97965384Y-130459238D02*
X97965384Y-129104571D01*
X97965384Y-128427238D02*
X97868622Y-128524000D01*
X97965384Y-128620762D01*
X98062145Y-128524000D01*
X97965384Y-128427238D01*
X97965384Y-128620762D01*
X98836241Y-129878667D02*
X99803860Y-129878667D01*
X98642717Y-130459238D02*
X99320050Y-128427238D01*
X99997383Y-130459238D01*
X100674717Y-130459238D02*
X100674717Y-129104571D01*
X100674717Y-129298095D02*
X100771478Y-129201333D01*
X100965002Y-129104571D01*
X101255288Y-129104571D01*
X101448812Y-129201333D01*
X101545574Y-129394857D01*
X101545574Y-130459238D01*
X101545574Y-129394857D02*
X101642336Y-129201333D01*
X101835859Y-129104571D01*
X102126145Y-129104571D01*
X102319669Y-129201333D01*
X102416431Y-129394857D01*
X102416431Y-130459238D01*
X103384050Y-129104571D02*
X103384050Y-131136571D01*
X103384050Y-129201333D02*
X103577573Y-129104571D01*
X103964621Y-129104571D01*
X104158145Y-129201333D01*
X104254907Y-129298095D01*
X104351669Y-129491619D01*
X104351669Y-130072190D01*
X104254907Y-130265714D01*
X104158145Y-130362476D01*
X103964621Y-130459238D01*
X103577573Y-130459238D01*
X103384050Y-130362476D01*
X107835096Y-130459238D02*
X106673954Y-130459238D01*
X107254525Y-130459238D02*
X107254525Y-128427238D01*
X107061001Y-128717524D01*
X106867477Y-128911048D01*
X106673954Y-129007810D01*
X108705954Y-130265714D02*
X108802715Y-130362476D01*
X108705954Y-130459238D01*
X108609192Y-130362476D01*
X108705954Y-130265714D01*
X108705954Y-130459238D01*
X110737953Y-130459238D02*
X109576811Y-130459238D01*
X110157382Y-130459238D02*
X110157382Y-128427238D01*
X109963858Y-128717524D01*
X109770334Y-128911048D01*
X109576811Y-129007810D01*
X113157001Y-129685143D02*
X114705191Y-129685143D01*
X117221001Y-130459238D02*
X117221001Y-128427238D01*
X117704810Y-128427238D01*
X117995096Y-128524000D01*
X118188620Y-128717524D01*
X118285381Y-128911048D01*
X118382143Y-129298095D01*
X118382143Y-129588381D01*
X118285381Y-129975429D01*
X118188620Y-130168952D01*
X117995096Y-130362476D01*
X117704810Y-130459238D01*
X117221001Y-130459238D01*
X119253001Y-130459238D02*
X119253001Y-129104571D01*
X119253001Y-129491619D02*
X119349762Y-129298095D01*
X119446524Y-129201333D01*
X119640048Y-129104571D01*
X119833572Y-129104571D01*
X120510906Y-130265714D02*
X120607667Y-130362476D01*
X120510906Y-130459238D01*
X120414144Y-130362476D01*
X120510906Y-130265714D01*
X120510906Y-130459238D01*
X123026715Y-130459238D02*
X123026715Y-128427238D01*
X123800810Y-128427238D01*
X123994334Y-128524000D01*
X124091095Y-128620762D01*
X124187857Y-128814286D01*
X124187857Y-129104571D01*
X124091095Y-129298095D01*
X123994334Y-129394857D01*
X123800810Y-129491619D01*
X123026715Y-129491619D01*
X125058715Y-130459238D02*
X125058715Y-128427238D01*
X125929572Y-130459238D02*
X125929572Y-129394857D01*
X125832810Y-129201333D01*
X125639286Y-129104571D01*
X125349000Y-129104571D01*
X125155476Y-129201333D01*
X125058715Y-129298095D01*
X126897191Y-130459238D02*
X126897191Y-129104571D01*
X126897191Y-128427238D02*
X126800429Y-128524000D01*
X126897191Y-128620762D01*
X126993952Y-128524000D01*
X126897191Y-128427238D01*
X126897191Y-128620762D01*
X128155095Y-130459238D02*
X127961571Y-130362476D01*
X127864810Y-130168952D01*
X127864810Y-128427238D01*
X128929191Y-130459238D02*
X128929191Y-129104571D01*
X128929191Y-128427238D02*
X128832429Y-128524000D01*
X128929191Y-128620762D01*
X129025952Y-128524000D01*
X128929191Y-128427238D01*
X128929191Y-128620762D01*
X129896810Y-129104571D02*
X129896810Y-131136571D01*
X129896810Y-129201333D02*
X130090333Y-129104571D01*
X130477381Y-129104571D01*
X130670905Y-129201333D01*
X130767667Y-129298095D01*
X130864429Y-129491619D01*
X130864429Y-130072190D01*
X130767667Y-130265714D01*
X130670905Y-130362476D01*
X130477381Y-130459238D01*
X130090333Y-130459238D01*
X129896810Y-130362476D01*
X134347856Y-128524000D02*
X134154333Y-128427238D01*
X133864047Y-128427238D01*
X133573761Y-128524000D01*
X133380237Y-128717524D01*
X133283476Y-128911048D01*
X133186714Y-129298095D01*
X133186714Y-129588381D01*
X133283476Y-129975429D01*
X133380237Y-130168952D01*
X133573761Y-130362476D01*
X133864047Y-130459238D01*
X134057571Y-130459238D01*
X134347856Y-130362476D01*
X134444618Y-130265714D01*
X134444618Y-129588381D01*
X134057571Y-129588381D01*
X135315476Y-130265714D02*
X135412237Y-130362476D01*
X135315476Y-130459238D01*
X135218714Y-130362476D01*
X135315476Y-130265714D01*
X135315476Y-130459238D01*
X138798904Y-130459238D02*
X137831285Y-130459238D01*
X137831285Y-128427238D01*
X140250332Y-130362476D02*
X140056808Y-130459238D01*
X139669760Y-130459238D01*
X139476237Y-130362476D01*
X139379475Y-130168952D01*
X139379475Y-129394857D01*
X139476237Y-129201333D01*
X139669760Y-129104571D01*
X140056808Y-129104571D01*
X140250332Y-129201333D01*
X140347094Y-129394857D01*
X140347094Y-129588381D01*
X139379475Y-129781905D01*
X141992046Y-130362476D02*
X141798522Y-130459238D01*
X141411474Y-130459238D01*
X141217951Y-130362476D01*
X141121189Y-130168952D01*
X141121189Y-129394857D01*
X141217951Y-129201333D01*
X141411474Y-129104571D01*
X141798522Y-129104571D01*
X141992046Y-129201333D01*
X142088808Y-129394857D01*
X142088808Y-129588381D01*
X141121189Y-129781905D01*
X144507855Y-130459238D02*
X144507855Y-128427238D01*
X145668997Y-130459238D01*
X145668997Y-128427238D01*
X146636617Y-128427238D02*
X146636617Y-130072190D01*
X146733378Y-130265714D01*
X146830140Y-130362476D01*
X147023664Y-130459238D01*
X147410712Y-130459238D01*
X147604236Y-130362476D01*
X147700997Y-130265714D01*
X147797759Y-130072190D01*
X147797759Y-128427238D01*
X148862140Y-130459238D02*
X149249188Y-130459238D01*
X149442712Y-130362476D01*
X149539474Y-130265714D01*
X149732998Y-129975429D01*
X149829759Y-129588381D01*
X149829759Y-128814286D01*
X149732998Y-128620762D01*
X149636236Y-128524000D01*
X149442712Y-128427238D01*
X149055664Y-128427238D01*
X148862140Y-128524000D01*
X148765379Y-128620762D01*
X148668617Y-128814286D01*
X148668617Y-129298095D01*
X148765379Y-129491619D01*
X148862140Y-129588381D01*
X149055664Y-129685143D01*
X149442712Y-129685143D01*
X149636236Y-129588381D01*
X149732998Y-129491619D01*
X149829759Y-129298095D01*
X151281188Y-128427238D02*
X151281188Y-129878667D01*
X151184426Y-130168952D01*
X150990902Y-130362476D01*
X150700617Y-130459238D01*
X150507093Y-130459238D01*
D16*
X153670000Y-48006000D02*
X153670000Y-44958000D01*
X153670000Y-44958000D02*
X146558000Y-44958000D01*
X146558000Y-44958000D02*
X146558000Y-48006000D01*
X153670000Y-51054000D02*
X153670000Y-51816000D01*
X153670000Y-51816000D02*
X152146000Y-54102000D01*
X152146000Y-54102000D02*
X148082000Y-54102000D01*
X148082000Y-54102000D02*
X146558000Y-51816000D01*
X146558000Y-51816000D02*
X146558000Y-51054000D01*
X196016000Y-113078000D02*
X187016000Y-113078000D01*
X187016000Y-113078000D02*
X187016000Y-119578000D01*
X187016000Y-119578000D02*
X196016000Y-119578000D01*
X196016000Y-119578000D02*
X196016000Y-113078000D01*
X186618000Y-113078000D02*
X177618000Y-113078000D01*
X177618000Y-113078000D02*
X177618000Y-119578000D01*
X177618000Y-119578000D02*
X186618000Y-119578000D01*
X186618000Y-119578000D02*
X186618000Y-113078000D01*
X171424600Y-108102400D02*
X171424600Y-106807000D01*
X173990000Y-108051600D02*
X173990000Y-106756200D01*
X168910000Y-108051600D02*
X168910000Y-106705400D01*
X172237400Y-123545600D02*
X171907200Y-123621800D01*
X172948600Y-123215400D02*
X172618400Y-123393200D01*
X173507400Y-122631200D02*
X173253400Y-122910600D01*
X173863000Y-121920000D02*
X173736000Y-122224800D01*
X173964600Y-121081800D02*
X173939200Y-121462800D01*
X173812200Y-120294400D02*
X173913800Y-120624600D01*
X173380400Y-119557800D02*
X173583600Y-119862600D01*
X172770800Y-119024400D02*
X173050200Y-119227600D01*
X171856400Y-118694200D02*
X172339000Y-118821200D01*
X171043600Y-118668800D02*
X171450000Y-118643400D01*
X170205400Y-118973600D02*
X170611800Y-118795800D01*
X169570400Y-119507000D02*
X169875200Y-119202200D01*
X169113200Y-120218200D02*
X169316400Y-119837200D01*
X168935400Y-121031000D02*
X169011600Y-120624600D01*
X169011600Y-121793000D02*
X168986200Y-121462800D01*
X169367200Y-122580400D02*
X169189400Y-122250200D01*
X169951400Y-123215400D02*
X169672000Y-122936000D01*
X170688000Y-123545600D02*
X170332400Y-123393200D01*
X171424600Y-123672600D02*
X171094400Y-123647200D01*
X176784000Y-108585000D02*
X176784000Y-108077000D01*
X176784000Y-109601000D02*
X176784000Y-109093000D01*
X176784000Y-110744000D02*
X176784000Y-110109000D01*
X176784000Y-112014000D02*
X176784000Y-111252000D01*
X176784000Y-113411000D02*
X176784000Y-112649000D01*
X176784000Y-114681000D02*
X176784000Y-113919000D01*
X176784000Y-115951000D02*
X176784000Y-115316000D01*
X176784000Y-117602000D02*
X176784000Y-116586000D01*
X176784000Y-118999000D02*
X176784000Y-118237000D01*
X176784000Y-120396000D02*
X176784000Y-119634000D01*
X176784000Y-121793000D02*
X176784000Y-120904000D01*
X176784000Y-123190000D02*
X176784000Y-122428000D01*
X176784000Y-124587000D02*
X176784000Y-123825000D01*
X166116000Y-108585000D02*
X166116000Y-108077000D01*
X166116000Y-109601000D02*
X166116000Y-109093000D01*
X166116000Y-110744000D02*
X166116000Y-110109000D01*
X166116000Y-112014000D02*
X166116000Y-111252000D01*
X166116000Y-113411000D02*
X166116000Y-112649000D01*
X166116000Y-114681000D02*
X166116000Y-113919000D01*
X166116000Y-115951000D02*
X166116000Y-115316000D01*
X166116000Y-117602000D02*
X166116000Y-116586000D01*
X166116000Y-118999000D02*
X166116000Y-118237000D01*
X166116000Y-120396000D02*
X166116000Y-119634000D01*
X166116000Y-121793000D02*
X166116000Y-120904000D01*
X166116000Y-123190000D02*
X166116000Y-122428000D01*
X166116000Y-124587000D02*
X166116000Y-123825000D01*
X166370000Y-124587000D02*
X166116000Y-124587000D01*
X167132000Y-124587000D02*
X166751000Y-124587000D01*
X168148000Y-124587000D02*
X167640000Y-124587000D01*
X169291000Y-124587000D02*
X168656000Y-124587000D01*
X170307000Y-124587000D02*
X169672000Y-124587000D01*
X171323000Y-124587000D02*
X170815000Y-124587000D01*
X172466000Y-124587000D02*
X171958000Y-124587000D01*
X173355000Y-124587000D02*
X172974000Y-124587000D01*
X174625000Y-124587000D02*
X173990000Y-124587000D01*
X175768000Y-124587000D02*
X175260000Y-124587000D01*
X176784000Y-124587000D02*
X176276000Y-124587000D01*
X166370000Y-116586000D02*
X166116000Y-116586000D01*
X167132000Y-116586000D02*
X166751000Y-116586000D01*
X168148000Y-116586000D02*
X167640000Y-116586000D01*
X169291000Y-116586000D02*
X168656000Y-116586000D01*
X170307000Y-116586000D02*
X169672000Y-116586000D01*
X171450000Y-116586000D02*
X170815000Y-116586000D01*
X172466000Y-116586000D02*
X171958000Y-116586000D01*
X173482000Y-116586000D02*
X172974000Y-116586000D01*
X174625000Y-116586000D02*
X173990000Y-116586000D01*
X175768000Y-116586000D02*
X175260000Y-116586000D01*
X176784000Y-116586000D02*
X176276000Y-116586000D01*
X166370000Y-108077000D02*
X166116000Y-108077000D01*
X167132000Y-108077000D02*
X166751000Y-108077000D01*
X168148000Y-108077000D02*
X167640000Y-108077000D01*
X169291000Y-108077000D02*
X168656000Y-108077000D01*
X170307000Y-108077000D02*
X169672000Y-108077000D01*
X171450000Y-108077000D02*
X170815000Y-108077000D01*
X172466000Y-108077000D02*
X171958000Y-108077000D01*
X173482000Y-108077000D02*
X172974000Y-108077000D01*
X174625000Y-108077000D02*
X173990000Y-108077000D01*
X175768000Y-108077000D02*
X175260000Y-108077000D01*
X176784000Y-108077000D02*
X176276000Y-108077000D01*
X171475400Y-89636600D02*
X171475400Y-90932000D01*
X168910000Y-89687400D02*
X168910000Y-90982800D01*
X173990000Y-89687400D02*
X173990000Y-91033600D01*
X170662600Y-74193400D02*
X170992800Y-74117200D01*
X169951400Y-74523600D02*
X170281600Y-74345800D01*
X169392600Y-75107800D02*
X169646600Y-74828400D01*
X169037000Y-75819000D02*
X169164000Y-75514200D01*
X168935400Y-76657200D02*
X168960800Y-76276200D01*
X169087800Y-77444600D02*
X168986200Y-77114400D01*
X169519600Y-78181200D02*
X169316400Y-77876400D01*
X170129200Y-78714600D02*
X169849800Y-78511400D01*
X171043600Y-79044800D02*
X170561000Y-78917800D01*
X171856400Y-79070200D02*
X171450000Y-79095600D01*
X172694600Y-78765400D02*
X172288200Y-78943200D01*
X173329600Y-78232000D02*
X173024800Y-78536800D01*
X173786800Y-77520800D02*
X173583600Y-77901800D01*
X173964600Y-76708000D02*
X173888400Y-77114400D01*
X173888400Y-75946000D02*
X173913800Y-76276200D01*
X173532800Y-75158600D02*
X173710600Y-75488800D01*
X172948600Y-74523600D02*
X173228000Y-74803000D01*
X172212000Y-74193400D02*
X172567600Y-74345800D01*
X171475400Y-74066400D02*
X171805600Y-74091800D01*
X166116000Y-89154000D02*
X166116000Y-89662000D01*
X166116000Y-88138000D02*
X166116000Y-88646000D01*
X166116000Y-86995000D02*
X166116000Y-87630000D01*
X166116000Y-85725000D02*
X166116000Y-86487000D01*
X166116000Y-84328000D02*
X166116000Y-85090000D01*
X166116000Y-83058000D02*
X166116000Y-83820000D01*
X166116000Y-81788000D02*
X166116000Y-82423000D01*
X166116000Y-80137000D02*
X166116000Y-81153000D01*
X166116000Y-78740000D02*
X166116000Y-79502000D01*
X166116000Y-77343000D02*
X166116000Y-78105000D01*
X166116000Y-75946000D02*
X166116000Y-76835000D01*
X166116000Y-74549000D02*
X166116000Y-75311000D01*
X166116000Y-73152000D02*
X166116000Y-73914000D01*
X176784000Y-89154000D02*
X176784000Y-89662000D01*
X176784000Y-88138000D02*
X176784000Y-88646000D01*
X176784000Y-86995000D02*
X176784000Y-87630000D01*
X176784000Y-85725000D02*
X176784000Y-86487000D01*
X176784000Y-84328000D02*
X176784000Y-85090000D01*
X176784000Y-83058000D02*
X176784000Y-83820000D01*
X176784000Y-81788000D02*
X176784000Y-82423000D01*
X176784000Y-80137000D02*
X176784000Y-81153000D01*
X176784000Y-78740000D02*
X176784000Y-79502000D01*
X176784000Y-77343000D02*
X176784000Y-78105000D01*
X176784000Y-75946000D02*
X176784000Y-76835000D01*
X176784000Y-74549000D02*
X176784000Y-75311000D01*
X176784000Y-73152000D02*
X176784000Y-73914000D01*
X176530000Y-73152000D02*
X176784000Y-73152000D01*
X175768000Y-73152000D02*
X176149000Y-73152000D01*
X174752000Y-73152000D02*
X175260000Y-73152000D01*
X173609000Y-73152000D02*
X174244000Y-73152000D01*
X172593000Y-73152000D02*
X173228000Y-73152000D01*
X171577000Y-73152000D02*
X172085000Y-73152000D01*
X170434000Y-73152000D02*
X170942000Y-73152000D01*
X169545000Y-73152000D02*
X169926000Y-73152000D01*
X168275000Y-73152000D02*
X168910000Y-73152000D01*
X167132000Y-73152000D02*
X167640000Y-73152000D01*
X166116000Y-73152000D02*
X166624000Y-73152000D01*
X176530000Y-81153000D02*
X176784000Y-81153000D01*
X175768000Y-81153000D02*
X176149000Y-81153000D01*
X174752000Y-81153000D02*
X175260000Y-81153000D01*
X173609000Y-81153000D02*
X174244000Y-81153000D01*
X172593000Y-81153000D02*
X173228000Y-81153000D01*
X171450000Y-81153000D02*
X172085000Y-81153000D01*
X170434000Y-81153000D02*
X170942000Y-81153000D01*
X169418000Y-81153000D02*
X169926000Y-81153000D01*
X168275000Y-81153000D02*
X168910000Y-81153000D01*
X167132000Y-81153000D02*
X167640000Y-81153000D01*
X166116000Y-81153000D02*
X166624000Y-81153000D01*
X176530000Y-89662000D02*
X176784000Y-89662000D01*
X175768000Y-89662000D02*
X176149000Y-89662000D01*
X174752000Y-89662000D02*
X175260000Y-89662000D01*
X173609000Y-89662000D02*
X174244000Y-89662000D01*
X172593000Y-89662000D02*
X173228000Y-89662000D01*
X171450000Y-89662000D02*
X172085000Y-89662000D01*
X170434000Y-89662000D02*
X170942000Y-89662000D01*
X169418000Y-89662000D02*
X169926000Y-89662000D01*
X168275000Y-89662000D02*
X168910000Y-89662000D01*
X167132000Y-89662000D02*
X167640000Y-89662000D01*
X166116000Y-89662000D02*
X166624000Y-89662000D01*
X146834860Y-67541140D02*
X146834860Y-68242180D01*
X146834860Y-68242180D02*
X146034760Y-68242180D01*
X150637240Y-67541140D02*
X146034760Y-67541140D01*
X146034760Y-67541140D02*
X146034760Y-71142860D01*
X146034760Y-71142860D02*
X150637240Y-71142860D01*
X150637240Y-71142860D02*
X150637240Y-67541140D01*
X102484000Y-67068143D02*
X102984000Y-66568143D01*
X102984000Y-66568143D02*
X102984000Y-58068143D01*
X102984000Y-58068143D02*
X102484000Y-57568143D01*
X102484000Y-57568143D02*
X93984000Y-57568143D01*
X93984000Y-57568143D02*
X93484000Y-58068143D01*
X93484000Y-58068143D02*
X93484000Y-66568143D01*
X93484000Y-66568143D02*
X93984000Y-67068143D01*
X93984000Y-67068143D02*
X102484000Y-67068143D01*
X102484000Y-66068143D02*
G75*
G03X102484000Y-66068143I-500000J0D01*
G01*
X224330000Y-68540000D02*
X230330000Y-63540000D01*
X220830000Y-68540000D02*
X220830000Y-63540000D01*
X220830000Y-63540000D02*
X233830000Y-63540000D01*
X233830000Y-63540000D02*
X233830000Y-68540000D01*
X233830000Y-68540000D02*
X220830000Y-68540000D01*
X207010000Y-99060000D02*
X204470000Y-99060000D01*
X204470000Y-99060000D02*
X204470000Y-106680000D01*
X204470000Y-106680000D02*
X207010000Y-106680000D01*
X219710000Y-106680000D02*
X219710000Y-99060000D01*
X219710000Y-99060000D02*
X207010000Y-99060000D01*
X207010000Y-106680000D02*
X219710000Y-106680000D01*
X99060000Y-101600000D02*
X101600000Y-101600000D01*
X101600000Y-101600000D02*
X101600000Y-93980000D01*
X101600000Y-93980000D02*
X99060000Y-93980000D01*
X86360000Y-93980000D02*
X86360000Y-101600000D01*
X86360000Y-101600000D02*
X99060000Y-101600000D01*
X99060000Y-93980000D02*
X86360000Y-93980000D01*
X99060000Y-116840000D02*
X101600000Y-116840000D01*
X101600000Y-116840000D02*
X101600000Y-109220000D01*
X101600000Y-109220000D02*
X99060000Y-109220000D01*
X86360000Y-109220000D02*
X86360000Y-116840000D01*
X86360000Y-116840000D02*
X99060000Y-116840000D01*
X99060000Y-109220000D02*
X86360000Y-109220000D01*
X124460000Y-110490000D02*
X121920000Y-110490000D01*
X121920000Y-110490000D02*
X121920000Y-118110000D01*
X121920000Y-118110000D02*
X124460000Y-118110000D01*
X137160000Y-118110000D02*
X137160000Y-110490000D01*
X137160000Y-110490000D02*
X124460000Y-110490000D01*
X124460000Y-118110000D02*
X137160000Y-118110000D01*
X124460000Y-95250000D02*
X121920000Y-95250000D01*
X121920000Y-95250000D02*
X121920000Y-102870000D01*
X121920000Y-102870000D02*
X124460000Y-102870000D01*
X137160000Y-102870000D02*
X137160000Y-95250000D01*
X137160000Y-95250000D02*
X124460000Y-95250000D01*
X124460000Y-102870000D02*
X137160000Y-102870000D01*
X124460000Y-80010000D02*
X121920000Y-80010000D01*
X121920000Y-80010000D02*
X121920000Y-87630000D01*
X121920000Y-87630000D02*
X124460000Y-87630000D01*
X137160000Y-87630000D02*
X137160000Y-80010000D01*
X137160000Y-80010000D02*
X124460000Y-80010000D01*
X124460000Y-87630000D02*
X137160000Y-87630000D01*
X99060000Y-86360000D02*
X101600000Y-86360000D01*
X101600000Y-86360000D02*
X101600000Y-78740000D01*
X101600000Y-78740000D02*
X99060000Y-78740000D01*
X86360000Y-78740000D02*
X86360000Y-86360000D01*
X86360000Y-86360000D02*
X99060000Y-86360000D01*
X99060000Y-78740000D02*
X86360000Y-78740000D01*
X206010000Y-87670000D02*
X208010000Y-87670000D01*
X208010000Y-90170000D02*
X206010000Y-90170000D01*
X206010000Y-90170000D02*
X206010000Y-86820000D01*
X206010000Y-86820000D02*
X208010000Y-86820000D01*
X208010000Y-86820000D02*
X208010000Y-90170000D01*
X208574000Y-126984000D02*
X208574000Y-124984000D01*
X211074000Y-124984000D02*
X211074000Y-126984000D01*
X211074000Y-126984000D02*
X207724000Y-126984000D01*
X207724000Y-126984000D02*
X207724000Y-124984000D01*
X207724000Y-124984000D02*
X211074000Y-124984000D01*
X203668000Y-124984000D02*
X203668000Y-126984000D01*
X201168000Y-126984000D02*
X201168000Y-124984000D01*
X201168000Y-124984000D02*
X204518000Y-124984000D01*
X204518000Y-124984000D02*
X204518000Y-126984000D01*
X204518000Y-126984000D02*
X201168000Y-126984000D01*
X200152000Y-114554000D02*
X205232000Y-120269000D01*
X198247000Y-117094000D02*
X207137000Y-117094000D01*
X200192000Y-110594000D02*
X205192000Y-110594000D01*
X205192000Y-110594000D02*
X205192000Y-123594000D01*
X205192000Y-123594000D02*
X200192000Y-123594000D01*
X200192000Y-123594000D02*
X200192000Y-110594000D01*
X217932000Y-118364000D02*
X212217000Y-123444000D01*
X215392000Y-116459000D02*
X215392000Y-125349000D01*
X221892000Y-118404000D02*
X221892000Y-123404000D01*
X221892000Y-123404000D02*
X208892000Y-123404000D01*
X208892000Y-123404000D02*
X208892000Y-118404000D01*
X208892000Y-118404000D02*
X221892000Y-118404000D01*
X119340000Y-86820000D02*
X114340000Y-80820000D01*
X119340000Y-90320000D02*
X114340000Y-90320000D01*
X114340000Y-90320000D02*
X114340000Y-77320000D01*
X114340000Y-77320000D02*
X119340000Y-77320000D01*
X119340000Y-77320000D02*
X119340000Y-90320000D01*
X119340000Y-102060000D02*
X114340000Y-96060000D01*
X119340000Y-105560000D02*
X114340000Y-105560000D01*
X114340000Y-105560000D02*
X114340000Y-92560000D01*
X114340000Y-92560000D02*
X119340000Y-92560000D01*
X119340000Y-92560000D02*
X119340000Y-105560000D01*
X109180000Y-86820000D02*
X104180000Y-80820000D01*
X109180000Y-90320000D02*
X104180000Y-90320000D01*
X104180000Y-90320000D02*
X104180000Y-77320000D01*
X104180000Y-77320000D02*
X109180000Y-77320000D01*
X109180000Y-77320000D02*
X109180000Y-90320000D01*
X131112000Y-77430000D02*
X137112000Y-72430000D01*
X127612000Y-77430000D02*
X127612000Y-72430000D01*
X127612000Y-72430000D02*
X140612000Y-72430000D01*
X140612000Y-72430000D02*
X140612000Y-77430000D01*
X140612000Y-77430000D02*
X127612000Y-77430000D01*
X109180000Y-102060000D02*
X104180000Y-96060000D01*
X109180000Y-105560000D02*
X104180000Y-105560000D01*
X104180000Y-105560000D02*
X104180000Y-92560000D01*
X104180000Y-92560000D02*
X109180000Y-92560000D01*
X109180000Y-92560000D02*
X109180000Y-105560000D01*
X109180000Y-117300000D02*
X104180000Y-111300000D01*
X109180000Y-120800000D02*
X104180000Y-120800000D01*
X104180000Y-120800000D02*
X104180000Y-107800000D01*
X104180000Y-107800000D02*
X109180000Y-107800000D01*
X109180000Y-107800000D02*
X109180000Y-120800000D01*
X119340000Y-117300000D02*
X114340000Y-111300000D01*
X119340000Y-120800000D02*
X114340000Y-120800000D01*
X114340000Y-120800000D02*
X114340000Y-107800000D01*
X114340000Y-107800000D02*
X119340000Y-107800000D01*
X119340000Y-107800000D02*
X119340000Y-120800000D01*
X208780000Y-91860000D02*
X207780000Y-91860000D01*
X207780000Y-93560000D02*
X208780000Y-93560000D01*
X202700000Y-79590000D02*
X203700000Y-79590000D01*
X203700000Y-77890000D02*
X202700000Y-77890000D01*
X156806000Y-47998000D02*
X156806000Y-46998000D01*
X155106000Y-46998000D02*
X155106000Y-47998000D01*
X197319000Y-49903000D02*
X197319000Y-48903000D01*
X195619000Y-48903000D02*
X195619000Y-49903000D01*
X194271000Y-49903000D02*
X194271000Y-48903000D01*
X192571000Y-48903000D02*
X192571000Y-49903000D01*
X142367000Y-48768000D02*
X141478000Y-48768000D01*
X142240000Y-49784000D02*
X144272000Y-49784000D01*
X144272000Y-49784000D02*
X144272000Y-49657000D01*
X144272000Y-49657000D02*
X142240000Y-49657000D01*
X144780000Y-49530000D02*
X141732000Y-49530000D01*
X145796000Y-47498000D02*
G75*
G03X145796000Y-47498000I-2540000J0D01*
G01*
X190969000Y-49903000D02*
X190969000Y-48903000D01*
X189269000Y-48903000D02*
X189269000Y-49903000D01*
X187921000Y-49903000D02*
X187921000Y-48903000D01*
X186221000Y-48903000D02*
X186221000Y-49903000D01*
X184619000Y-49903000D02*
X184619000Y-48903000D01*
X182919000Y-48903000D02*
X182919000Y-49903000D01*
X183300000Y-98560000D02*
X183300000Y-99560000D01*
X185000000Y-99560000D02*
X185000000Y-98560000D01*
X183300000Y-89670000D02*
X183300000Y-90670000D01*
X185000000Y-90670000D02*
X185000000Y-89670000D01*
X152820000Y-80780000D02*
X152820000Y-81780000D01*
X154520000Y-81780000D02*
X154520000Y-80780000D01*
X113030000Y-115620800D02*
X113030000Y-120650000D01*
X113030000Y-120650000D02*
X110490000Y-120650000D01*
X110490000Y-120650000D02*
X110490000Y-115570000D01*
X110490000Y-115570000D02*
X113030000Y-115570000D01*
X112395000Y-115570000D02*
X113030000Y-116205000D01*
X113030000Y-100380800D02*
X113030000Y-105410000D01*
X113030000Y-105410000D02*
X110490000Y-105410000D01*
X110490000Y-105410000D02*
X110490000Y-100330000D01*
X110490000Y-100330000D02*
X113030000Y-100330000D01*
X112395000Y-100330000D02*
X113030000Y-100965000D01*
X113030000Y-85140800D02*
X113030000Y-90170000D01*
X113030000Y-90170000D02*
X110490000Y-90170000D01*
X110490000Y-90170000D02*
X110490000Y-85090000D01*
X110490000Y-85090000D02*
X113030000Y-85090000D01*
X112395000Y-85090000D02*
X113030000Y-85725000D01*
X127203200Y-72136000D02*
X122174000Y-72136000D01*
X122174000Y-72136000D02*
X122174000Y-69596000D01*
X122174000Y-69596000D02*
X127254000Y-69596000D01*
X127254000Y-69596000D02*
X127254000Y-72136000D01*
X127254000Y-71501000D02*
X126619000Y-72136000D01*
X110490000Y-112979200D02*
X110490000Y-107950000D01*
X110490000Y-107950000D02*
X113030000Y-107950000D01*
X113030000Y-107950000D02*
X113030000Y-113030000D01*
X113030000Y-113030000D02*
X110490000Y-113030000D01*
X111125000Y-113030000D02*
X110490000Y-112395000D01*
X110490000Y-97739200D02*
X110490000Y-92710000D01*
X110490000Y-92710000D02*
X113030000Y-92710000D01*
X113030000Y-92710000D02*
X113030000Y-97790000D01*
X113030000Y-97790000D02*
X110490000Y-97790000D01*
X111125000Y-97790000D02*
X110490000Y-97155000D01*
X110490000Y-82499200D02*
X110490000Y-77470000D01*
X110490000Y-77470000D02*
X113030000Y-77470000D01*
X113030000Y-77470000D02*
X113030000Y-82550000D01*
X113030000Y-82550000D02*
X110490000Y-82550000D01*
X111125000Y-82550000D02*
X110490000Y-81915000D01*
X124714000Y-77419200D02*
X124714000Y-72390000D01*
X124714000Y-72390000D02*
X127254000Y-72390000D01*
X127254000Y-72390000D02*
X127254000Y-77470000D01*
X127254000Y-77470000D02*
X124714000Y-77470000D01*
X125349000Y-77470000D02*
X124714000Y-76835000D01*
X102819200Y-120650000D02*
X97790000Y-120650000D01*
X97790000Y-120650000D02*
X97790000Y-118110000D01*
X97790000Y-118110000D02*
X102870000Y-118110000D01*
X102870000Y-118110000D02*
X102870000Y-120650000D01*
X102870000Y-120015000D02*
X102235000Y-120650000D01*
X102819200Y-105410000D02*
X97790000Y-105410000D01*
X97790000Y-105410000D02*
X97790000Y-102870000D01*
X97790000Y-102870000D02*
X102870000Y-102870000D01*
X102870000Y-102870000D02*
X102870000Y-105410000D01*
X102870000Y-104775000D02*
X102235000Y-105410000D01*
X102819200Y-90170000D02*
X97790000Y-90170000D01*
X97790000Y-90170000D02*
X97790000Y-87630000D01*
X97790000Y-87630000D02*
X102870000Y-87630000D01*
X102870000Y-87630000D02*
X102870000Y-90170000D01*
X102870000Y-89535000D02*
X102235000Y-90170000D01*
X121920000Y-77419200D02*
X121920000Y-72390000D01*
X121920000Y-72390000D02*
X124460000Y-72390000D01*
X124460000Y-72390000D02*
X124460000Y-77470000D01*
X124460000Y-77470000D02*
X121920000Y-77470000D01*
X122555000Y-77470000D02*
X121920000Y-76835000D01*
X117944000Y-47998000D02*
X117944000Y-46998000D01*
X116244000Y-46998000D02*
X116244000Y-47998000D01*
X115404000Y-47998000D02*
X115404000Y-46998000D01*
X113704000Y-46998000D02*
X113704000Y-47998000D01*
X209542000Y-128690000D02*
X208542000Y-128690000D01*
X208542000Y-130390000D02*
X209542000Y-130390000D01*
X202700000Y-130390000D02*
X203700000Y-130390000D01*
X203700000Y-128690000D02*
X202700000Y-128690000D01*
X219127605Y-73660000D02*
G75*
G03X219127605Y-73660000I-179605J0D01*
G01*
X218821000Y-68453000D02*
X218821000Y-66167000D01*
X218821000Y-66167000D02*
X215011000Y-66167000D01*
X215011000Y-66167000D02*
X215011000Y-68453000D01*
X215011000Y-71247000D02*
X215011000Y-73533000D01*
X215011000Y-73533000D02*
X218821000Y-73533000D01*
X218821000Y-73533000D02*
X218821000Y-71247000D01*
X237494000Y-55666000D02*
X234994000Y-55666000D01*
X237494000Y-60666000D02*
X234994000Y-60666000D01*
X234994000Y-61166000D02*
X220494000Y-61166000D01*
X220494000Y-61166000D02*
X220494000Y-55166000D01*
X220494000Y-55166000D02*
X234994000Y-55166000D01*
X237494000Y-60666000D02*
X237494000Y-55666000D01*
X234994000Y-55166000D02*
X234994000Y-61166000D01*
X211895000Y-86630000D02*
X211895000Y-88630000D01*
X209745000Y-88630000D02*
X209745000Y-86630000D01*
X205470000Y-83625000D02*
X203470000Y-83625000D01*
X203470000Y-81475000D02*
X205470000Y-81475000D01*
X196580000Y-79815000D02*
X194580000Y-79815000D01*
X194580000Y-77665000D02*
X196580000Y-77665000D01*
X196580000Y-83625000D02*
X194580000Y-83625000D01*
X194580000Y-81475000D02*
X196580000Y-81475000D01*
X208280000Y-96520000D02*
X210820000Y-96520000D01*
X209699903Y-96520000D02*
G75*
G03X209699903Y-96520000I-1419903J0D01*
G01*
X201930000Y-96520000D02*
X204470000Y-96520000D01*
X203349903Y-96520000D02*
G75*
G03X203349903Y-96520000I-1419903J0D01*
G01*
X182610000Y-125027000D02*
X180610000Y-125027000D01*
X180610000Y-122877000D02*
X182610000Y-122877000D01*
X201930000Y-90170000D02*
X201930000Y-92710000D01*
X203349903Y-90170000D02*
G75*
G03X203349903Y-90170000I-1419903J0D01*
G01*
X179265000Y-108188000D02*
X179265000Y-106188000D01*
X181415000Y-106188000D02*
X181415000Y-108188000D01*
X188230000Y-122877000D02*
X190230000Y-122877000D01*
X190230000Y-125027000D02*
X188230000Y-125027000D01*
X189230000Y-101600000D02*
X189230000Y-104140000D01*
X190649903Y-101600000D02*
G75*
G03X190649903Y-101600000I-1419903J0D01*
G01*
X189230000Y-86360000D02*
X189230000Y-88900000D01*
X190649903Y-86360000D02*
G75*
G03X190649903Y-86360000I-1419903J0D01*
G01*
X180399000Y-96536000D02*
X180399000Y-98536000D01*
X178249000Y-98536000D02*
X178249000Y-96536000D01*
X194310000Y-101600000D02*
X194310000Y-104140000D01*
X195729903Y-101600000D02*
G75*
G03X195729903Y-101600000I-1419903J0D01*
G01*
X194310000Y-86360000D02*
X194310000Y-88900000D01*
X195729903Y-86360000D02*
G75*
G03X195729903Y-86360000I-1419903J0D01*
G01*
X185225000Y-106188000D02*
X185225000Y-108188000D01*
X183075000Y-108188000D02*
X183075000Y-106188000D01*
X171942000Y-99627000D02*
X169942000Y-99627000D01*
X169942000Y-97477000D02*
X171942000Y-97477000D01*
X221472000Y-128329000D02*
X219472000Y-128329000D01*
X219472000Y-126179000D02*
X221472000Y-126179000D01*
X196537000Y-123174000D02*
X196537000Y-121174000D01*
X198687000Y-121174000D02*
X198687000Y-123174000D01*
X200040000Y-99250000D02*
X200040000Y-91250000D01*
X200040000Y-91250000D02*
X186040000Y-91250000D01*
X186040000Y-91250000D02*
X186040000Y-99250000D01*
X186040000Y-99250000D02*
X200040000Y-99250000D01*
X156020000Y-88280000D02*
X164020000Y-88280000D01*
X164020000Y-88280000D02*
X164020000Y-74280000D01*
X164020000Y-74280000D02*
X156020000Y-74280000D01*
X156020000Y-74280000D02*
X156020000Y-88280000D01*
X161130000Y-93680000D02*
X161130000Y-119680000D01*
X161130000Y-119680000D02*
X141130000Y-119680000D01*
X141130000Y-119680000D02*
X141130000Y-93680000D01*
X141130000Y-93680000D02*
X161130000Y-93680000D01*
X86614000Y-64770000D02*
X86614000Y-69850000D01*
X86614000Y-69850000D02*
X89154000Y-69850000D01*
X89154000Y-69850000D02*
X89154000Y-64770000D01*
X89154000Y-62230000D02*
X89154000Y-64770000D01*
X89154000Y-64770000D02*
X86614000Y-64770000D01*
X89154000Y-62230000D02*
X86614000Y-62230000D01*
X86614000Y-62230000D02*
X86614000Y-64770000D01*
X186309000Y-59690000D02*
X182626000Y-59690000D01*
X182626000Y-59690000D02*
X182626000Y-61722000D01*
X182626000Y-61722000D02*
X186309000Y-61722000D01*
X186309000Y-57150000D02*
X182626000Y-57150000D01*
X182626000Y-57150000D02*
X182626000Y-59182000D01*
X182626000Y-59182000D02*
X186309000Y-59182000D01*
X186309000Y-54610000D02*
X182626000Y-54610000D01*
X182626000Y-54610000D02*
X182626000Y-56642000D01*
X182626000Y-56642000D02*
X186309000Y-56642000D01*
X186309000Y-52832000D02*
X186309000Y-63500000D01*
X186309000Y-63500000D02*
X196469000Y-63500000D01*
X196469000Y-63500000D02*
X196469000Y-52832000D01*
X196469000Y-52832000D02*
X186309000Y-52832000D01*
X112434000Y-72906000D02*
X112434000Y-73906000D01*
X114134000Y-73906000D02*
X114134000Y-72906000D01*
X114038000Y-57570000D02*
X113038000Y-57570000D01*
X113038000Y-59270000D02*
X114038000Y-59270000D01*
X114808000Y-63119000D02*
X114808000Y-64008000D01*
X115824000Y-63246000D02*
X115824000Y-61214000D01*
X115824000Y-61214000D02*
X115697000Y-61214000D01*
X115697000Y-61214000D02*
X115697000Y-63246000D01*
X115570000Y-60706000D02*
X115570000Y-63754000D01*
X116078000Y-62230000D02*
G75*
G03X116078000Y-62230000I-2540000J0D01*
G01*
X94226000Y-52744000D02*
X93226000Y-52744000D01*
X93226000Y-54444000D02*
X94226000Y-54444000D01*
X120484000Y-47998000D02*
X120484000Y-46998000D01*
X118784000Y-46998000D02*
X118784000Y-47998000D01*
X91440000Y-71120000D02*
X104140000Y-71120000D01*
X104140000Y-71120000D02*
X104140000Y-73660000D01*
X104140000Y-73660000D02*
X91440000Y-73660000D01*
X88900000Y-71120000D02*
X91440000Y-71120000D01*
X91440000Y-71120000D02*
X91440000Y-73660000D01*
X88900000Y-71120000D02*
X88900000Y-73660000D01*
X88900000Y-73660000D02*
X91440000Y-73660000D01*
X159199000Y-126730000D02*
X159199000Y-124730000D01*
X161349000Y-124730000D02*
X161349000Y-126730000D01*
X164905000Y-124730000D02*
X164905000Y-126730000D01*
X162755000Y-126730000D02*
X162755000Y-124730000D01*
X108204000Y-72898000D02*
X108204000Y-75438000D01*
X105664000Y-72898000D02*
X105664000Y-75438000D01*
X105664000Y-75438000D02*
X108204000Y-75438000D01*
X108204000Y-75438000D02*
X110744000Y-75438000D01*
X110744000Y-75438000D02*
X110744000Y-72898000D01*
X110744000Y-72898000D02*
X105664000Y-72898000D01*
X107950000Y-47244000D02*
X95250000Y-47244000D01*
X95250000Y-47244000D02*
X95250000Y-44704000D01*
X95250000Y-44704000D02*
X107950000Y-44704000D01*
X110490000Y-47244000D02*
X107950000Y-47244000D01*
X107950000Y-47244000D02*
X107950000Y-44704000D01*
X110490000Y-47244000D02*
X110490000Y-44704000D01*
X110490000Y-44704000D02*
X107950000Y-44704000D01*
X106950000Y-69791000D02*
X108950000Y-69791000D01*
X108950000Y-71941000D02*
X106950000Y-71941000D01*
X187730180Y-74218800D02*
X187730180Y-73517760D01*
X187730180Y-73517760D02*
X187979100Y-73517760D01*
X190529160Y-73517760D02*
X190729820Y-73517760D01*
X190729820Y-73517760D02*
X190729820Y-74218800D01*
X216865200Y-107212180D02*
X217566240Y-107212180D01*
X217566240Y-107212180D02*
X217566240Y-107461100D01*
X217566240Y-110011160D02*
X217566240Y-110211820D01*
X217566240Y-110211820D02*
X216865200Y-110211820D01*
X89129820Y-106883200D02*
X89129820Y-107584240D01*
X89129820Y-107584240D02*
X88880900Y-107584240D01*
X86330840Y-107584240D02*
X86130180Y-107584240D01*
X86130180Y-107584240D02*
X86130180Y-106883200D01*
X89129820Y-91643200D02*
X89129820Y-92344240D01*
X89129820Y-92344240D02*
X88880900Y-92344240D01*
X86330840Y-92344240D02*
X86130180Y-92344240D01*
X86130180Y-92344240D02*
X86130180Y-91643200D01*
X88087200Y-75462180D02*
X88788240Y-75462180D01*
X88788240Y-75462180D02*
X88788240Y-75711100D01*
X88788240Y-78261160D02*
X88788240Y-78461820D01*
X88788240Y-78461820D02*
X88087200Y-78461820D01*
X137938000Y-66997000D02*
X139938000Y-66997000D01*
X139938000Y-69147000D02*
X137938000Y-69147000D01*
X208208000Y-48174000D02*
X208208000Y-53172000D01*
X208348000Y-48182000D02*
X208348000Y-53164000D01*
X208488000Y-48198000D02*
X208488000Y-50578000D01*
X208488000Y-50768000D02*
X208488000Y-53148000D01*
X208628000Y-48222000D02*
X208628000Y-50183000D01*
X208628000Y-51163000D02*
X208628000Y-53124000D01*
X208768000Y-48255000D02*
X208768000Y-50016000D01*
X208768000Y-51330000D02*
X208768000Y-53091000D01*
X208908000Y-48296000D02*
X208908000Y-49909000D01*
X208908000Y-51437000D02*
X208908000Y-53050000D01*
X209048000Y-48346000D02*
X209048000Y-49838000D01*
X209048000Y-51508000D02*
X209048000Y-53000000D01*
X209188000Y-48407000D02*
X209188000Y-49794000D01*
X209188000Y-51552000D02*
X209188000Y-52939000D01*
X209328000Y-48477000D02*
X209328000Y-49775000D01*
X209328000Y-51571000D02*
X209328000Y-52869000D01*
X209468000Y-48559000D02*
X209468000Y-49777000D01*
X209468000Y-51569000D02*
X209468000Y-52787000D01*
X209608000Y-48654000D02*
X209608000Y-49802000D01*
X209608000Y-51544000D02*
X209608000Y-52692000D01*
X209748000Y-48765000D02*
X209748000Y-49850000D01*
X209748000Y-51496000D02*
X209748000Y-52581000D01*
X209888000Y-48893000D02*
X209888000Y-49928000D01*
X209888000Y-51418000D02*
X209888000Y-52453000D01*
X210028000Y-49042000D02*
X210028000Y-50045000D01*
X210028000Y-51301000D02*
X210028000Y-52304000D01*
X210168000Y-49221000D02*
X210168000Y-50233000D01*
X210168000Y-51113000D02*
X210168000Y-52125000D01*
X210308000Y-49440000D02*
X210308000Y-51906000D01*
X210448000Y-49729000D02*
X210448000Y-51617000D01*
X210588000Y-50201000D02*
X210588000Y-51145000D01*
X210283000Y-50673000D02*
G75*
G03X210283000Y-50673000I-900000J0D01*
G01*
X210670500Y-50673000D02*
G75*
G03X210670500Y-50673000I-2537500J0D01*
G01*
X208208000Y-53762000D02*
X208208000Y-58760000D01*
X208348000Y-53770000D02*
X208348000Y-58752000D01*
X208488000Y-53786000D02*
X208488000Y-56166000D01*
X208488000Y-56356000D02*
X208488000Y-58736000D01*
X208628000Y-53810000D02*
X208628000Y-55771000D01*
X208628000Y-56751000D02*
X208628000Y-58712000D01*
X208768000Y-53843000D02*
X208768000Y-55604000D01*
X208768000Y-56918000D02*
X208768000Y-58679000D01*
X208908000Y-53884000D02*
X208908000Y-55497000D01*
X208908000Y-57025000D02*
X208908000Y-58638000D01*
X209048000Y-53934000D02*
X209048000Y-55426000D01*
X209048000Y-57096000D02*
X209048000Y-58588000D01*
X209188000Y-53995000D02*
X209188000Y-55382000D01*
X209188000Y-57140000D02*
X209188000Y-58527000D01*
X209328000Y-54065000D02*
X209328000Y-55363000D01*
X209328000Y-57159000D02*
X209328000Y-58457000D01*
X209468000Y-54147000D02*
X209468000Y-55365000D01*
X209468000Y-57157000D02*
X209468000Y-58375000D01*
X209608000Y-54242000D02*
X209608000Y-55390000D01*
X209608000Y-57132000D02*
X209608000Y-58280000D01*
X209748000Y-54353000D02*
X209748000Y-55438000D01*
X209748000Y-57084000D02*
X209748000Y-58169000D01*
X209888000Y-54481000D02*
X209888000Y-55516000D01*
X209888000Y-57006000D02*
X209888000Y-58041000D01*
X210028000Y-54630000D02*
X210028000Y-55633000D01*
X210028000Y-56889000D02*
X210028000Y-57892000D01*
X210168000Y-54809000D02*
X210168000Y-55821000D01*
X210168000Y-56701000D02*
X210168000Y-57713000D01*
X210308000Y-55028000D02*
X210308000Y-57494000D01*
X210448000Y-55317000D02*
X210448000Y-57205000D01*
X210588000Y-55789000D02*
X210588000Y-56733000D01*
X210283000Y-56261000D02*
G75*
G03X210283000Y-56261000I-900000J0D01*
G01*
X210670500Y-56261000D02*
G75*
G03X210670500Y-56261000I-2537500J0D01*
G01*
X208208000Y-59350000D02*
X208208000Y-64348000D01*
X208348000Y-59358000D02*
X208348000Y-64340000D01*
X208488000Y-59374000D02*
X208488000Y-61754000D01*
X208488000Y-61944000D02*
X208488000Y-64324000D01*
X208628000Y-59398000D02*
X208628000Y-61359000D01*
X208628000Y-62339000D02*
X208628000Y-64300000D01*
X208768000Y-59431000D02*
X208768000Y-61192000D01*
X208768000Y-62506000D02*
X208768000Y-64267000D01*
X208908000Y-59472000D02*
X208908000Y-61085000D01*
X208908000Y-62613000D02*
X208908000Y-64226000D01*
X209048000Y-59522000D02*
X209048000Y-61014000D01*
X209048000Y-62684000D02*
X209048000Y-64176000D01*
X209188000Y-59583000D02*
X209188000Y-60970000D01*
X209188000Y-62728000D02*
X209188000Y-64115000D01*
X209328000Y-59653000D02*
X209328000Y-60951000D01*
X209328000Y-62747000D02*
X209328000Y-64045000D01*
X209468000Y-59735000D02*
X209468000Y-60953000D01*
X209468000Y-62745000D02*
X209468000Y-63963000D01*
X209608000Y-59830000D02*
X209608000Y-60978000D01*
X209608000Y-62720000D02*
X209608000Y-63868000D01*
X209748000Y-59941000D02*
X209748000Y-61026000D01*
X209748000Y-62672000D02*
X209748000Y-63757000D01*
X209888000Y-60069000D02*
X209888000Y-61104000D01*
X209888000Y-62594000D02*
X209888000Y-63629000D01*
X210028000Y-60218000D02*
X210028000Y-61221000D01*
X210028000Y-62477000D02*
X210028000Y-63480000D01*
X210168000Y-60397000D02*
X210168000Y-61409000D01*
X210168000Y-62289000D02*
X210168000Y-63301000D01*
X210308000Y-60616000D02*
X210308000Y-63082000D01*
X210448000Y-60905000D02*
X210448000Y-62793000D01*
X210588000Y-61377000D02*
X210588000Y-62321000D01*
X210283000Y-61849000D02*
G75*
G03X210283000Y-61849000I-900000J0D01*
G01*
X210670500Y-61849000D02*
G75*
G03X210670500Y-61849000I-2537500J0D01*
G01*
X208208000Y-64938000D02*
X208208000Y-69936000D01*
X208348000Y-64946000D02*
X208348000Y-69928000D01*
X208488000Y-64962000D02*
X208488000Y-67342000D01*
X208488000Y-67532000D02*
X208488000Y-69912000D01*
X208628000Y-64986000D02*
X208628000Y-66947000D01*
X208628000Y-67927000D02*
X208628000Y-69888000D01*
X208768000Y-65019000D02*
X208768000Y-66780000D01*
X208768000Y-68094000D02*
X208768000Y-69855000D01*
X208908000Y-65060000D02*
X208908000Y-66673000D01*
X208908000Y-68201000D02*
X208908000Y-69814000D01*
X209048000Y-65110000D02*
X209048000Y-66602000D01*
X209048000Y-68272000D02*
X209048000Y-69764000D01*
X209188000Y-65171000D02*
X209188000Y-66558000D01*
X209188000Y-68316000D02*
X209188000Y-69703000D01*
X209328000Y-65241000D02*
X209328000Y-66539000D01*
X209328000Y-68335000D02*
X209328000Y-69633000D01*
X209468000Y-65323000D02*
X209468000Y-66541000D01*
X209468000Y-68333000D02*
X209468000Y-69551000D01*
X209608000Y-65418000D02*
X209608000Y-66566000D01*
X209608000Y-68308000D02*
X209608000Y-69456000D01*
X209748000Y-65529000D02*
X209748000Y-66614000D01*
X209748000Y-68260000D02*
X209748000Y-69345000D01*
X209888000Y-65657000D02*
X209888000Y-66692000D01*
X209888000Y-68182000D02*
X209888000Y-69217000D01*
X210028000Y-65806000D02*
X210028000Y-66809000D01*
X210028000Y-68065000D02*
X210028000Y-69068000D01*
X210168000Y-65985000D02*
X210168000Y-66997000D01*
X210168000Y-67877000D02*
X210168000Y-68889000D01*
X210308000Y-66204000D02*
X210308000Y-68670000D01*
X210448000Y-66493000D02*
X210448000Y-68381000D01*
X210588000Y-66965000D02*
X210588000Y-67909000D01*
X210283000Y-67437000D02*
G75*
G03X210283000Y-67437000I-900000J0D01*
G01*
X210670500Y-67437000D02*
G75*
G03X210670500Y-67437000I-2537500J0D01*
G01*
X208208000Y-70526000D02*
X208208000Y-75524000D01*
X208348000Y-70534000D02*
X208348000Y-75516000D01*
X208488000Y-70550000D02*
X208488000Y-72930000D01*
X208488000Y-73120000D02*
X208488000Y-75500000D01*
X208628000Y-70574000D02*
X208628000Y-72535000D01*
X208628000Y-73515000D02*
X208628000Y-75476000D01*
X208768000Y-70607000D02*
X208768000Y-72368000D01*
X208768000Y-73682000D02*
X208768000Y-75443000D01*
X208908000Y-70648000D02*
X208908000Y-72261000D01*
X208908000Y-73789000D02*
X208908000Y-75402000D01*
X209048000Y-70698000D02*
X209048000Y-72190000D01*
X209048000Y-73860000D02*
X209048000Y-75352000D01*
X209188000Y-70759000D02*
X209188000Y-72146000D01*
X209188000Y-73904000D02*
X209188000Y-75291000D01*
X209328000Y-70829000D02*
X209328000Y-72127000D01*
X209328000Y-73923000D02*
X209328000Y-75221000D01*
X209468000Y-70911000D02*
X209468000Y-72129000D01*
X209468000Y-73921000D02*
X209468000Y-75139000D01*
X209608000Y-71006000D02*
X209608000Y-72154000D01*
X209608000Y-73896000D02*
X209608000Y-75044000D01*
X209748000Y-71117000D02*
X209748000Y-72202000D01*
X209748000Y-73848000D02*
X209748000Y-74933000D01*
X209888000Y-71245000D02*
X209888000Y-72280000D01*
X209888000Y-73770000D02*
X209888000Y-74805000D01*
X210028000Y-71394000D02*
X210028000Y-72397000D01*
X210028000Y-73653000D02*
X210028000Y-74656000D01*
X210168000Y-71573000D02*
X210168000Y-72585000D01*
X210168000Y-73465000D02*
X210168000Y-74477000D01*
X210308000Y-71792000D02*
X210308000Y-74258000D01*
X210448000Y-72081000D02*
X210448000Y-73969000D01*
X210588000Y-72553000D02*
X210588000Y-73497000D01*
X210283000Y-73025000D02*
G75*
G03X210283000Y-73025000I-900000J0D01*
G01*
X210670500Y-73025000D02*
G75*
G03X210670500Y-73025000I-2537500J0D01*
G01*
X203145000Y-72603000D02*
X203145000Y-67605000D01*
X203005000Y-72595000D02*
X203005000Y-67613000D01*
X202865000Y-72579000D02*
X202865000Y-70199000D01*
X202865000Y-70009000D02*
X202865000Y-67629000D01*
X202725000Y-72555000D02*
X202725000Y-70594000D01*
X202725000Y-69614000D02*
X202725000Y-67653000D01*
X202585000Y-72522000D02*
X202585000Y-70761000D01*
X202585000Y-69447000D02*
X202585000Y-67686000D01*
X202445000Y-72481000D02*
X202445000Y-70868000D01*
X202445000Y-69340000D02*
X202445000Y-67727000D01*
X202305000Y-72431000D02*
X202305000Y-70939000D01*
X202305000Y-69269000D02*
X202305000Y-67777000D01*
X202165000Y-72370000D02*
X202165000Y-70983000D01*
X202165000Y-69225000D02*
X202165000Y-67838000D01*
X202025000Y-72300000D02*
X202025000Y-71002000D01*
X202025000Y-69206000D02*
X202025000Y-67908000D01*
X201885000Y-72218000D02*
X201885000Y-71000000D01*
X201885000Y-69208000D02*
X201885000Y-67990000D01*
X201745000Y-72123000D02*
X201745000Y-70975000D01*
X201745000Y-69233000D02*
X201745000Y-68085000D01*
X201605000Y-72012000D02*
X201605000Y-70927000D01*
X201605000Y-69281000D02*
X201605000Y-68196000D01*
X201465000Y-71884000D02*
X201465000Y-70849000D01*
X201465000Y-69359000D02*
X201465000Y-68324000D01*
X201325000Y-71735000D02*
X201325000Y-70732000D01*
X201325000Y-69476000D02*
X201325000Y-68473000D01*
X201185000Y-71556000D02*
X201185000Y-70544000D01*
X201185000Y-69664000D02*
X201185000Y-68652000D01*
X201045000Y-71337000D02*
X201045000Y-68871000D01*
X200905000Y-71048000D02*
X200905000Y-69160000D01*
X200765000Y-70576000D02*
X200765000Y-69632000D01*
X202870000Y-70104000D02*
G75*
G03X202870000Y-70104000I-900000J0D01*
G01*
X205757500Y-70104000D02*
G75*
G03X205757500Y-70104000I-2537500J0D01*
G01*
X203145000Y-67015000D02*
X203145000Y-62017000D01*
X203005000Y-67007000D02*
X203005000Y-62025000D01*
X202865000Y-66991000D02*
X202865000Y-64611000D01*
X202865000Y-64421000D02*
X202865000Y-62041000D01*
X202725000Y-66967000D02*
X202725000Y-65006000D01*
X202725000Y-64026000D02*
X202725000Y-62065000D01*
X202585000Y-66934000D02*
X202585000Y-65173000D01*
X202585000Y-63859000D02*
X202585000Y-62098000D01*
X202445000Y-66893000D02*
X202445000Y-65280000D01*
X202445000Y-63752000D02*
X202445000Y-62139000D01*
X202305000Y-66843000D02*
X202305000Y-65351000D01*
X202305000Y-63681000D02*
X202305000Y-62189000D01*
X202165000Y-66782000D02*
X202165000Y-65395000D01*
X202165000Y-63637000D02*
X202165000Y-62250000D01*
X202025000Y-66712000D02*
X202025000Y-65414000D01*
X202025000Y-63618000D02*
X202025000Y-62320000D01*
X201885000Y-66630000D02*
X201885000Y-65412000D01*
X201885000Y-63620000D02*
X201885000Y-62402000D01*
X201745000Y-66535000D02*
X201745000Y-65387000D01*
X201745000Y-63645000D02*
X201745000Y-62497000D01*
X201605000Y-66424000D02*
X201605000Y-65339000D01*
X201605000Y-63693000D02*
X201605000Y-62608000D01*
X201465000Y-66296000D02*
X201465000Y-65261000D01*
X201465000Y-63771000D02*
X201465000Y-62736000D01*
X201325000Y-66147000D02*
X201325000Y-65144000D01*
X201325000Y-63888000D02*
X201325000Y-62885000D01*
X201185000Y-65968000D02*
X201185000Y-64956000D01*
X201185000Y-64076000D02*
X201185000Y-63064000D01*
X201045000Y-65749000D02*
X201045000Y-63283000D01*
X200905000Y-65460000D02*
X200905000Y-63572000D01*
X200765000Y-64988000D02*
X200765000Y-64044000D01*
X202870000Y-64516000D02*
G75*
G03X202870000Y-64516000I-900000J0D01*
G01*
X205757500Y-64516000D02*
G75*
G03X205757500Y-64516000I-2537500J0D01*
G01*
X203145000Y-61427000D02*
X203145000Y-56429000D01*
X203005000Y-61419000D02*
X203005000Y-56437000D01*
X202865000Y-61403000D02*
X202865000Y-59023000D01*
X202865000Y-58833000D02*
X202865000Y-56453000D01*
X202725000Y-61379000D02*
X202725000Y-59418000D01*
X202725000Y-58438000D02*
X202725000Y-56477000D01*
X202585000Y-61346000D02*
X202585000Y-59585000D01*
X202585000Y-58271000D02*
X202585000Y-56510000D01*
X202445000Y-61305000D02*
X202445000Y-59692000D01*
X202445000Y-58164000D02*
X202445000Y-56551000D01*
X202305000Y-61255000D02*
X202305000Y-59763000D01*
X202305000Y-58093000D02*
X202305000Y-56601000D01*
X202165000Y-61194000D02*
X202165000Y-59807000D01*
X202165000Y-58049000D02*
X202165000Y-56662000D01*
X202025000Y-61124000D02*
X202025000Y-59826000D01*
X202025000Y-58030000D02*
X202025000Y-56732000D01*
X201885000Y-61042000D02*
X201885000Y-59824000D01*
X201885000Y-58032000D02*
X201885000Y-56814000D01*
X201745000Y-60947000D02*
X201745000Y-59799000D01*
X201745000Y-58057000D02*
X201745000Y-56909000D01*
X201605000Y-60836000D02*
X201605000Y-59751000D01*
X201605000Y-58105000D02*
X201605000Y-57020000D01*
X201465000Y-60708000D02*
X201465000Y-59673000D01*
X201465000Y-58183000D02*
X201465000Y-57148000D01*
X201325000Y-60559000D02*
X201325000Y-59556000D01*
X201325000Y-58300000D02*
X201325000Y-57297000D01*
X201185000Y-60380000D02*
X201185000Y-59368000D01*
X201185000Y-58488000D02*
X201185000Y-57476000D01*
X201045000Y-60161000D02*
X201045000Y-57695000D01*
X200905000Y-59872000D02*
X200905000Y-57984000D01*
X200765000Y-59400000D02*
X200765000Y-58456000D01*
X202870000Y-58928000D02*
G75*
G03X202870000Y-58928000I-900000J0D01*
G01*
X205757500Y-58928000D02*
G75*
G03X205757500Y-58928000I-2537500J0D01*
G01*
X203145000Y-55839000D02*
X203145000Y-50841000D01*
X203005000Y-55831000D02*
X203005000Y-50849000D01*
X202865000Y-55815000D02*
X202865000Y-53435000D01*
X202865000Y-53245000D02*
X202865000Y-50865000D01*
X202725000Y-55791000D02*
X202725000Y-53830000D01*
X202725000Y-52850000D02*
X202725000Y-50889000D01*
X202585000Y-55758000D02*
X202585000Y-53997000D01*
X202585000Y-52683000D02*
X202585000Y-50922000D01*
X202445000Y-55717000D02*
X202445000Y-54104000D01*
X202445000Y-52576000D02*
X202445000Y-50963000D01*
X202305000Y-55667000D02*
X202305000Y-54175000D01*
X202305000Y-52505000D02*
X202305000Y-51013000D01*
X202165000Y-55606000D02*
X202165000Y-54219000D01*
X202165000Y-52461000D02*
X202165000Y-51074000D01*
X202025000Y-55536000D02*
X202025000Y-54238000D01*
X202025000Y-52442000D02*
X202025000Y-51144000D01*
X201885000Y-55454000D02*
X201885000Y-54236000D01*
X201885000Y-52444000D02*
X201885000Y-51226000D01*
X201745000Y-55359000D02*
X201745000Y-54211000D01*
X201745000Y-52469000D02*
X201745000Y-51321000D01*
X201605000Y-55248000D02*
X201605000Y-54163000D01*
X201605000Y-52517000D02*
X201605000Y-51432000D01*
X201465000Y-55120000D02*
X201465000Y-54085000D01*
X201465000Y-52595000D02*
X201465000Y-51560000D01*
X201325000Y-54971000D02*
X201325000Y-53968000D01*
X201325000Y-52712000D02*
X201325000Y-51709000D01*
X201185000Y-54792000D02*
X201185000Y-53780000D01*
X201185000Y-52900000D02*
X201185000Y-51888000D01*
X201045000Y-54573000D02*
X201045000Y-52107000D01*
X200905000Y-54284000D02*
X200905000Y-52396000D01*
X200765000Y-53812000D02*
X200765000Y-52868000D01*
X202870000Y-53340000D02*
G75*
G03X202870000Y-53340000I-900000J0D01*
G01*
X205757500Y-53340000D02*
G75*
G03X205757500Y-53340000I-2537500J0D01*
G01*
X203145000Y-50251000D02*
X203145000Y-45253000D01*
X203005000Y-50243000D02*
X203005000Y-45261000D01*
X202865000Y-50227000D02*
X202865000Y-47847000D01*
X202865000Y-47657000D02*
X202865000Y-45277000D01*
X202725000Y-50203000D02*
X202725000Y-48242000D01*
X202725000Y-47262000D02*
X202725000Y-45301000D01*
X202585000Y-50170000D02*
X202585000Y-48409000D01*
X202585000Y-47095000D02*
X202585000Y-45334000D01*
X202445000Y-50129000D02*
X202445000Y-48516000D01*
X202445000Y-46988000D02*
X202445000Y-45375000D01*
X202305000Y-50079000D02*
X202305000Y-48587000D01*
X202305000Y-46917000D02*
X202305000Y-45425000D01*
X202165000Y-50018000D02*
X202165000Y-48631000D01*
X202165000Y-46873000D02*
X202165000Y-45486000D01*
X202025000Y-49948000D02*
X202025000Y-48650000D01*
X202025000Y-46854000D02*
X202025000Y-45556000D01*
X201885000Y-49866000D02*
X201885000Y-48648000D01*
X201885000Y-46856000D02*
X201885000Y-45638000D01*
X201745000Y-49771000D02*
X201745000Y-48623000D01*
X201745000Y-46881000D02*
X201745000Y-45733000D01*
X201605000Y-49660000D02*
X201605000Y-48575000D01*
X201605000Y-46929000D02*
X201605000Y-45844000D01*
X201465000Y-49532000D02*
X201465000Y-48497000D01*
X201465000Y-47007000D02*
X201465000Y-45972000D01*
X201325000Y-49383000D02*
X201325000Y-48380000D01*
X201325000Y-47124000D02*
X201325000Y-46121000D01*
X201185000Y-49204000D02*
X201185000Y-48192000D01*
X201185000Y-47312000D02*
X201185000Y-46300000D01*
X201045000Y-48985000D02*
X201045000Y-46519000D01*
X200905000Y-48696000D02*
X200905000Y-46808000D01*
X200765000Y-48224000D02*
X200765000Y-47280000D01*
X202870000Y-47752000D02*
G75*
G03X202870000Y-47752000I-900000J0D01*
G01*
X205757500Y-47752000D02*
G75*
G03X205757500Y-47752000I-2537500J0D01*
G01*
X149352095Y-54570381D02*
X149352095Y-55379905D01*
X149399714Y-55475143D01*
X149447333Y-55522762D01*
X149542571Y-55570381D01*
X149733048Y-55570381D01*
X149828286Y-55522762D01*
X149875905Y-55475143D01*
X149923524Y-55379905D01*
X149923524Y-54570381D01*
X150352095Y-54665619D02*
X150399714Y-54618000D01*
X150494952Y-54570381D01*
X150733048Y-54570381D01*
X150828286Y-54618000D01*
X150875905Y-54665619D01*
X150923524Y-54760857D01*
X150923524Y-54856095D01*
X150875905Y-54998952D01*
X150304476Y-55570381D01*
X150923524Y-55570381D01*
X188083144Y-112692571D02*
X187583144Y-111978286D01*
X187226001Y-112692571D02*
X187226001Y-111192571D01*
X187797429Y-111192571D01*
X187940287Y-111264000D01*
X188011715Y-111335429D01*
X188083144Y-111478286D01*
X188083144Y-111692571D01*
X188011715Y-111835429D01*
X187940287Y-111906857D01*
X187797429Y-111978286D01*
X187226001Y-111978286D01*
X188511715Y-111192571D02*
X189011715Y-112692571D01*
X189511715Y-111192571D01*
X189940286Y-111335429D02*
X190011715Y-111264000D01*
X190154572Y-111192571D01*
X190511715Y-111192571D01*
X190654572Y-111264000D01*
X190726001Y-111335429D01*
X190797429Y-111478286D01*
X190797429Y-111621143D01*
X190726001Y-111835429D01*
X189868858Y-112692571D01*
X190797429Y-112692571D01*
X178685144Y-112692571D02*
X178185144Y-111978286D01*
X177828001Y-112692571D02*
X177828001Y-111192571D01*
X178399429Y-111192571D01*
X178542287Y-111264000D01*
X178613715Y-111335429D01*
X178685144Y-111478286D01*
X178685144Y-111692571D01*
X178613715Y-111835429D01*
X178542287Y-111906857D01*
X178399429Y-111978286D01*
X177828001Y-111978286D01*
X179113715Y-111192571D02*
X179613715Y-112692571D01*
X180113715Y-111192571D01*
X181399429Y-112692571D02*
X180542286Y-112692571D01*
X180970858Y-112692571D02*
X180970858Y-111192571D01*
X180828001Y-111406857D01*
X180685143Y-111549714D01*
X180542286Y-111621143D01*
X171354762Y-112561619D02*
X171259524Y-112514000D01*
X171164286Y-112418762D01*
X171021429Y-112275905D01*
X170926190Y-112228286D01*
X170830952Y-112228286D01*
X170878571Y-112466381D02*
X170783333Y-112418762D01*
X170688095Y-112323524D01*
X170640476Y-112133048D01*
X170640476Y-111799714D01*
X170688095Y-111609238D01*
X170783333Y-111514000D01*
X170878571Y-111466381D01*
X171069048Y-111466381D01*
X171164286Y-111514000D01*
X171259524Y-111609238D01*
X171307143Y-111799714D01*
X171307143Y-112133048D01*
X171259524Y-112323524D01*
X171164286Y-112418762D01*
X171069048Y-112466381D01*
X170878571Y-112466381D01*
X171640476Y-111466381D02*
X172259524Y-111466381D01*
X171926190Y-111847333D01*
X172069048Y-111847333D01*
X172164286Y-111894952D01*
X172211905Y-111942571D01*
X172259524Y-112037810D01*
X172259524Y-112275905D01*
X172211905Y-112371143D01*
X172164286Y-112418762D01*
X172069048Y-112466381D01*
X171783333Y-112466381D01*
X171688095Y-112418762D01*
X171640476Y-112371143D01*
X174251905Y-108974000D02*
X174156667Y-108926381D01*
X174013810Y-108926381D01*
X173870952Y-108974000D01*
X173775714Y-109069238D01*
X173728095Y-109164476D01*
X173680476Y-109354952D01*
X173680476Y-109497810D01*
X173728095Y-109688286D01*
X173775714Y-109783524D01*
X173870952Y-109878762D01*
X174013810Y-109926381D01*
X174109048Y-109926381D01*
X174251905Y-109878762D01*
X174299524Y-109831143D01*
X174299524Y-109497810D01*
X174109048Y-109497810D01*
X171188095Y-109926381D02*
X171188095Y-108926381D01*
X171426190Y-108926381D01*
X171569048Y-108974000D01*
X171664286Y-109069238D01*
X171711905Y-109164476D01*
X171759524Y-109354952D01*
X171759524Y-109497810D01*
X171711905Y-109688286D01*
X171664286Y-109783524D01*
X171569048Y-109878762D01*
X171426190Y-109926381D01*
X171188095Y-109926381D01*
X168624286Y-109878762D02*
X168767143Y-109926381D01*
X169005239Y-109926381D01*
X169100477Y-109878762D01*
X169148096Y-109831143D01*
X169195715Y-109735905D01*
X169195715Y-109640667D01*
X169148096Y-109545429D01*
X169100477Y-109497810D01*
X169005239Y-109450190D01*
X168814762Y-109402571D01*
X168719524Y-109354952D01*
X168671905Y-109307333D01*
X168624286Y-109212095D01*
X168624286Y-109116857D01*
X168671905Y-109021619D01*
X168719524Y-108974000D01*
X168814762Y-108926381D01*
X169052858Y-108926381D01*
X169195715Y-108974000D01*
X165806381Y-122022382D02*
X164806381Y-122022382D01*
X165520667Y-121689048D01*
X164806381Y-121355715D01*
X165806381Y-121355715D01*
X165806381Y-120736668D02*
X165758762Y-120831906D01*
X165711143Y-120879525D01*
X165615905Y-120927144D01*
X165330190Y-120927144D01*
X165234952Y-120879525D01*
X165187333Y-120831906D01*
X165139714Y-120736668D01*
X165139714Y-120593810D01*
X165187333Y-120498572D01*
X165234952Y-120450953D01*
X165330190Y-120403334D01*
X165615905Y-120403334D01*
X165711143Y-120450953D01*
X165758762Y-120498572D01*
X165806381Y-120593810D01*
X165806381Y-120736668D01*
X165139714Y-119546191D02*
X165806381Y-119546191D01*
X165139714Y-119974763D02*
X165663524Y-119974763D01*
X165758762Y-119927144D01*
X165806381Y-119831906D01*
X165806381Y-119689048D01*
X165758762Y-119593810D01*
X165711143Y-119546191D01*
X165139714Y-119070001D02*
X165806381Y-119070001D01*
X165234952Y-119070001D02*
X165187333Y-119022382D01*
X165139714Y-118927144D01*
X165139714Y-118784286D01*
X165187333Y-118689048D01*
X165282571Y-118641429D01*
X165806381Y-118641429D01*
X165139714Y-118308096D02*
X165139714Y-117927144D01*
X164806381Y-118165239D02*
X165663524Y-118165239D01*
X165758762Y-118117620D01*
X165806381Y-118022382D01*
X165806381Y-117927144D01*
X165758762Y-117212857D02*
X165806381Y-117308095D01*
X165806381Y-117498572D01*
X165758762Y-117593810D01*
X165663524Y-117641429D01*
X165282571Y-117641429D01*
X165187333Y-117593810D01*
X165139714Y-117498572D01*
X165139714Y-117308095D01*
X165187333Y-117212857D01*
X165282571Y-117165238D01*
X165377810Y-117165238D01*
X165473048Y-117641429D01*
X165806381Y-116308095D02*
X164806381Y-116308095D01*
X165758762Y-116308095D02*
X165806381Y-116403333D01*
X165806381Y-116593810D01*
X165758762Y-116689048D01*
X165711143Y-116736667D01*
X165615905Y-116784286D01*
X165330190Y-116784286D01*
X165234952Y-116736667D01*
X165187333Y-116689048D01*
X165139714Y-116593810D01*
X165139714Y-116403333D01*
X165187333Y-116308095D01*
X165139714Y-115212857D02*
X165139714Y-114831905D01*
X165806381Y-115070000D02*
X164949238Y-115070000D01*
X164854000Y-115022381D01*
X164806381Y-114927143D01*
X164806381Y-114831905D01*
X165806381Y-114498571D02*
X165139714Y-114498571D01*
X165330190Y-114498571D02*
X165234952Y-114450952D01*
X165187333Y-114403333D01*
X165139714Y-114308095D01*
X165139714Y-114212856D01*
X165806381Y-113736666D02*
X165758762Y-113831904D01*
X165711143Y-113879523D01*
X165615905Y-113927142D01*
X165330190Y-113927142D01*
X165234952Y-113879523D01*
X165187333Y-113831904D01*
X165139714Y-113736666D01*
X165139714Y-113593808D01*
X165187333Y-113498570D01*
X165234952Y-113450951D01*
X165330190Y-113403332D01*
X165615905Y-113403332D01*
X165711143Y-113450951D01*
X165758762Y-113498570D01*
X165806381Y-113593808D01*
X165806381Y-113736666D01*
X165806381Y-112974761D02*
X165139714Y-112974761D01*
X165234952Y-112974761D02*
X165187333Y-112927142D01*
X165139714Y-112831904D01*
X165139714Y-112689046D01*
X165187333Y-112593808D01*
X165282571Y-112546189D01*
X165806381Y-112546189D01*
X165282571Y-112546189D02*
X165187333Y-112498570D01*
X165139714Y-112403332D01*
X165139714Y-112260475D01*
X165187333Y-112165237D01*
X165282571Y-112117618D01*
X165806381Y-112117618D01*
X165806381Y-110403332D02*
X165806381Y-110879523D01*
X164806381Y-110879523D01*
X165758762Y-110117618D02*
X165806381Y-109974761D01*
X165806381Y-109736665D01*
X165758762Y-109641427D01*
X165711143Y-109593808D01*
X165615905Y-109546189D01*
X165520667Y-109546189D01*
X165425429Y-109593808D01*
X165377810Y-109641427D01*
X165330190Y-109736665D01*
X165282571Y-109927142D01*
X165234952Y-110022380D01*
X165187333Y-110069999D01*
X165092095Y-110117618D01*
X164996857Y-110117618D01*
X164901619Y-110069999D01*
X164854000Y-110022380D01*
X164806381Y-109927142D01*
X164806381Y-109689046D01*
X164854000Y-109546189D01*
X165711143Y-109117618D02*
X165758762Y-109069999D01*
X165806381Y-109117618D01*
X165758762Y-109165237D01*
X165711143Y-109117618D01*
X165806381Y-109117618D01*
X165425429Y-109117618D02*
X164854000Y-109165237D01*
X164806381Y-109117618D01*
X164854000Y-109069999D01*
X165425429Y-109117618D01*
X164806381Y-109117618D01*
X171354762Y-86272619D02*
X171259524Y-86225000D01*
X171164286Y-86129762D01*
X171021429Y-85986905D01*
X170926190Y-85939286D01*
X170830952Y-85939286D01*
X170878571Y-86177381D02*
X170783333Y-86129762D01*
X170688095Y-86034524D01*
X170640476Y-85844048D01*
X170640476Y-85510714D01*
X170688095Y-85320238D01*
X170783333Y-85225000D01*
X170878571Y-85177381D01*
X171069048Y-85177381D01*
X171164286Y-85225000D01*
X171259524Y-85320238D01*
X171307143Y-85510714D01*
X171307143Y-85844048D01*
X171259524Y-86034524D01*
X171164286Y-86129762D01*
X171069048Y-86177381D01*
X170878571Y-86177381D01*
X172164286Y-85510714D02*
X172164286Y-86177381D01*
X171926190Y-85129762D02*
X171688095Y-85844048D01*
X172307143Y-85844048D01*
X169171905Y-87765000D02*
X169076667Y-87717381D01*
X168933810Y-87717381D01*
X168790952Y-87765000D01*
X168695714Y-87860238D01*
X168648095Y-87955476D01*
X168600476Y-88145952D01*
X168600476Y-88288810D01*
X168648095Y-88479286D01*
X168695714Y-88574524D01*
X168790952Y-88669762D01*
X168933810Y-88717381D01*
X169029048Y-88717381D01*
X169171905Y-88669762D01*
X169219524Y-88622143D01*
X169219524Y-88288810D01*
X169029048Y-88288810D01*
X171188095Y-88717381D02*
X171188095Y-87717381D01*
X171426190Y-87717381D01*
X171569048Y-87765000D01*
X171664286Y-87860238D01*
X171711905Y-87955476D01*
X171759524Y-88145952D01*
X171759524Y-88288810D01*
X171711905Y-88479286D01*
X171664286Y-88574524D01*
X171569048Y-88669762D01*
X171426190Y-88717381D01*
X171188095Y-88717381D01*
X173704286Y-88669762D02*
X173847143Y-88717381D01*
X174085239Y-88717381D01*
X174180477Y-88669762D01*
X174228096Y-88622143D01*
X174275715Y-88526905D01*
X174275715Y-88431667D01*
X174228096Y-88336429D01*
X174180477Y-88288810D01*
X174085239Y-88241190D01*
X173894762Y-88193571D01*
X173799524Y-88145952D01*
X173751905Y-88098333D01*
X173704286Y-88003095D01*
X173704286Y-87907857D01*
X173751905Y-87812619D01*
X173799524Y-87765000D01*
X173894762Y-87717381D01*
X174132858Y-87717381D01*
X174275715Y-87765000D01*
X177998381Y-88494382D02*
X176998381Y-88494382D01*
X177712667Y-88161048D01*
X176998381Y-87827715D01*
X177998381Y-87827715D01*
X177998381Y-87208668D02*
X177950762Y-87303906D01*
X177903143Y-87351525D01*
X177807905Y-87399144D01*
X177522190Y-87399144D01*
X177426952Y-87351525D01*
X177379333Y-87303906D01*
X177331714Y-87208668D01*
X177331714Y-87065810D01*
X177379333Y-86970572D01*
X177426952Y-86922953D01*
X177522190Y-86875334D01*
X177807905Y-86875334D01*
X177903143Y-86922953D01*
X177950762Y-86970572D01*
X177998381Y-87065810D01*
X177998381Y-87208668D01*
X177331714Y-86018191D02*
X177998381Y-86018191D01*
X177331714Y-86446763D02*
X177855524Y-86446763D01*
X177950762Y-86399144D01*
X177998381Y-86303906D01*
X177998381Y-86161048D01*
X177950762Y-86065810D01*
X177903143Y-86018191D01*
X177331714Y-85542001D02*
X177998381Y-85542001D01*
X177426952Y-85542001D02*
X177379333Y-85494382D01*
X177331714Y-85399144D01*
X177331714Y-85256286D01*
X177379333Y-85161048D01*
X177474571Y-85113429D01*
X177998381Y-85113429D01*
X177331714Y-84780096D02*
X177331714Y-84399144D01*
X176998381Y-84637239D02*
X177855524Y-84637239D01*
X177950762Y-84589620D01*
X177998381Y-84494382D01*
X177998381Y-84399144D01*
X177950762Y-83684857D02*
X177998381Y-83780095D01*
X177998381Y-83970572D01*
X177950762Y-84065810D01*
X177855524Y-84113429D01*
X177474571Y-84113429D01*
X177379333Y-84065810D01*
X177331714Y-83970572D01*
X177331714Y-83780095D01*
X177379333Y-83684857D01*
X177474571Y-83637238D01*
X177569810Y-83637238D01*
X177665048Y-84113429D01*
X177998381Y-82780095D02*
X176998381Y-82780095D01*
X177950762Y-82780095D02*
X177998381Y-82875333D01*
X177998381Y-83065810D01*
X177950762Y-83161048D01*
X177903143Y-83208667D01*
X177807905Y-83256286D01*
X177522190Y-83256286D01*
X177426952Y-83208667D01*
X177379333Y-83161048D01*
X177331714Y-83065810D01*
X177331714Y-82875333D01*
X177379333Y-82780095D01*
X177331714Y-81684857D02*
X177331714Y-81303905D01*
X177998381Y-81542000D02*
X177141238Y-81542000D01*
X177046000Y-81494381D01*
X176998381Y-81399143D01*
X176998381Y-81303905D01*
X177998381Y-80970571D02*
X177331714Y-80970571D01*
X177522190Y-80970571D02*
X177426952Y-80922952D01*
X177379333Y-80875333D01*
X177331714Y-80780095D01*
X177331714Y-80684856D01*
X177998381Y-80208666D02*
X177950762Y-80303904D01*
X177903143Y-80351523D01*
X177807905Y-80399142D01*
X177522190Y-80399142D01*
X177426952Y-80351523D01*
X177379333Y-80303904D01*
X177331714Y-80208666D01*
X177331714Y-80065808D01*
X177379333Y-79970570D01*
X177426952Y-79922951D01*
X177522190Y-79875332D01*
X177807905Y-79875332D01*
X177903143Y-79922951D01*
X177950762Y-79970570D01*
X177998381Y-80065808D01*
X177998381Y-80208666D01*
X177998381Y-79446761D02*
X177331714Y-79446761D01*
X177426952Y-79446761D02*
X177379333Y-79399142D01*
X177331714Y-79303904D01*
X177331714Y-79161046D01*
X177379333Y-79065808D01*
X177474571Y-79018189D01*
X177998381Y-79018189D01*
X177474571Y-79018189D02*
X177379333Y-78970570D01*
X177331714Y-78875332D01*
X177331714Y-78732475D01*
X177379333Y-78637237D01*
X177474571Y-78589618D01*
X177998381Y-78589618D01*
X177998381Y-76875332D02*
X177998381Y-77351523D01*
X176998381Y-77351523D01*
X177950762Y-76589618D02*
X177998381Y-76446761D01*
X177998381Y-76208665D01*
X177950762Y-76113427D01*
X177903143Y-76065808D01*
X177807905Y-76018189D01*
X177712667Y-76018189D01*
X177617429Y-76065808D01*
X177569810Y-76113427D01*
X177522190Y-76208665D01*
X177474571Y-76399142D01*
X177426952Y-76494380D01*
X177379333Y-76541999D01*
X177284095Y-76589618D01*
X177188857Y-76589618D01*
X177093619Y-76541999D01*
X177046000Y-76494380D01*
X176998381Y-76399142D01*
X176998381Y-76161046D01*
X177046000Y-76018189D01*
X177903143Y-75589618D02*
X177950762Y-75541999D01*
X177998381Y-75589618D01*
X177950762Y-75637237D01*
X177903143Y-75589618D01*
X177998381Y-75589618D01*
X177617429Y-75589618D02*
X177046000Y-75637237D01*
X176998381Y-75589618D01*
X177046000Y-75541999D01*
X177617429Y-75589618D01*
X176998381Y-75589618D01*
X226476858Y-80180571D02*
X226476858Y-78680571D01*
X227048286Y-78680571D01*
X227191144Y-78752000D01*
X227262572Y-78823429D01*
X227334001Y-78966286D01*
X227334001Y-79180571D01*
X227262572Y-79323429D01*
X227191144Y-79394857D01*
X227048286Y-79466286D01*
X226476858Y-79466286D01*
X228762572Y-80180571D02*
X227905429Y-80180571D01*
X228334001Y-80180571D02*
X228334001Y-78680571D01*
X228191144Y-78894857D01*
X228048286Y-79037714D01*
X227905429Y-79109143D01*
X230886143Y-71767000D02*
X230743286Y-71695571D01*
X230529000Y-71695571D01*
X230314715Y-71767000D01*
X230171857Y-71909857D01*
X230100429Y-72052714D01*
X230029000Y-72338429D01*
X230029000Y-72552714D01*
X230100429Y-72838429D01*
X230171857Y-72981286D01*
X230314715Y-73124143D01*
X230529000Y-73195571D01*
X230671857Y-73195571D01*
X230886143Y-73124143D01*
X230957572Y-73052714D01*
X230957572Y-72552714D01*
X230671857Y-72552714D01*
X231600429Y-73195571D02*
X231600429Y-71695571D01*
X232457572Y-73195571D01*
X232457572Y-71695571D01*
X233171858Y-73195571D02*
X233171858Y-71695571D01*
X233529001Y-71695571D01*
X233743286Y-71767000D01*
X233886144Y-71909857D01*
X233957572Y-72052714D01*
X234029001Y-72338429D01*
X234029001Y-72552714D01*
X233957572Y-72838429D01*
X233886144Y-72981286D01*
X233743286Y-73124143D01*
X233529001Y-73195571D01*
X233171858Y-73195571D01*
X230029001Y-76434143D02*
X231171858Y-76434143D01*
X230600429Y-77005571D02*
X230600429Y-75862714D01*
X232671858Y-77005571D02*
X231814715Y-77005571D01*
X232243287Y-77005571D02*
X232243287Y-75505571D01*
X232100430Y-75719857D01*
X231957572Y-75862714D01*
X231814715Y-75934143D01*
X233243286Y-75648429D02*
X233314715Y-75577000D01*
X233457572Y-75505571D01*
X233814715Y-75505571D01*
X233957572Y-75577000D01*
X234029001Y-75648429D01*
X234100429Y-75791286D01*
X234100429Y-75934143D01*
X234029001Y-76148429D01*
X233171858Y-77005571D01*
X234100429Y-77005571D01*
X147574095Y-66000381D02*
X147574095Y-66809905D01*
X147621714Y-66905143D01*
X147669333Y-66952762D01*
X147764571Y-67000381D01*
X147955048Y-67000381D01*
X148050286Y-66952762D01*
X148097905Y-66905143D01*
X148145524Y-66809905D01*
X148145524Y-66000381D01*
X149097905Y-66000381D02*
X148621714Y-66000381D01*
X148574095Y-66476571D01*
X148621714Y-66428952D01*
X148716952Y-66381333D01*
X148955048Y-66381333D01*
X149050286Y-66428952D01*
X149097905Y-66476571D01*
X149145524Y-66571810D01*
X149145524Y-66809905D01*
X149097905Y-66905143D01*
X149050286Y-66952762D01*
X148955048Y-67000381D01*
X148716952Y-67000381D01*
X148621714Y-66952762D01*
X148574095Y-66905143D01*
X232878334Y-69667381D02*
X232402143Y-69667381D01*
X232402143Y-68667381D01*
X233735477Y-69667381D02*
X233164048Y-69667381D01*
X233449762Y-69667381D02*
X233449762Y-68667381D01*
X233354524Y-68810238D01*
X233259286Y-68905476D01*
X233164048Y-68953095D01*
X204632858Y-108628571D02*
X204632858Y-107128571D01*
X205490001Y-108628571D02*
X204847144Y-107771429D01*
X205490001Y-107128571D02*
X204632858Y-107985714D01*
X205990001Y-107128571D02*
X206990001Y-107128571D01*
X206347144Y-108628571D01*
X86522858Y-103548571D02*
X86522858Y-102048571D01*
X87380001Y-103548571D02*
X86737144Y-102691429D01*
X87380001Y-102048571D02*
X86522858Y-102905714D01*
X88737144Y-102048571D02*
X88022858Y-102048571D01*
X87951429Y-102762857D01*
X88022858Y-102691429D01*
X88165715Y-102620000D01*
X88522858Y-102620000D01*
X88665715Y-102691429D01*
X88737144Y-102762857D01*
X88808572Y-102905714D01*
X88808572Y-103262857D01*
X88737144Y-103405714D01*
X88665715Y-103477143D01*
X88522858Y-103548571D01*
X88165715Y-103548571D01*
X88022858Y-103477143D01*
X87951429Y-103405714D01*
X86522858Y-118788571D02*
X86522858Y-117288571D01*
X87380001Y-118788571D02*
X86737144Y-117931429D01*
X87380001Y-117288571D02*
X86522858Y-118145714D01*
X88665715Y-117788571D02*
X88665715Y-118788571D01*
X88308572Y-117217143D02*
X87951429Y-118288571D01*
X88880001Y-118288571D01*
X122082858Y-120058571D02*
X122082858Y-118558571D01*
X122940001Y-120058571D02*
X122297144Y-119201429D01*
X122940001Y-118558571D02*
X122082858Y-119415714D01*
X124368572Y-120058571D02*
X123511429Y-120058571D01*
X123940001Y-120058571D02*
X123940001Y-118558571D01*
X123797144Y-118772857D01*
X123654286Y-118915714D01*
X123511429Y-118987143D01*
X122082858Y-104818571D02*
X122082858Y-103318571D01*
X122940001Y-104818571D02*
X122297144Y-103961429D01*
X122940001Y-103318571D02*
X122082858Y-104175714D01*
X123511429Y-103461429D02*
X123582858Y-103390000D01*
X123725715Y-103318571D01*
X124082858Y-103318571D01*
X124225715Y-103390000D01*
X124297144Y-103461429D01*
X124368572Y-103604286D01*
X124368572Y-103747143D01*
X124297144Y-103961429D01*
X123440001Y-104818571D01*
X124368572Y-104818571D01*
X122082858Y-89578571D02*
X122082858Y-88078571D01*
X122940001Y-89578571D02*
X122297144Y-88721429D01*
X122940001Y-88078571D02*
X122082858Y-88935714D01*
X123440001Y-88078571D02*
X124368572Y-88078571D01*
X123868572Y-88650000D01*
X124082858Y-88650000D01*
X124225715Y-88721429D01*
X124297144Y-88792857D01*
X124368572Y-88935714D01*
X124368572Y-89292857D01*
X124297144Y-89435714D01*
X124225715Y-89507143D01*
X124082858Y-89578571D01*
X123654286Y-89578571D01*
X123511429Y-89507143D01*
X123440001Y-89435714D01*
X86522858Y-88308571D02*
X86522858Y-86808571D01*
X87380001Y-88308571D02*
X86737144Y-87451429D01*
X87380001Y-86808571D02*
X86522858Y-87665714D01*
X88665715Y-86808571D02*
X88380001Y-86808571D01*
X88237144Y-86880000D01*
X88165715Y-86951429D01*
X88022858Y-87165714D01*
X87951429Y-87451429D01*
X87951429Y-88022857D01*
X88022858Y-88165714D01*
X88094286Y-88237143D01*
X88237144Y-88308571D01*
X88522858Y-88308571D01*
X88665715Y-88237143D01*
X88737144Y-88165714D01*
X88808572Y-88022857D01*
X88808572Y-87665714D01*
X88737144Y-87522857D01*
X88665715Y-87451429D01*
X88522858Y-87380000D01*
X88237144Y-87380000D01*
X88094286Y-87451429D01*
X88022858Y-87522857D01*
X87951429Y-87665714D01*
X230187714Y-108962000D02*
X230902000Y-108962000D01*
X230044857Y-109390571D02*
X230544857Y-107890571D01*
X231044857Y-109390571D01*
X231544857Y-109390571D02*
X231544857Y-107890571D01*
X232402000Y-109390571D01*
X232402000Y-107890571D01*
X232902000Y-107890571D02*
X233759143Y-107890571D01*
X233330572Y-109390571D02*
X233330572Y-107890571D01*
X229068572Y-87165571D02*
X228568572Y-86451286D01*
X228211429Y-87165571D02*
X228211429Y-85665571D01*
X228782857Y-85665571D01*
X228925715Y-85737000D01*
X228997143Y-85808429D01*
X229068572Y-85951286D01*
X229068572Y-86165571D01*
X228997143Y-86308429D01*
X228925715Y-86379857D01*
X228782857Y-86451286D01*
X228211429Y-86451286D01*
X229640000Y-86737000D02*
X230354286Y-86737000D01*
X229497143Y-87165571D02*
X229997143Y-85665571D01*
X230497143Y-87165571D01*
X230997143Y-87165571D02*
X230997143Y-85665571D01*
X231354286Y-85665571D01*
X231568571Y-85737000D01*
X231711429Y-85879857D01*
X231782857Y-86022714D01*
X231854286Y-86308429D01*
X231854286Y-86522714D01*
X231782857Y-86808429D01*
X231711429Y-86951286D01*
X231568571Y-87094143D01*
X231354286Y-87165571D01*
X230997143Y-87165571D01*
X232497143Y-87165571D02*
X232497143Y-85665571D01*
X233497143Y-85665571D02*
X233782857Y-85665571D01*
X233925715Y-85737000D01*
X234068572Y-85879857D01*
X234140000Y-86165571D01*
X234140000Y-86665571D01*
X234068572Y-86951286D01*
X233925715Y-87094143D01*
X233782857Y-87165571D01*
X233497143Y-87165571D01*
X233354286Y-87094143D01*
X233211429Y-86951286D01*
X233140000Y-86665571D01*
X233140000Y-86165571D01*
X233211429Y-85879857D01*
X233354286Y-85737000D01*
X233497143Y-85665571D01*
X203616858Y-86530571D02*
X203616858Y-85030571D01*
X203974001Y-85030571D01*
X204188286Y-85102000D01*
X204331144Y-85244857D01*
X204402572Y-85387714D01*
X204474001Y-85673429D01*
X204474001Y-85887714D01*
X204402572Y-86173429D01*
X204331144Y-86316286D01*
X204188286Y-86459143D01*
X203974001Y-86530571D01*
X203616858Y-86530571D01*
X205902572Y-86530571D02*
X205045429Y-86530571D01*
X205474001Y-86530571D02*
X205474001Y-85030571D01*
X205331144Y-85244857D01*
X205188286Y-85387714D01*
X205045429Y-85459143D01*
X212252858Y-127932571D02*
X212252858Y-126432571D01*
X212610001Y-126432571D01*
X212824286Y-126504000D01*
X212967144Y-126646857D01*
X213038572Y-126789714D01*
X213110001Y-127075429D01*
X213110001Y-127289714D01*
X213038572Y-127575429D01*
X212967144Y-127718286D01*
X212824286Y-127861143D01*
X212610001Y-127932571D01*
X212252858Y-127932571D01*
X214395715Y-126932571D02*
X214395715Y-127932571D01*
X214038572Y-126361143D02*
X213681429Y-127432571D01*
X214610001Y-127432571D01*
X198028858Y-127932571D02*
X198028858Y-126432571D01*
X198386001Y-126432571D01*
X198600286Y-126504000D01*
X198743144Y-126646857D01*
X198814572Y-126789714D01*
X198886001Y-127075429D01*
X198886001Y-127289714D01*
X198814572Y-127575429D01*
X198743144Y-127718286D01*
X198600286Y-127861143D01*
X198386001Y-127932571D01*
X198028858Y-127932571D01*
X200243144Y-126432571D02*
X199528858Y-126432571D01*
X199457429Y-127146857D01*
X199528858Y-127075429D01*
X199671715Y-127004000D01*
X200028858Y-127004000D01*
X200171715Y-127075429D01*
X200243144Y-127146857D01*
X200314572Y-127289714D01*
X200314572Y-127646857D01*
X200243144Y-127789714D01*
X200171715Y-127861143D01*
X200028858Y-127932571D01*
X199671715Y-127932571D01*
X199528858Y-127861143D01*
X199457429Y-127789714D01*
X201930095Y-109546381D02*
X202501524Y-109546381D01*
X202215809Y-110546381D02*
X202215809Y-109546381D01*
X203263429Y-109879714D02*
X203263429Y-110546381D01*
X203025333Y-109498762D02*
X202787238Y-110213048D01*
X203406286Y-110213048D01*
X208915095Y-117181381D02*
X209486524Y-117181381D01*
X209200809Y-118181381D02*
X209200809Y-117181381D01*
X210296048Y-117181381D02*
X209819857Y-117181381D01*
X209772238Y-117657571D01*
X209819857Y-117609952D01*
X209915095Y-117562333D01*
X210153191Y-117562333D01*
X210248429Y-117609952D01*
X210296048Y-117657571D01*
X210343667Y-117752810D01*
X210343667Y-117990905D01*
X210296048Y-118086143D01*
X210248429Y-118133762D01*
X210153191Y-118181381D01*
X209915095Y-118181381D01*
X209819857Y-118133762D01*
X209772238Y-118086143D01*
X116673334Y-91272381D02*
X116197143Y-91272381D01*
X116197143Y-90272381D01*
X117435239Y-90605714D02*
X117435239Y-91272381D01*
X117197143Y-90224762D02*
X116959048Y-90939048D01*
X117578096Y-90939048D01*
X116673334Y-106512381D02*
X116197143Y-106512381D01*
X116197143Y-105512381D01*
X116911429Y-105512381D02*
X117530477Y-105512381D01*
X117197143Y-105893333D01*
X117340001Y-105893333D01*
X117435239Y-105940952D01*
X117482858Y-105988571D01*
X117530477Y-106083810D01*
X117530477Y-106321905D01*
X117482858Y-106417143D01*
X117435239Y-106464762D01*
X117340001Y-106512381D01*
X117054286Y-106512381D01*
X116959048Y-106464762D01*
X116911429Y-106417143D01*
X106513334Y-91272381D02*
X106037143Y-91272381D01*
X106037143Y-90272381D01*
X106989524Y-90700952D02*
X106894286Y-90653333D01*
X106846667Y-90605714D01*
X106799048Y-90510476D01*
X106799048Y-90462857D01*
X106846667Y-90367619D01*
X106894286Y-90320000D01*
X106989524Y-90272381D01*
X107180001Y-90272381D01*
X107275239Y-90320000D01*
X107322858Y-90367619D01*
X107370477Y-90462857D01*
X107370477Y-90510476D01*
X107322858Y-90605714D01*
X107275239Y-90653333D01*
X107180001Y-90700952D01*
X106989524Y-90700952D01*
X106894286Y-90748571D01*
X106846667Y-90796190D01*
X106799048Y-90891429D01*
X106799048Y-91081905D01*
X106846667Y-91177143D01*
X106894286Y-91224762D01*
X106989524Y-91272381D01*
X107180001Y-91272381D01*
X107275239Y-91224762D01*
X107322858Y-91177143D01*
X107370477Y-91081905D01*
X107370477Y-90891429D01*
X107322858Y-90796190D01*
X107275239Y-90748571D01*
X107180001Y-90700952D01*
X139787334Y-78684381D02*
X139311143Y-78684381D01*
X139311143Y-77684381D01*
X140596858Y-77684381D02*
X140120667Y-77684381D01*
X140073048Y-78160571D01*
X140120667Y-78112952D01*
X140215905Y-78065333D01*
X140454001Y-78065333D01*
X140549239Y-78112952D01*
X140596858Y-78160571D01*
X140644477Y-78255810D01*
X140644477Y-78493905D01*
X140596858Y-78589143D01*
X140549239Y-78636762D01*
X140454001Y-78684381D01*
X140215905Y-78684381D01*
X140120667Y-78636762D01*
X140073048Y-78589143D01*
X106513334Y-106512381D02*
X106037143Y-106512381D01*
X106037143Y-105512381D01*
X106751429Y-105512381D02*
X107418096Y-105512381D01*
X106989524Y-106512381D01*
X106513334Y-121752381D02*
X106037143Y-121752381D01*
X106037143Y-120752381D01*
X107275239Y-120752381D02*
X107084762Y-120752381D01*
X106989524Y-120800000D01*
X106941905Y-120847619D01*
X106846667Y-120990476D01*
X106799048Y-121180952D01*
X106799048Y-121561905D01*
X106846667Y-121657143D01*
X106894286Y-121704762D01*
X106989524Y-121752381D01*
X107180001Y-121752381D01*
X107275239Y-121704762D01*
X107322858Y-121657143D01*
X107370477Y-121561905D01*
X107370477Y-121323810D01*
X107322858Y-121228571D01*
X107275239Y-121180952D01*
X107180001Y-121133333D01*
X106989524Y-121133333D01*
X106894286Y-121180952D01*
X106846667Y-121228571D01*
X106799048Y-121323810D01*
X116673334Y-121752381D02*
X116197143Y-121752381D01*
X116197143Y-120752381D01*
X116959048Y-120847619D02*
X117006667Y-120800000D01*
X117101905Y-120752381D01*
X117340001Y-120752381D01*
X117435239Y-120800000D01*
X117482858Y-120847619D01*
X117530477Y-120942857D01*
X117530477Y-121038095D01*
X117482858Y-121180952D01*
X116911429Y-121752381D01*
X117530477Y-121752381D01*
X204811334Y-93067143D02*
X204763715Y-93114762D01*
X204620858Y-93162381D01*
X204525620Y-93162381D01*
X204382762Y-93114762D01*
X204287524Y-93019524D01*
X204239905Y-92924286D01*
X204192286Y-92733810D01*
X204192286Y-92590952D01*
X204239905Y-92400476D01*
X204287524Y-92305238D01*
X204382762Y-92210000D01*
X204525620Y-92162381D01*
X204620858Y-92162381D01*
X204763715Y-92210000D01*
X204811334Y-92257619D01*
X205763715Y-93162381D02*
X205192286Y-93162381D01*
X205478000Y-93162381D02*
X205478000Y-92162381D01*
X205382762Y-92305238D01*
X205287524Y-92400476D01*
X205192286Y-92448095D01*
X203033334Y-77192143D02*
X202985715Y-77239762D01*
X202842858Y-77287381D01*
X202747620Y-77287381D01*
X202604762Y-77239762D01*
X202509524Y-77144524D01*
X202461905Y-77049286D01*
X202414286Y-76858810D01*
X202414286Y-76715952D01*
X202461905Y-76525476D01*
X202509524Y-76430238D01*
X202604762Y-76335000D01*
X202747620Y-76287381D01*
X202842858Y-76287381D01*
X202985715Y-76335000D01*
X203033334Y-76382619D01*
X203414286Y-76382619D02*
X203461905Y-76335000D01*
X203557143Y-76287381D01*
X203795239Y-76287381D01*
X203890477Y-76335000D01*
X203938096Y-76382619D01*
X203985715Y-76477857D01*
X203985715Y-76573095D01*
X203938096Y-76715952D01*
X203366667Y-77287381D01*
X203985715Y-77287381D01*
X155789334Y-50903143D02*
X155741715Y-50950762D01*
X155598858Y-50998381D01*
X155503620Y-50998381D01*
X155360762Y-50950762D01*
X155265524Y-50855524D01*
X155217905Y-50760286D01*
X155170286Y-50569810D01*
X155170286Y-50426952D01*
X155217905Y-50236476D01*
X155265524Y-50141238D01*
X155360762Y-50046000D01*
X155503620Y-49998381D01*
X155598858Y-49998381D01*
X155741715Y-50046000D01*
X155789334Y-50093619D01*
X156122667Y-49998381D02*
X156741715Y-49998381D01*
X156408381Y-50379333D01*
X156551239Y-50379333D01*
X156646477Y-50426952D01*
X156694096Y-50474571D01*
X156741715Y-50569810D01*
X156741715Y-50807905D01*
X156694096Y-50903143D01*
X156646477Y-50950762D01*
X156551239Y-50998381D01*
X156265524Y-50998381D01*
X156170286Y-50950762D01*
X156122667Y-50903143D01*
X196302334Y-46204143D02*
X196254715Y-46251762D01*
X196111858Y-46299381D01*
X196016620Y-46299381D01*
X195873762Y-46251762D01*
X195778524Y-46156524D01*
X195730905Y-46061286D01*
X195683286Y-45870810D01*
X195683286Y-45727952D01*
X195730905Y-45537476D01*
X195778524Y-45442238D01*
X195873762Y-45347000D01*
X196016620Y-45299381D01*
X196111858Y-45299381D01*
X196254715Y-45347000D01*
X196302334Y-45394619D01*
X196778524Y-46299381D02*
X196969000Y-46299381D01*
X197064239Y-46251762D01*
X197111858Y-46204143D01*
X197207096Y-46061286D01*
X197254715Y-45870810D01*
X197254715Y-45489857D01*
X197207096Y-45394619D01*
X197159477Y-45347000D01*
X197064239Y-45299381D01*
X196873762Y-45299381D01*
X196778524Y-45347000D01*
X196730905Y-45394619D01*
X196683286Y-45489857D01*
X196683286Y-45727952D01*
X196730905Y-45823190D01*
X196778524Y-45870810D01*
X196873762Y-45918429D01*
X197064239Y-45918429D01*
X197159477Y-45870810D01*
X197207096Y-45823190D01*
X197254715Y-45727952D01*
X192778143Y-46204143D02*
X192730524Y-46251762D01*
X192587667Y-46299381D01*
X192492429Y-46299381D01*
X192349571Y-46251762D01*
X192254333Y-46156524D01*
X192206714Y-46061286D01*
X192159095Y-45870810D01*
X192159095Y-45727952D01*
X192206714Y-45537476D01*
X192254333Y-45442238D01*
X192349571Y-45347000D01*
X192492429Y-45299381D01*
X192587667Y-45299381D01*
X192730524Y-45347000D01*
X192778143Y-45394619D01*
X193730524Y-46299381D02*
X193159095Y-46299381D01*
X193444809Y-46299381D02*
X193444809Y-45299381D01*
X193349571Y-45442238D01*
X193254333Y-45537476D01*
X193159095Y-45585095D01*
X194349571Y-45299381D02*
X194444810Y-45299381D01*
X194540048Y-45347000D01*
X194587667Y-45394619D01*
X194635286Y-45489857D01*
X194682905Y-45680333D01*
X194682905Y-45918429D01*
X194635286Y-46108905D01*
X194587667Y-46204143D01*
X194540048Y-46251762D01*
X194444810Y-46299381D01*
X194349571Y-46299381D01*
X194254333Y-46251762D01*
X194206714Y-46204143D01*
X194159095Y-46108905D01*
X194111476Y-45918429D01*
X194111476Y-45680333D01*
X194159095Y-45489857D01*
X194206714Y-45394619D01*
X194254333Y-45347000D01*
X194349571Y-45299381D01*
D17*
X142276285Y-51852286D02*
X142203714Y-51924857D01*
X141986000Y-51997429D01*
X141840857Y-51997429D01*
X141623142Y-51924857D01*
X141478000Y-51779714D01*
X141405428Y-51634571D01*
X141332857Y-51344286D01*
X141332857Y-51126571D01*
X141405428Y-50836286D01*
X141478000Y-50691143D01*
X141623142Y-50546000D01*
X141840857Y-50473429D01*
X141986000Y-50473429D01*
X142203714Y-50546000D01*
X142276285Y-50618571D01*
X143727714Y-51997429D02*
X142856857Y-51997429D01*
X143292285Y-51997429D02*
X143292285Y-50473429D01*
X143147142Y-50691143D01*
X143002000Y-50836286D01*
X142856857Y-50908857D01*
X145179143Y-51997429D02*
X144308286Y-51997429D01*
X144743714Y-51997429D02*
X144743714Y-50473429D01*
X144598571Y-50691143D01*
X144453429Y-50836286D01*
X144308286Y-50908857D01*
D16*
X189476143Y-46204143D02*
X189428524Y-46251762D01*
X189285667Y-46299381D01*
X189190429Y-46299381D01*
X189047571Y-46251762D01*
X188952333Y-46156524D01*
X188904714Y-46061286D01*
X188857095Y-45870810D01*
X188857095Y-45727952D01*
X188904714Y-45537476D01*
X188952333Y-45442238D01*
X189047571Y-45347000D01*
X189190429Y-45299381D01*
X189285667Y-45299381D01*
X189428524Y-45347000D01*
X189476143Y-45394619D01*
X190428524Y-46299381D02*
X189857095Y-46299381D01*
X190142809Y-46299381D02*
X190142809Y-45299381D01*
X190047571Y-45442238D01*
X189952333Y-45537476D01*
X189857095Y-45585095D01*
X190809476Y-45394619D02*
X190857095Y-45347000D01*
X190952333Y-45299381D01*
X191190429Y-45299381D01*
X191285667Y-45347000D01*
X191333286Y-45394619D01*
X191380905Y-45489857D01*
X191380905Y-45585095D01*
X191333286Y-45727952D01*
X190761857Y-46299381D01*
X191380905Y-46299381D01*
X186428143Y-46204143D02*
X186380524Y-46251762D01*
X186237667Y-46299381D01*
X186142429Y-46299381D01*
X185999571Y-46251762D01*
X185904333Y-46156524D01*
X185856714Y-46061286D01*
X185809095Y-45870810D01*
X185809095Y-45727952D01*
X185856714Y-45537476D01*
X185904333Y-45442238D01*
X185999571Y-45347000D01*
X186142429Y-45299381D01*
X186237667Y-45299381D01*
X186380524Y-45347000D01*
X186428143Y-45394619D01*
X187380524Y-46299381D02*
X186809095Y-46299381D01*
X187094809Y-46299381D02*
X187094809Y-45299381D01*
X186999571Y-45442238D01*
X186904333Y-45537476D01*
X186809095Y-45585095D01*
X187713857Y-45299381D02*
X188332905Y-45299381D01*
X187999571Y-45680333D01*
X188142429Y-45680333D01*
X188237667Y-45727952D01*
X188285286Y-45775571D01*
X188332905Y-45870810D01*
X188332905Y-46108905D01*
X188285286Y-46204143D01*
X188237667Y-46251762D01*
X188142429Y-46299381D01*
X187856714Y-46299381D01*
X187761476Y-46251762D01*
X187713857Y-46204143D01*
X183126143Y-46204143D02*
X183078524Y-46251762D01*
X182935667Y-46299381D01*
X182840429Y-46299381D01*
X182697571Y-46251762D01*
X182602333Y-46156524D01*
X182554714Y-46061286D01*
X182507095Y-45870810D01*
X182507095Y-45727952D01*
X182554714Y-45537476D01*
X182602333Y-45442238D01*
X182697571Y-45347000D01*
X182840429Y-45299381D01*
X182935667Y-45299381D01*
X183078524Y-45347000D01*
X183126143Y-45394619D01*
X184078524Y-46299381D02*
X183507095Y-46299381D01*
X183792809Y-46299381D02*
X183792809Y-45299381D01*
X183697571Y-45442238D01*
X183602333Y-45537476D01*
X183507095Y-45585095D01*
X184935667Y-45632714D02*
X184935667Y-46299381D01*
X184697571Y-45251762D02*
X184459476Y-45966048D01*
X185078524Y-45966048D01*
X182407143Y-99702857D02*
X182454762Y-99750476D01*
X182502381Y-99893333D01*
X182502381Y-99988571D01*
X182454762Y-100131429D01*
X182359524Y-100226667D01*
X182264286Y-100274286D01*
X182073810Y-100321905D01*
X181930952Y-100321905D01*
X181740476Y-100274286D01*
X181645238Y-100226667D01*
X181550000Y-100131429D01*
X181502381Y-99988571D01*
X181502381Y-99893333D01*
X181550000Y-99750476D01*
X181597619Y-99702857D01*
X182502381Y-98750476D02*
X182502381Y-99321905D01*
X182502381Y-99036191D02*
X181502381Y-99036191D01*
X181645238Y-99131429D01*
X181740476Y-99226667D01*
X181788095Y-99321905D01*
X181502381Y-97845714D02*
X181502381Y-98321905D01*
X181978571Y-98369524D01*
X181930952Y-98321905D01*
X181883333Y-98226667D01*
X181883333Y-97988571D01*
X181930952Y-97893333D01*
X181978571Y-97845714D01*
X182073810Y-97798095D01*
X182311905Y-97798095D01*
X182407143Y-97845714D01*
X182454762Y-97893333D01*
X182502381Y-97988571D01*
X182502381Y-98226667D01*
X182454762Y-98321905D01*
X182407143Y-98369524D01*
X183507143Y-87479143D02*
X183459524Y-87526762D01*
X183316667Y-87574381D01*
X183221429Y-87574381D01*
X183078571Y-87526762D01*
X182983333Y-87431524D01*
X182935714Y-87336286D01*
X182888095Y-87145810D01*
X182888095Y-87002952D01*
X182935714Y-86812476D01*
X182983333Y-86717238D01*
X183078571Y-86622000D01*
X183221429Y-86574381D01*
X183316667Y-86574381D01*
X183459524Y-86622000D01*
X183507143Y-86669619D01*
X184459524Y-87574381D02*
X183888095Y-87574381D01*
X184173809Y-87574381D02*
X184173809Y-86574381D01*
X184078571Y-86717238D01*
X183983333Y-86812476D01*
X183888095Y-86860095D01*
X185316667Y-86574381D02*
X185126190Y-86574381D01*
X185030952Y-86622000D01*
X184983333Y-86669619D01*
X184888095Y-86812476D01*
X184840476Y-87002952D01*
X184840476Y-87383905D01*
X184888095Y-87479143D01*
X184935714Y-87526762D01*
X185030952Y-87574381D01*
X185221429Y-87574381D01*
X185316667Y-87526762D01*
X185364286Y-87479143D01*
X185411905Y-87383905D01*
X185411905Y-87145810D01*
X185364286Y-87050571D01*
X185316667Y-87002952D01*
X185221429Y-86955333D01*
X185030952Y-86955333D01*
X184935714Y-87002952D01*
X184888095Y-87050571D01*
X184840476Y-87145810D01*
X153027143Y-78589143D02*
X152979524Y-78636762D01*
X152836667Y-78684381D01*
X152741429Y-78684381D01*
X152598571Y-78636762D01*
X152503333Y-78541524D01*
X152455714Y-78446286D01*
X152408095Y-78255810D01*
X152408095Y-78112952D01*
X152455714Y-77922476D01*
X152503333Y-77827238D01*
X152598571Y-77732000D01*
X152741429Y-77684381D01*
X152836667Y-77684381D01*
X152979524Y-77732000D01*
X153027143Y-77779619D01*
X153979524Y-78684381D02*
X153408095Y-78684381D01*
X153693809Y-78684381D02*
X153693809Y-77684381D01*
X153598571Y-77827238D01*
X153503333Y-77922476D01*
X153408095Y-77970095D01*
X154312857Y-77684381D02*
X154979524Y-77684381D01*
X154550952Y-78684381D01*
D18*
X111106857Y-121647857D02*
X111058476Y-121696238D01*
X110913333Y-121744619D01*
X110816571Y-121744619D01*
X110671429Y-121696238D01*
X110574667Y-121599476D01*
X110526286Y-121502714D01*
X110477905Y-121309190D01*
X110477905Y-121164048D01*
X110526286Y-120970524D01*
X110574667Y-120873762D01*
X110671429Y-120777000D01*
X110816571Y-120728619D01*
X110913333Y-120728619D01*
X111058476Y-120777000D01*
X111106857Y-120825381D01*
X112074476Y-121744619D02*
X111493905Y-121744619D01*
X111784191Y-121744619D02*
X111784191Y-120728619D01*
X111687429Y-120873762D01*
X111590667Y-120970524D01*
X111493905Y-121018905D01*
X112655048Y-121164048D02*
X112558286Y-121115667D01*
X112509905Y-121067286D01*
X112461524Y-120970524D01*
X112461524Y-120922143D01*
X112509905Y-120825381D01*
X112558286Y-120777000D01*
X112655048Y-120728619D01*
X112848571Y-120728619D01*
X112945333Y-120777000D01*
X112993714Y-120825381D01*
X113042095Y-120922143D01*
X113042095Y-120970524D01*
X112993714Y-121067286D01*
X112945333Y-121115667D01*
X112848571Y-121164048D01*
X112655048Y-121164048D01*
X112558286Y-121212429D01*
X112509905Y-121260810D01*
X112461524Y-121357571D01*
X112461524Y-121551095D01*
X112509905Y-121647857D01*
X112558286Y-121696238D01*
X112655048Y-121744619D01*
X112848571Y-121744619D01*
X112945333Y-121696238D01*
X112993714Y-121647857D01*
X113042095Y-121551095D01*
X113042095Y-121357571D01*
X112993714Y-121260810D01*
X112945333Y-121212429D01*
X112848571Y-121164048D01*
X111106857Y-106407857D02*
X111058476Y-106456238D01*
X110913333Y-106504619D01*
X110816571Y-106504619D01*
X110671429Y-106456238D01*
X110574667Y-106359476D01*
X110526286Y-106262714D01*
X110477905Y-106069190D01*
X110477905Y-105924048D01*
X110526286Y-105730524D01*
X110574667Y-105633762D01*
X110671429Y-105537000D01*
X110816571Y-105488619D01*
X110913333Y-105488619D01*
X111058476Y-105537000D01*
X111106857Y-105585381D01*
X112074476Y-106504619D02*
X111493905Y-106504619D01*
X111784191Y-106504619D02*
X111784191Y-105488619D01*
X111687429Y-105633762D01*
X111590667Y-105730524D01*
X111493905Y-105778905D01*
X112558286Y-106504619D02*
X112751810Y-106504619D01*
X112848571Y-106456238D01*
X112896952Y-106407857D01*
X112993714Y-106262714D01*
X113042095Y-106069190D01*
X113042095Y-105682143D01*
X112993714Y-105585381D01*
X112945333Y-105537000D01*
X112848571Y-105488619D01*
X112655048Y-105488619D01*
X112558286Y-105537000D01*
X112509905Y-105585381D01*
X112461524Y-105682143D01*
X112461524Y-105924048D01*
X112509905Y-106020810D01*
X112558286Y-106069190D01*
X112655048Y-106117571D01*
X112848571Y-106117571D01*
X112945333Y-106069190D01*
X112993714Y-106020810D01*
X113042095Y-105924048D01*
X111106857Y-91167857D02*
X111058476Y-91216238D01*
X110913333Y-91264619D01*
X110816571Y-91264619D01*
X110671429Y-91216238D01*
X110574667Y-91119476D01*
X110526286Y-91022714D01*
X110477905Y-90829190D01*
X110477905Y-90684048D01*
X110526286Y-90490524D01*
X110574667Y-90393762D01*
X110671429Y-90297000D01*
X110816571Y-90248619D01*
X110913333Y-90248619D01*
X111058476Y-90297000D01*
X111106857Y-90345381D01*
X111493905Y-90345381D02*
X111542286Y-90297000D01*
X111639048Y-90248619D01*
X111880952Y-90248619D01*
X111977714Y-90297000D01*
X112026095Y-90345381D01*
X112074476Y-90442143D01*
X112074476Y-90538905D01*
X112026095Y-90684048D01*
X111445524Y-91264619D01*
X112074476Y-91264619D01*
X112703429Y-90248619D02*
X112800190Y-90248619D01*
X112896952Y-90297000D01*
X112945333Y-90345381D01*
X112993714Y-90442143D01*
X113042095Y-90635667D01*
X113042095Y-90877571D01*
X112993714Y-91071095D01*
X112945333Y-91167857D01*
X112896952Y-91216238D01*
X112800190Y-91264619D01*
X112703429Y-91264619D01*
X112606667Y-91216238D01*
X112558286Y-91167857D01*
X112509905Y-91071095D01*
X112461524Y-90877571D01*
X112461524Y-90635667D01*
X112509905Y-90442143D01*
X112558286Y-90345381D01*
X112606667Y-90297000D01*
X112703429Y-90248619D01*
X124060857Y-69196857D02*
X124012476Y-69245238D01*
X123867333Y-69293619D01*
X123770571Y-69293619D01*
X123625429Y-69245238D01*
X123528667Y-69148476D01*
X123480286Y-69051714D01*
X123431905Y-68858190D01*
X123431905Y-68713048D01*
X123480286Y-68519524D01*
X123528667Y-68422762D01*
X123625429Y-68326000D01*
X123770571Y-68277619D01*
X123867333Y-68277619D01*
X124012476Y-68326000D01*
X124060857Y-68374381D01*
X124447905Y-68374381D02*
X124496286Y-68326000D01*
X124593048Y-68277619D01*
X124834952Y-68277619D01*
X124931714Y-68326000D01*
X124980095Y-68374381D01*
X125028476Y-68471143D01*
X125028476Y-68567905D01*
X124980095Y-68713048D01*
X124399524Y-69293619D01*
X125028476Y-69293619D01*
X125996095Y-69293619D02*
X125415524Y-69293619D01*
X125705810Y-69293619D02*
X125705810Y-68277619D01*
X125609048Y-68422762D01*
X125512286Y-68519524D01*
X125415524Y-68567905D01*
X111106857Y-114027857D02*
X111058476Y-114076238D01*
X110913333Y-114124619D01*
X110816571Y-114124619D01*
X110671429Y-114076238D01*
X110574667Y-113979476D01*
X110526286Y-113882714D01*
X110477905Y-113689190D01*
X110477905Y-113544048D01*
X110526286Y-113350524D01*
X110574667Y-113253762D01*
X110671429Y-113157000D01*
X110816571Y-113108619D01*
X110913333Y-113108619D01*
X111058476Y-113157000D01*
X111106857Y-113205381D01*
X111493905Y-113205381D02*
X111542286Y-113157000D01*
X111639048Y-113108619D01*
X111880952Y-113108619D01*
X111977714Y-113157000D01*
X112026095Y-113205381D01*
X112074476Y-113302143D01*
X112074476Y-113398905D01*
X112026095Y-113544048D01*
X111445524Y-114124619D01*
X112074476Y-114124619D01*
X112461524Y-113205381D02*
X112509905Y-113157000D01*
X112606667Y-113108619D01*
X112848571Y-113108619D01*
X112945333Y-113157000D01*
X112993714Y-113205381D01*
X113042095Y-113302143D01*
X113042095Y-113398905D01*
X112993714Y-113544048D01*
X112413143Y-114124619D01*
X113042095Y-114124619D01*
X111106857Y-98787857D02*
X111058476Y-98836238D01*
X110913333Y-98884619D01*
X110816571Y-98884619D01*
X110671429Y-98836238D01*
X110574667Y-98739476D01*
X110526286Y-98642714D01*
X110477905Y-98449190D01*
X110477905Y-98304048D01*
X110526286Y-98110524D01*
X110574667Y-98013762D01*
X110671429Y-97917000D01*
X110816571Y-97868619D01*
X110913333Y-97868619D01*
X111058476Y-97917000D01*
X111106857Y-97965381D01*
X111493905Y-97965381D02*
X111542286Y-97917000D01*
X111639048Y-97868619D01*
X111880952Y-97868619D01*
X111977714Y-97917000D01*
X112026095Y-97965381D01*
X112074476Y-98062143D01*
X112074476Y-98158905D01*
X112026095Y-98304048D01*
X111445524Y-98884619D01*
X112074476Y-98884619D01*
X112413143Y-97868619D02*
X113042095Y-97868619D01*
X112703429Y-98255667D01*
X112848571Y-98255667D01*
X112945333Y-98304048D01*
X112993714Y-98352429D01*
X113042095Y-98449190D01*
X113042095Y-98691095D01*
X112993714Y-98787857D01*
X112945333Y-98836238D01*
X112848571Y-98884619D01*
X112558286Y-98884619D01*
X112461524Y-98836238D01*
X112413143Y-98787857D01*
X111106857Y-83547857D02*
X111058476Y-83596238D01*
X110913333Y-83644619D01*
X110816571Y-83644619D01*
X110671429Y-83596238D01*
X110574667Y-83499476D01*
X110526286Y-83402714D01*
X110477905Y-83209190D01*
X110477905Y-83064048D01*
X110526286Y-82870524D01*
X110574667Y-82773762D01*
X110671429Y-82677000D01*
X110816571Y-82628619D01*
X110913333Y-82628619D01*
X111058476Y-82677000D01*
X111106857Y-82725381D01*
X111493905Y-82725381D02*
X111542286Y-82677000D01*
X111639048Y-82628619D01*
X111880952Y-82628619D01*
X111977714Y-82677000D01*
X112026095Y-82725381D01*
X112074476Y-82822143D01*
X112074476Y-82918905D01*
X112026095Y-83064048D01*
X111445524Y-83644619D01*
X112074476Y-83644619D01*
X112945333Y-82967286D02*
X112945333Y-83644619D01*
X112703429Y-82580238D02*
X112461524Y-83305952D01*
X113090476Y-83305952D01*
X125330857Y-78340857D02*
X125282476Y-78389238D01*
X125137333Y-78437619D01*
X125040571Y-78437619D01*
X124895429Y-78389238D01*
X124798667Y-78292476D01*
X124750286Y-78195714D01*
X124701905Y-78002190D01*
X124701905Y-77857048D01*
X124750286Y-77663524D01*
X124798667Y-77566762D01*
X124895429Y-77470000D01*
X125040571Y-77421619D01*
X125137333Y-77421619D01*
X125282476Y-77470000D01*
X125330857Y-77518381D01*
X125717905Y-77518381D02*
X125766286Y-77470000D01*
X125863048Y-77421619D01*
X126104952Y-77421619D01*
X126201714Y-77470000D01*
X126250095Y-77518381D01*
X126298476Y-77615143D01*
X126298476Y-77711905D01*
X126250095Y-77857048D01*
X125669524Y-78437619D01*
X126298476Y-78437619D01*
X127217714Y-77421619D02*
X126733905Y-77421619D01*
X126685524Y-77905429D01*
X126733905Y-77857048D01*
X126830667Y-77808667D01*
X127072571Y-77808667D01*
X127169333Y-77857048D01*
X127217714Y-77905429D01*
X127266095Y-78002190D01*
X127266095Y-78244095D01*
X127217714Y-78340857D01*
X127169333Y-78389238D01*
X127072571Y-78437619D01*
X126830667Y-78437619D01*
X126733905Y-78389238D01*
X126685524Y-78340857D01*
X99422857Y-122028857D02*
X99374476Y-122077238D01*
X99229333Y-122125619D01*
X99132571Y-122125619D01*
X98987429Y-122077238D01*
X98890667Y-121980476D01*
X98842286Y-121883714D01*
X98793905Y-121690190D01*
X98793905Y-121545048D01*
X98842286Y-121351524D01*
X98890667Y-121254762D01*
X98987429Y-121158000D01*
X99132571Y-121109619D01*
X99229333Y-121109619D01*
X99374476Y-121158000D01*
X99422857Y-121206381D01*
X99809905Y-121206381D02*
X99858286Y-121158000D01*
X99955048Y-121109619D01*
X100196952Y-121109619D01*
X100293714Y-121158000D01*
X100342095Y-121206381D01*
X100390476Y-121303143D01*
X100390476Y-121399905D01*
X100342095Y-121545048D01*
X99761524Y-122125619D01*
X100390476Y-122125619D01*
X101261333Y-121109619D02*
X101067810Y-121109619D01*
X100971048Y-121158000D01*
X100922667Y-121206381D01*
X100825905Y-121351524D01*
X100777524Y-121545048D01*
X100777524Y-121932095D01*
X100825905Y-122028857D01*
X100874286Y-122077238D01*
X100971048Y-122125619D01*
X101164571Y-122125619D01*
X101261333Y-122077238D01*
X101309714Y-122028857D01*
X101358095Y-121932095D01*
X101358095Y-121690190D01*
X101309714Y-121593429D01*
X101261333Y-121545048D01*
X101164571Y-121496667D01*
X100971048Y-121496667D01*
X100874286Y-121545048D01*
X100825905Y-121593429D01*
X100777524Y-121690190D01*
X99422857Y-106788857D02*
X99374476Y-106837238D01*
X99229333Y-106885619D01*
X99132571Y-106885619D01*
X98987429Y-106837238D01*
X98890667Y-106740476D01*
X98842286Y-106643714D01*
X98793905Y-106450190D01*
X98793905Y-106305048D01*
X98842286Y-106111524D01*
X98890667Y-106014762D01*
X98987429Y-105918000D01*
X99132571Y-105869619D01*
X99229333Y-105869619D01*
X99374476Y-105918000D01*
X99422857Y-105966381D01*
X99809905Y-105966381D02*
X99858286Y-105918000D01*
X99955048Y-105869619D01*
X100196952Y-105869619D01*
X100293714Y-105918000D01*
X100342095Y-105966381D01*
X100390476Y-106063143D01*
X100390476Y-106159905D01*
X100342095Y-106305048D01*
X99761524Y-106885619D01*
X100390476Y-106885619D01*
X100729143Y-105869619D02*
X101406476Y-105869619D01*
X100971048Y-106885619D01*
X99422857Y-91548857D02*
X99374476Y-91597238D01*
X99229333Y-91645619D01*
X99132571Y-91645619D01*
X98987429Y-91597238D01*
X98890667Y-91500476D01*
X98842286Y-91403714D01*
X98793905Y-91210190D01*
X98793905Y-91065048D01*
X98842286Y-90871524D01*
X98890667Y-90774762D01*
X98987429Y-90678000D01*
X99132571Y-90629619D01*
X99229333Y-90629619D01*
X99374476Y-90678000D01*
X99422857Y-90726381D01*
X99809905Y-90726381D02*
X99858286Y-90678000D01*
X99955048Y-90629619D01*
X100196952Y-90629619D01*
X100293714Y-90678000D01*
X100342095Y-90726381D01*
X100390476Y-90823143D01*
X100390476Y-90919905D01*
X100342095Y-91065048D01*
X99761524Y-91645619D01*
X100390476Y-91645619D01*
X100971048Y-91065048D02*
X100874286Y-91016667D01*
X100825905Y-90968286D01*
X100777524Y-90871524D01*
X100777524Y-90823143D01*
X100825905Y-90726381D01*
X100874286Y-90678000D01*
X100971048Y-90629619D01*
X101164571Y-90629619D01*
X101261333Y-90678000D01*
X101309714Y-90726381D01*
X101358095Y-90823143D01*
X101358095Y-90871524D01*
X101309714Y-90968286D01*
X101261333Y-91016667D01*
X101164571Y-91065048D01*
X100971048Y-91065048D01*
X100874286Y-91113429D01*
X100825905Y-91161810D01*
X100777524Y-91258571D01*
X100777524Y-91452095D01*
X100825905Y-91548857D01*
X100874286Y-91597238D01*
X100971048Y-91645619D01*
X101164571Y-91645619D01*
X101261333Y-91597238D01*
X101309714Y-91548857D01*
X101358095Y-91452095D01*
X101358095Y-91258571D01*
X101309714Y-91161810D01*
X101261333Y-91113429D01*
X101164571Y-91065048D01*
X122536857Y-78467857D02*
X122488476Y-78516238D01*
X122343333Y-78564619D01*
X122246571Y-78564619D01*
X122101429Y-78516238D01*
X122004667Y-78419476D01*
X121956286Y-78322714D01*
X121907905Y-78129190D01*
X121907905Y-77984048D01*
X121956286Y-77790524D01*
X122004667Y-77693762D01*
X122101429Y-77597000D01*
X122246571Y-77548619D01*
X122343333Y-77548619D01*
X122488476Y-77597000D01*
X122536857Y-77645381D01*
X122923905Y-77645381D02*
X122972286Y-77597000D01*
X123069048Y-77548619D01*
X123310952Y-77548619D01*
X123407714Y-77597000D01*
X123456095Y-77645381D01*
X123504476Y-77742143D01*
X123504476Y-77838905D01*
X123456095Y-77984048D01*
X122875524Y-78564619D01*
X123504476Y-78564619D01*
X123988286Y-78564619D02*
X124181810Y-78564619D01*
X124278571Y-78516238D01*
X124326952Y-78467857D01*
X124423714Y-78322714D01*
X124472095Y-78129190D01*
X124472095Y-77742143D01*
X124423714Y-77645381D01*
X124375333Y-77597000D01*
X124278571Y-77548619D01*
X124085048Y-77548619D01*
X123988286Y-77597000D01*
X123939905Y-77645381D01*
X123891524Y-77742143D01*
X123891524Y-77984048D01*
X123939905Y-78080810D01*
X123988286Y-78129190D01*
X124085048Y-78177571D01*
X124278571Y-78177571D01*
X124375333Y-78129190D01*
X124423714Y-78080810D01*
X124472095Y-77984048D01*
D16*
X116451143Y-50903143D02*
X116403524Y-50950762D01*
X116260667Y-50998381D01*
X116165429Y-50998381D01*
X116022571Y-50950762D01*
X115927333Y-50855524D01*
X115879714Y-50760286D01*
X115832095Y-50569810D01*
X115832095Y-50426952D01*
X115879714Y-50236476D01*
X115927333Y-50141238D01*
X116022571Y-50046000D01*
X116165429Y-49998381D01*
X116260667Y-49998381D01*
X116403524Y-50046000D01*
X116451143Y-50093619D01*
X116784476Y-49998381D02*
X117403524Y-49998381D01*
X117070190Y-50379333D01*
X117213048Y-50379333D01*
X117308286Y-50426952D01*
X117355905Y-50474571D01*
X117403524Y-50569810D01*
X117403524Y-50807905D01*
X117355905Y-50903143D01*
X117308286Y-50950762D01*
X117213048Y-50998381D01*
X116927333Y-50998381D01*
X116832095Y-50950762D01*
X116784476Y-50903143D01*
X117736857Y-49998381D02*
X118355905Y-49998381D01*
X118022571Y-50379333D01*
X118165429Y-50379333D01*
X118260667Y-50426952D01*
X118308286Y-50474571D01*
X118355905Y-50569810D01*
X118355905Y-50807905D01*
X118308286Y-50903143D01*
X118260667Y-50950762D01*
X118165429Y-50998381D01*
X117879714Y-50998381D01*
X117784476Y-50950762D01*
X117736857Y-50903143D01*
X113911143Y-45061143D02*
X113863524Y-45108762D01*
X113720667Y-45156381D01*
X113625429Y-45156381D01*
X113482571Y-45108762D01*
X113387333Y-45013524D01*
X113339714Y-44918286D01*
X113292095Y-44727810D01*
X113292095Y-44584952D01*
X113339714Y-44394476D01*
X113387333Y-44299238D01*
X113482571Y-44204000D01*
X113625429Y-44156381D01*
X113720667Y-44156381D01*
X113863524Y-44204000D01*
X113911143Y-44251619D01*
X114244476Y-44156381D02*
X114863524Y-44156381D01*
X114530190Y-44537333D01*
X114673048Y-44537333D01*
X114768286Y-44584952D01*
X114815905Y-44632571D01*
X114863524Y-44727810D01*
X114863524Y-44965905D01*
X114815905Y-45061143D01*
X114768286Y-45108762D01*
X114673048Y-45156381D01*
X114387333Y-45156381D01*
X114292095Y-45108762D01*
X114244476Y-45061143D01*
X115720667Y-44489714D02*
X115720667Y-45156381D01*
X115482571Y-44108762D02*
X115244476Y-44823048D01*
X115863524Y-44823048D01*
X212463143Y-129897143D02*
X212415524Y-129944762D01*
X212272667Y-129992381D01*
X212177429Y-129992381D01*
X212034571Y-129944762D01*
X211939333Y-129849524D01*
X211891714Y-129754286D01*
X211844095Y-129563810D01*
X211844095Y-129420952D01*
X211891714Y-129230476D01*
X211939333Y-129135238D01*
X212034571Y-129040000D01*
X212177429Y-128992381D01*
X212272667Y-128992381D01*
X212415524Y-129040000D01*
X212463143Y-129087619D01*
X212796476Y-128992381D02*
X213415524Y-128992381D01*
X213082190Y-129373333D01*
X213225048Y-129373333D01*
X213320286Y-129420952D01*
X213367905Y-129468571D01*
X213415524Y-129563810D01*
X213415524Y-129801905D01*
X213367905Y-129897143D01*
X213320286Y-129944762D01*
X213225048Y-129992381D01*
X212939333Y-129992381D01*
X212844095Y-129944762D01*
X212796476Y-129897143D01*
X214320286Y-128992381D02*
X213844095Y-128992381D01*
X213796476Y-129468571D01*
X213844095Y-129420952D01*
X213939333Y-129373333D01*
X214177429Y-129373333D01*
X214272667Y-129420952D01*
X214320286Y-129468571D01*
X214367905Y-129563810D01*
X214367905Y-129801905D01*
X214320286Y-129897143D01*
X214272667Y-129944762D01*
X214177429Y-129992381D01*
X213939333Y-129992381D01*
X213844095Y-129944762D01*
X213796476Y-129897143D01*
X198747143Y-129897143D02*
X198699524Y-129944762D01*
X198556667Y-129992381D01*
X198461429Y-129992381D01*
X198318571Y-129944762D01*
X198223333Y-129849524D01*
X198175714Y-129754286D01*
X198128095Y-129563810D01*
X198128095Y-129420952D01*
X198175714Y-129230476D01*
X198223333Y-129135238D01*
X198318571Y-129040000D01*
X198461429Y-128992381D01*
X198556667Y-128992381D01*
X198699524Y-129040000D01*
X198747143Y-129087619D01*
X199080476Y-128992381D02*
X199699524Y-128992381D01*
X199366190Y-129373333D01*
X199509048Y-129373333D01*
X199604286Y-129420952D01*
X199651905Y-129468571D01*
X199699524Y-129563810D01*
X199699524Y-129801905D01*
X199651905Y-129897143D01*
X199604286Y-129944762D01*
X199509048Y-129992381D01*
X199223333Y-129992381D01*
X199128095Y-129944762D01*
X199080476Y-129897143D01*
X200556667Y-128992381D02*
X200366190Y-128992381D01*
X200270952Y-129040000D01*
X200223333Y-129087619D01*
X200128095Y-129230476D01*
X200080476Y-129420952D01*
X200080476Y-129801905D01*
X200128095Y-129897143D01*
X200175714Y-129944762D01*
X200270952Y-129992381D01*
X200461429Y-129992381D01*
X200556667Y-129944762D01*
X200604286Y-129897143D01*
X200651905Y-129801905D01*
X200651905Y-129563810D01*
X200604286Y-129468571D01*
X200556667Y-129420952D01*
X200461429Y-129373333D01*
X200270952Y-129373333D01*
X200175714Y-129420952D01*
X200128095Y-129468571D01*
X200080476Y-129563810D01*
D19*
X216662001Y-65341500D02*
X216408001Y-65341500D01*
X216408001Y-65807167D02*
X216408001Y-64918167D01*
X216770858Y-64918167D01*
X217460286Y-65807167D02*
X217024858Y-65807167D01*
X217242572Y-65807167D02*
X217242572Y-64918167D01*
X217170001Y-65045167D01*
X217097429Y-65129833D01*
X217024858Y-65172167D01*
D16*
X222158858Y-80180571D02*
X222158858Y-78680571D01*
X222730286Y-78680571D01*
X222873144Y-78752000D01*
X222944572Y-78823429D01*
X223016001Y-78966286D01*
X223016001Y-79180571D01*
X222944572Y-79323429D01*
X222873144Y-79394857D01*
X222730286Y-79466286D01*
X222158858Y-79466286D01*
X223587429Y-78823429D02*
X223658858Y-78752000D01*
X223801715Y-78680571D01*
X224158858Y-78680571D01*
X224301715Y-78752000D01*
X224373144Y-78823429D01*
X224444572Y-78966286D01*
X224444572Y-79109143D01*
X224373144Y-79323429D01*
X223516001Y-80180571D01*
X224444572Y-80180571D01*
X225096000Y-52240571D02*
X225096000Y-50740571D01*
X225667428Y-50740571D01*
X225810286Y-50812000D01*
X225881714Y-50883429D01*
X225953143Y-51026286D01*
X225953143Y-51240571D01*
X225881714Y-51383429D01*
X225810286Y-51454857D01*
X225667428Y-51526286D01*
X225096000Y-51526286D01*
X226381714Y-50740571D02*
X227238857Y-50740571D01*
X226810286Y-52240571D02*
X226810286Y-50740571D01*
X227524571Y-50740571D02*
X228381714Y-50740571D01*
X227953143Y-52240571D02*
X227953143Y-50740571D01*
X228524571Y-52383429D02*
X229667428Y-52383429D01*
X230024571Y-52240571D02*
X230024571Y-50740571D01*
X230738857Y-52240571D02*
X230738857Y-50740571D01*
X231596000Y-52240571D01*
X231596000Y-50740571D01*
X210653334Y-84018381D02*
X210320000Y-83542190D01*
X210081905Y-84018381D02*
X210081905Y-83018381D01*
X210462858Y-83018381D01*
X210558096Y-83066000D01*
X210605715Y-83113619D01*
X210653334Y-83208857D01*
X210653334Y-83351714D01*
X210605715Y-83446952D01*
X210558096Y-83494571D01*
X210462858Y-83542190D01*
X210081905Y-83542190D01*
X211605715Y-84018381D02*
X211034286Y-84018381D01*
X211320000Y-84018381D02*
X211320000Y-83018381D01*
X211224762Y-83161238D01*
X211129524Y-83256476D01*
X211034286Y-83304095D01*
X206589334Y-80970381D02*
X206256000Y-80494190D01*
X206017905Y-80970381D02*
X206017905Y-79970381D01*
X206398858Y-79970381D01*
X206494096Y-80018000D01*
X206541715Y-80065619D01*
X206589334Y-80160857D01*
X206589334Y-80303714D01*
X206541715Y-80398952D01*
X206494096Y-80446571D01*
X206398858Y-80494190D01*
X206017905Y-80494190D01*
X206970286Y-80065619D02*
X207017905Y-80018000D01*
X207113143Y-79970381D01*
X207351239Y-79970381D01*
X207446477Y-80018000D01*
X207494096Y-80065619D01*
X207541715Y-80160857D01*
X207541715Y-80256095D01*
X207494096Y-80398952D01*
X206922667Y-80970381D01*
X207541715Y-80970381D01*
X190841334Y-79954381D02*
X190508000Y-79478190D01*
X190269905Y-79954381D02*
X190269905Y-78954381D01*
X190650858Y-78954381D01*
X190746096Y-79002000D01*
X190793715Y-79049619D01*
X190841334Y-79144857D01*
X190841334Y-79287714D01*
X190793715Y-79382952D01*
X190746096Y-79430571D01*
X190650858Y-79478190D01*
X190269905Y-79478190D01*
X191174667Y-78954381D02*
X191793715Y-78954381D01*
X191460381Y-79335333D01*
X191603239Y-79335333D01*
X191698477Y-79382952D01*
X191746096Y-79430571D01*
X191793715Y-79525810D01*
X191793715Y-79763905D01*
X191746096Y-79859143D01*
X191698477Y-79906762D01*
X191603239Y-79954381D01*
X191317524Y-79954381D01*
X191222286Y-79906762D01*
X191174667Y-79859143D01*
X191095334Y-83002381D02*
X190762000Y-82526190D01*
X190523905Y-83002381D02*
X190523905Y-82002381D01*
X190904858Y-82002381D01*
X191000096Y-82050000D01*
X191047715Y-82097619D01*
X191095334Y-82192857D01*
X191095334Y-82335714D01*
X191047715Y-82430952D01*
X191000096Y-82478571D01*
X190904858Y-82526190D01*
X190523905Y-82526190D01*
X191952477Y-82335714D02*
X191952477Y-83002381D01*
X191714381Y-81954762D02*
X191476286Y-82669048D01*
X192095334Y-82669048D01*
D18*
X212894333Y-97151976D02*
X212471000Y-96486738D01*
X212168619Y-97151976D02*
X212168619Y-95754976D01*
X212652428Y-95754976D01*
X212773381Y-95821500D01*
X212833857Y-95888024D01*
X212894333Y-96021071D01*
X212894333Y-96220643D01*
X212833857Y-96353690D01*
X212773381Y-96420214D01*
X212652428Y-96486738D01*
X212168619Y-96486738D01*
X214043381Y-95754976D02*
X213438619Y-95754976D01*
X213378143Y-96420214D01*
X213438619Y-96353690D01*
X213559571Y-96287167D01*
X213861952Y-96287167D01*
X213982905Y-96353690D01*
X214043381Y-96420214D01*
X214103857Y-96553262D01*
X214103857Y-96885881D01*
X214043381Y-97018929D01*
X213982905Y-97085452D01*
X213861952Y-97151976D01*
X213559571Y-97151976D01*
X213438619Y-97085452D01*
X213378143Y-97018929D01*
X201972333Y-99691976D02*
X201549000Y-99026738D01*
X201246619Y-99691976D02*
X201246619Y-98294976D01*
X201730428Y-98294976D01*
X201851381Y-98361500D01*
X201911857Y-98428024D01*
X201972333Y-98561071D01*
X201972333Y-98760643D01*
X201911857Y-98893690D01*
X201851381Y-98960214D01*
X201730428Y-99026738D01*
X201246619Y-99026738D01*
X203060905Y-98294976D02*
X202819000Y-98294976D01*
X202698048Y-98361500D01*
X202637571Y-98428024D01*
X202516619Y-98627595D01*
X202456143Y-98893690D01*
X202456143Y-99425881D01*
X202516619Y-99558929D01*
X202577095Y-99625452D01*
X202698048Y-99691976D01*
X202939952Y-99691976D01*
X203060905Y-99625452D01*
X203121381Y-99558929D01*
X203181857Y-99425881D01*
X203181857Y-99093262D01*
X203121381Y-98960214D01*
X203060905Y-98893690D01*
X202939952Y-98827167D01*
X202698048Y-98827167D01*
X202577095Y-98893690D01*
X202516619Y-98960214D01*
X202456143Y-99093262D01*
D16*
X181443334Y-126436381D02*
X181110000Y-125960190D01*
X180871905Y-126436381D02*
X180871905Y-125436381D01*
X181252858Y-125436381D01*
X181348096Y-125484000D01*
X181395715Y-125531619D01*
X181443334Y-125626857D01*
X181443334Y-125769714D01*
X181395715Y-125864952D01*
X181348096Y-125912571D01*
X181252858Y-125960190D01*
X180871905Y-125960190D01*
X181776667Y-125436381D02*
X182443334Y-125436381D01*
X182014762Y-126436381D01*
D18*
X201718333Y-88515976D02*
X201295000Y-87850738D01*
X200992619Y-88515976D02*
X200992619Y-87118976D01*
X201476428Y-87118976D01*
X201597381Y-87185500D01*
X201657857Y-87252024D01*
X201718333Y-87385071D01*
X201718333Y-87584643D01*
X201657857Y-87717690D01*
X201597381Y-87784214D01*
X201476428Y-87850738D01*
X200992619Y-87850738D01*
X202444048Y-87717690D02*
X202323095Y-87651167D01*
X202262619Y-87584643D01*
X202202143Y-87451595D01*
X202202143Y-87385071D01*
X202262619Y-87252024D01*
X202323095Y-87185500D01*
X202444048Y-87118976D01*
X202685952Y-87118976D01*
X202806905Y-87185500D01*
X202867381Y-87252024D01*
X202927857Y-87385071D01*
X202927857Y-87451595D01*
X202867381Y-87584643D01*
X202806905Y-87651167D01*
X202685952Y-87717690D01*
X202444048Y-87717690D01*
X202323095Y-87784214D01*
X202262619Y-87850738D01*
X202202143Y-87983786D01*
X202202143Y-88249881D01*
X202262619Y-88382929D01*
X202323095Y-88449452D01*
X202444048Y-88515976D01*
X202685952Y-88515976D01*
X202806905Y-88449452D01*
X202867381Y-88382929D01*
X202927857Y-88249881D01*
X202927857Y-87983786D01*
X202867381Y-87850738D01*
X202806905Y-87784214D01*
X202685952Y-87717690D01*
D16*
X178141334Y-104846381D02*
X177808000Y-104370190D01*
X177569905Y-104846381D02*
X177569905Y-103846381D01*
X177950858Y-103846381D01*
X178046096Y-103894000D01*
X178093715Y-103941619D01*
X178141334Y-104036857D01*
X178141334Y-104179714D01*
X178093715Y-104274952D01*
X178046096Y-104322571D01*
X177950858Y-104370190D01*
X177569905Y-104370190D01*
X178617524Y-104846381D02*
X178808000Y-104846381D01*
X178903239Y-104798762D01*
X178950858Y-104751143D01*
X179046096Y-104608286D01*
X179093715Y-104417810D01*
X179093715Y-104036857D01*
X179046096Y-103941619D01*
X178998477Y-103894000D01*
X178903239Y-103846381D01*
X178712762Y-103846381D01*
X178617524Y-103894000D01*
X178569905Y-103941619D01*
X178522286Y-104036857D01*
X178522286Y-104274952D01*
X178569905Y-104370190D01*
X178617524Y-104417810D01*
X178712762Y-104465429D01*
X178903239Y-104465429D01*
X178998477Y-104417810D01*
X179046096Y-104370190D01*
X179093715Y-104274952D01*
X188587143Y-126436381D02*
X188253809Y-125960190D01*
X188015714Y-126436381D02*
X188015714Y-125436381D01*
X188396667Y-125436381D01*
X188491905Y-125484000D01*
X188539524Y-125531619D01*
X188587143Y-125626857D01*
X188587143Y-125769714D01*
X188539524Y-125864952D01*
X188491905Y-125912571D01*
X188396667Y-125960190D01*
X188015714Y-125960190D01*
X189539524Y-126436381D02*
X188968095Y-126436381D01*
X189253809Y-126436381D02*
X189253809Y-125436381D01*
X189158571Y-125579238D01*
X189063333Y-125674476D01*
X188968095Y-125722095D01*
X190158571Y-125436381D02*
X190253810Y-125436381D01*
X190349048Y-125484000D01*
X190396667Y-125531619D01*
X190444286Y-125626857D01*
X190491905Y-125817333D01*
X190491905Y-126055429D01*
X190444286Y-126245905D01*
X190396667Y-126341143D01*
X190349048Y-126388762D01*
X190253810Y-126436381D01*
X190158571Y-126436381D01*
X190063333Y-126388762D01*
X190015714Y-126341143D01*
X189968095Y-126245905D01*
X189920476Y-126055429D01*
X189920476Y-125817333D01*
X189968095Y-125626857D01*
X190015714Y-125531619D01*
X190063333Y-125484000D01*
X190158571Y-125436381D01*
D18*
X188413571Y-106803976D02*
X187990238Y-106138738D01*
X187687857Y-106803976D02*
X187687857Y-105406976D01*
X188171666Y-105406976D01*
X188292619Y-105473500D01*
X188353095Y-105540024D01*
X188413571Y-105673071D01*
X188413571Y-105872643D01*
X188353095Y-106005690D01*
X188292619Y-106072214D01*
X188171666Y-106138738D01*
X187687857Y-106138738D01*
X189623095Y-106803976D02*
X188897381Y-106803976D01*
X189260238Y-106803976D02*
X189260238Y-105406976D01*
X189139286Y-105606548D01*
X189018333Y-105739595D01*
X188897381Y-105806119D01*
X190832619Y-106803976D02*
X190106905Y-106803976D01*
X190469762Y-106803976D02*
X190469762Y-105406976D01*
X190348810Y-105606548D01*
X190227857Y-105739595D01*
X190106905Y-105806119D01*
X188413571Y-84705976D02*
X187990238Y-84040738D01*
X187687857Y-84705976D02*
X187687857Y-83308976D01*
X188171666Y-83308976D01*
X188292619Y-83375500D01*
X188353095Y-83442024D01*
X188413571Y-83575071D01*
X188413571Y-83774643D01*
X188353095Y-83907690D01*
X188292619Y-83974214D01*
X188171666Y-84040738D01*
X187687857Y-84040738D01*
X189623095Y-84705976D02*
X188897381Y-84705976D01*
X189260238Y-84705976D02*
X189260238Y-83308976D01*
X189139286Y-83508548D01*
X189018333Y-83641595D01*
X188897381Y-83708119D01*
X190106905Y-83442024D02*
X190167381Y-83375500D01*
X190288333Y-83308976D01*
X190590714Y-83308976D01*
X190711667Y-83375500D01*
X190772143Y-83442024D01*
X190832619Y-83575071D01*
X190832619Y-83708119D01*
X190772143Y-83907690D01*
X190046429Y-84705976D01*
X190832619Y-84705976D01*
D16*
X177476381Y-98178857D02*
X177000190Y-98512191D01*
X177476381Y-98750286D02*
X176476381Y-98750286D01*
X176476381Y-98369333D01*
X176524000Y-98274095D01*
X176571619Y-98226476D01*
X176666857Y-98178857D01*
X176809714Y-98178857D01*
X176904952Y-98226476D01*
X176952571Y-98274095D01*
X177000190Y-98369333D01*
X177000190Y-98750286D01*
X177476381Y-97226476D02*
X177476381Y-97797905D01*
X177476381Y-97512191D02*
X176476381Y-97512191D01*
X176619238Y-97607429D01*
X176714476Y-97702667D01*
X176762095Y-97797905D01*
X176476381Y-96893143D02*
X176476381Y-96274095D01*
X176857333Y-96607429D01*
X176857333Y-96464571D01*
X176904952Y-96369333D01*
X176952571Y-96321714D01*
X177047810Y-96274095D01*
X177285905Y-96274095D01*
X177381143Y-96321714D01*
X177428762Y-96369333D01*
X177476381Y-96464571D01*
X177476381Y-96750286D01*
X177428762Y-96845524D01*
X177381143Y-96893143D01*
D18*
X193493571Y-106803976D02*
X193070238Y-106138738D01*
X192767857Y-106803976D02*
X192767857Y-105406976D01*
X193251666Y-105406976D01*
X193372619Y-105473500D01*
X193433095Y-105540024D01*
X193493571Y-105673071D01*
X193493571Y-105872643D01*
X193433095Y-106005690D01*
X193372619Y-106072214D01*
X193251666Y-106138738D01*
X192767857Y-106138738D01*
X194703095Y-106803976D02*
X193977381Y-106803976D01*
X194340238Y-106803976D02*
X194340238Y-105406976D01*
X194219286Y-105606548D01*
X194098333Y-105739595D01*
X193977381Y-105806119D01*
X195791667Y-105872643D02*
X195791667Y-106803976D01*
X195489286Y-105340452D02*
X195186905Y-106338310D01*
X195973095Y-106338310D01*
X196795571Y-86991976D02*
X196372238Y-86326738D01*
X196069857Y-86991976D02*
X196069857Y-85594976D01*
X196553666Y-85594976D01*
X196674619Y-85661500D01*
X196735095Y-85728024D01*
X196795571Y-85861071D01*
X196795571Y-86060643D01*
X196735095Y-86193690D01*
X196674619Y-86260214D01*
X196553666Y-86326738D01*
X196069857Y-86326738D01*
X198005095Y-86991976D02*
X197279381Y-86991976D01*
X197642238Y-86991976D02*
X197642238Y-85594976D01*
X197521286Y-85794548D01*
X197400333Y-85927595D01*
X197279381Y-85994119D01*
X199154143Y-85594976D02*
X198549381Y-85594976D01*
X198488905Y-86260214D01*
X198549381Y-86193690D01*
X198670333Y-86127167D01*
X198972714Y-86127167D01*
X199093667Y-86193690D01*
X199154143Y-86260214D01*
X199214619Y-86393262D01*
X199214619Y-86725881D01*
X199154143Y-86858929D01*
X199093667Y-86925452D01*
X198972714Y-86991976D01*
X198670333Y-86991976D01*
X198549381Y-86925452D01*
X198488905Y-86858929D01*
D16*
X186301143Y-109926381D02*
X185967809Y-109450190D01*
X185729714Y-109926381D02*
X185729714Y-108926381D01*
X186110667Y-108926381D01*
X186205905Y-108974000D01*
X186253524Y-109021619D01*
X186301143Y-109116857D01*
X186301143Y-109259714D01*
X186253524Y-109354952D01*
X186205905Y-109402571D01*
X186110667Y-109450190D01*
X185729714Y-109450190D01*
X187253524Y-109926381D02*
X186682095Y-109926381D01*
X186967809Y-109926381D02*
X186967809Y-108926381D01*
X186872571Y-109069238D01*
X186777333Y-109164476D01*
X186682095Y-109212095D01*
X188110667Y-108926381D02*
X187920190Y-108926381D01*
X187824952Y-108974000D01*
X187777333Y-109021619D01*
X187682095Y-109164476D01*
X187634476Y-109354952D01*
X187634476Y-109735905D01*
X187682095Y-109831143D01*
X187729714Y-109878762D01*
X187824952Y-109926381D01*
X188015429Y-109926381D01*
X188110667Y-109878762D01*
X188158286Y-109831143D01*
X188205905Y-109735905D01*
X188205905Y-109497810D01*
X188158286Y-109402571D01*
X188110667Y-109354952D01*
X188015429Y-109307333D01*
X187824952Y-109307333D01*
X187729714Y-109354952D01*
X187682095Y-109402571D01*
X187634476Y-109497810D01*
X170299143Y-96704381D02*
X169965809Y-96228190D01*
X169727714Y-96704381D02*
X169727714Y-95704381D01*
X170108667Y-95704381D01*
X170203905Y-95752000D01*
X170251524Y-95799619D01*
X170299143Y-95894857D01*
X170299143Y-96037714D01*
X170251524Y-96132952D01*
X170203905Y-96180571D01*
X170108667Y-96228190D01*
X169727714Y-96228190D01*
X171251524Y-96704381D02*
X170680095Y-96704381D01*
X170965809Y-96704381D02*
X170965809Y-95704381D01*
X170870571Y-95847238D01*
X170775333Y-95942476D01*
X170680095Y-95990095D01*
X171584857Y-95704381D02*
X172251524Y-95704381D01*
X171822952Y-96704381D01*
X219829143Y-129738381D02*
X219495809Y-129262190D01*
X219257714Y-129738381D02*
X219257714Y-128738381D01*
X219638667Y-128738381D01*
X219733905Y-128786000D01*
X219781524Y-128833619D01*
X219829143Y-128928857D01*
X219829143Y-129071714D01*
X219781524Y-129166952D01*
X219733905Y-129214571D01*
X219638667Y-129262190D01*
X219257714Y-129262190D01*
X220210095Y-128833619D02*
X220257714Y-128786000D01*
X220352952Y-128738381D01*
X220591048Y-128738381D01*
X220686286Y-128786000D01*
X220733905Y-128833619D01*
X220781524Y-128928857D01*
X220781524Y-129024095D01*
X220733905Y-129166952D01*
X220162476Y-129738381D01*
X220781524Y-129738381D01*
X221400571Y-128738381D02*
X221495810Y-128738381D01*
X221591048Y-128786000D01*
X221638667Y-128833619D01*
X221686286Y-128928857D01*
X221733905Y-129119333D01*
X221733905Y-129357429D01*
X221686286Y-129547905D01*
X221638667Y-129643143D01*
X221591048Y-129690762D01*
X221495810Y-129738381D01*
X221400571Y-129738381D01*
X221305333Y-129690762D01*
X221257714Y-129643143D01*
X221210095Y-129547905D01*
X221162476Y-129357429D01*
X221162476Y-129119333D01*
X221210095Y-128928857D01*
X221257714Y-128833619D01*
X221305333Y-128786000D01*
X221400571Y-128738381D01*
X194429143Y-125420381D02*
X194095809Y-124944190D01*
X193857714Y-125420381D02*
X193857714Y-124420381D01*
X194238667Y-124420381D01*
X194333905Y-124468000D01*
X194381524Y-124515619D01*
X194429143Y-124610857D01*
X194429143Y-124753714D01*
X194381524Y-124848952D01*
X194333905Y-124896571D01*
X194238667Y-124944190D01*
X193857714Y-124944190D01*
X194810095Y-124515619D02*
X194857714Y-124468000D01*
X194952952Y-124420381D01*
X195191048Y-124420381D01*
X195286286Y-124468000D01*
X195333905Y-124515619D01*
X195381524Y-124610857D01*
X195381524Y-124706095D01*
X195333905Y-124848952D01*
X194762476Y-125420381D01*
X195381524Y-125420381D01*
X196333905Y-125420381D02*
X195762476Y-125420381D01*
X196048190Y-125420381D02*
X196048190Y-124420381D01*
X195952952Y-124563238D01*
X195857714Y-124658476D01*
X195762476Y-124706095D01*
X198247143Y-99508571D02*
X199104286Y-99508571D01*
X198675715Y-101008571D02*
X198675715Y-99508571D01*
X200390000Y-101008571D02*
X199532857Y-101008571D01*
X199961429Y-101008571D02*
X199961429Y-99508571D01*
X199818572Y-99722857D01*
X199675714Y-99865714D01*
X199532857Y-99937143D01*
X158877143Y-88458571D02*
X159734286Y-88458571D01*
X159305715Y-89958571D02*
X159305715Y-88458571D01*
X160162857Y-88601429D02*
X160234286Y-88530000D01*
X160377143Y-88458571D01*
X160734286Y-88458571D01*
X160877143Y-88530000D01*
X160948572Y-88601429D01*
X161020000Y-88744286D01*
X161020000Y-88887143D01*
X160948572Y-89101429D01*
X160091429Y-89958571D01*
X161020000Y-89958571D01*
X158805715Y-72601429D02*
X158662857Y-72530000D01*
X158591429Y-72458571D01*
X158520000Y-72315714D01*
X158520000Y-72244286D01*
X158591429Y-72101429D01*
X158662857Y-72030000D01*
X158805715Y-71958571D01*
X159091429Y-71958571D01*
X159234286Y-72030000D01*
X159305715Y-72101429D01*
X159377143Y-72244286D01*
X159377143Y-72315714D01*
X159305715Y-72458571D01*
X159234286Y-72530000D01*
X159091429Y-72601429D01*
X158805715Y-72601429D01*
X158662857Y-72672857D01*
X158591429Y-72744286D01*
X158520000Y-72887143D01*
X158520000Y-73172857D01*
X158591429Y-73315714D01*
X158662857Y-73387143D01*
X158805715Y-73458571D01*
X159091429Y-73458571D01*
X159234286Y-73387143D01*
X159305715Y-73315714D01*
X159377143Y-73172857D01*
X159377143Y-72887143D01*
X159305715Y-72744286D01*
X159234286Y-72672857D01*
X159091429Y-72601429D01*
X160020000Y-73315714D02*
X160091428Y-73387143D01*
X160020000Y-73458571D01*
X159948571Y-73387143D01*
X160020000Y-73315714D01*
X160020000Y-73458571D01*
X160020000Y-72530000D02*
X160091428Y-72601429D01*
X160020000Y-72672857D01*
X159948571Y-72601429D01*
X160020000Y-72530000D01*
X160020000Y-72672857D01*
X160948572Y-72601429D02*
X160805714Y-72530000D01*
X160734286Y-72458571D01*
X160662857Y-72315714D01*
X160662857Y-72244286D01*
X160734286Y-72101429D01*
X160805714Y-72030000D01*
X160948572Y-71958571D01*
X161234286Y-71958571D01*
X161377143Y-72030000D01*
X161448572Y-72101429D01*
X161520000Y-72244286D01*
X161520000Y-72315714D01*
X161448572Y-72458571D01*
X161377143Y-72530000D01*
X161234286Y-72601429D01*
X160948572Y-72601429D01*
X160805714Y-72672857D01*
X160734286Y-72744286D01*
X160662857Y-72887143D01*
X160662857Y-73172857D01*
X160734286Y-73315714D01*
X160805714Y-73387143D01*
X160948572Y-73458571D01*
X161234286Y-73458571D01*
X161377143Y-73387143D01*
X161448572Y-73315714D01*
X161520000Y-73172857D01*
X161520000Y-72887143D01*
X161448572Y-72744286D01*
X161377143Y-72672857D01*
X161234286Y-72601429D01*
X141097143Y-91888571D02*
X141954286Y-91888571D01*
X141525715Y-93388571D02*
X141525715Y-91888571D01*
X142311429Y-91888571D02*
X143240000Y-91888571D01*
X142740000Y-92460000D01*
X142954286Y-92460000D01*
X143097143Y-92531429D01*
X143168572Y-92602857D01*
X143240000Y-92745714D01*
X143240000Y-93102857D01*
X143168572Y-93245714D01*
X143097143Y-93317143D01*
X142954286Y-93388571D01*
X142525714Y-93388571D01*
X142382857Y-93317143D01*
X142311429Y-93245714D01*
X139275429Y-108180000D02*
X139204000Y-108108571D01*
X139132571Y-107965714D01*
X139132571Y-107608571D01*
X139204000Y-107465714D01*
X139275429Y-107394285D01*
X139418286Y-107322857D01*
X139561143Y-107322857D01*
X139775429Y-107394285D01*
X140632571Y-108251428D01*
X140632571Y-107322857D01*
X140489714Y-106680000D02*
X140561143Y-106608572D01*
X140632571Y-106680000D01*
X140561143Y-106751429D01*
X140489714Y-106680000D01*
X140632571Y-106680000D01*
X139704000Y-106680000D02*
X139775429Y-106608572D01*
X139846857Y-106680000D01*
X139775429Y-106751429D01*
X139704000Y-106680000D01*
X139846857Y-106680000D01*
X139132571Y-106108571D02*
X139132571Y-105180000D01*
X139704000Y-105680000D01*
X139704000Y-105465714D01*
X139775429Y-105322857D01*
X139846857Y-105251428D01*
X139989714Y-105180000D01*
X140346857Y-105180000D01*
X140489714Y-105251428D01*
X140561143Y-105322857D01*
X140632571Y-105465714D01*
X140632571Y-105894286D01*
X140561143Y-106037143D01*
X140489714Y-106108571D01*
D13*
X191564381Y-64328524D02*
X191564381Y-65356619D01*
X191624857Y-65477571D01*
X191685333Y-65538048D01*
X191806286Y-65598524D01*
X192048190Y-65598524D01*
X192169143Y-65538048D01*
X192229619Y-65477571D01*
X192290095Y-65356619D01*
X192290095Y-64328524D01*
X193560095Y-65598524D02*
X192834381Y-65598524D01*
X193197238Y-65598524D02*
X193197238Y-64328524D01*
X193076286Y-64509952D01*
X192955333Y-64630905D01*
X192834381Y-64691381D01*
D16*
X112641143Y-70969143D02*
X112593524Y-71016762D01*
X112450667Y-71064381D01*
X112355429Y-71064381D01*
X112212571Y-71016762D01*
X112117333Y-70921524D01*
X112069714Y-70826286D01*
X112022095Y-70635810D01*
X112022095Y-70492952D01*
X112069714Y-70302476D01*
X112117333Y-70207238D01*
X112212571Y-70112000D01*
X112355429Y-70064381D01*
X112450667Y-70064381D01*
X112593524Y-70112000D01*
X112641143Y-70159619D01*
X112974476Y-70064381D02*
X113593524Y-70064381D01*
X113260190Y-70445333D01*
X113403048Y-70445333D01*
X113498286Y-70492952D01*
X113545905Y-70540571D01*
X113593524Y-70635810D01*
X113593524Y-70873905D01*
X113545905Y-70969143D01*
X113498286Y-71016762D01*
X113403048Y-71064381D01*
X113117333Y-71064381D01*
X113022095Y-71016762D01*
X112974476Y-70969143D01*
X113926857Y-70064381D02*
X114593524Y-70064381D01*
X114164952Y-71064381D01*
X116705143Y-58777143D02*
X116657524Y-58824762D01*
X116514667Y-58872381D01*
X116419429Y-58872381D01*
X116276571Y-58824762D01*
X116181333Y-58729524D01*
X116133714Y-58634286D01*
X116086095Y-58443810D01*
X116086095Y-58300952D01*
X116133714Y-58110476D01*
X116181333Y-58015238D01*
X116276571Y-57920000D01*
X116419429Y-57872381D01*
X116514667Y-57872381D01*
X116657524Y-57920000D01*
X116705143Y-57967619D01*
X117038476Y-57872381D02*
X117657524Y-57872381D01*
X117324190Y-58253333D01*
X117467048Y-58253333D01*
X117562286Y-58300952D01*
X117609905Y-58348571D01*
X117657524Y-58443810D01*
X117657524Y-58681905D01*
X117609905Y-58777143D01*
X117562286Y-58824762D01*
X117467048Y-58872381D01*
X117181333Y-58872381D01*
X117086095Y-58824762D01*
X117038476Y-58777143D01*
X118228952Y-58300952D02*
X118133714Y-58253333D01*
X118086095Y-58205714D01*
X118038476Y-58110476D01*
X118038476Y-58062857D01*
X118086095Y-57967619D01*
X118133714Y-57920000D01*
X118228952Y-57872381D01*
X118419429Y-57872381D01*
X118514667Y-57920000D01*
X118562286Y-57967619D01*
X118609905Y-58062857D01*
X118609905Y-58110476D01*
X118562286Y-58205714D01*
X118514667Y-58253333D01*
X118419429Y-58300952D01*
X118228952Y-58300952D01*
X118133714Y-58348571D01*
X118086095Y-58396190D01*
X118038476Y-58491429D01*
X118038476Y-58681905D01*
X118086095Y-58777143D01*
X118133714Y-58824762D01*
X118228952Y-58872381D01*
X118419429Y-58872381D01*
X118514667Y-58824762D01*
X118562286Y-58777143D01*
X118609905Y-58681905D01*
X118609905Y-58491429D01*
X118562286Y-58396190D01*
X118514667Y-58348571D01*
X118419429Y-58300952D01*
D17*
X116876285Y-64806286D02*
X116803714Y-64878857D01*
X116586000Y-64951429D01*
X116440857Y-64951429D01*
X116223142Y-64878857D01*
X116078000Y-64733714D01*
X116005428Y-64588571D01*
X115932857Y-64298286D01*
X115932857Y-64080571D01*
X116005428Y-63790286D01*
X116078000Y-63645143D01*
X116223142Y-63500000D01*
X116440857Y-63427429D01*
X116586000Y-63427429D01*
X116803714Y-63500000D01*
X116876285Y-63572571D01*
X117384285Y-63427429D02*
X118327714Y-63427429D01*
X117819714Y-64008000D01*
X118037428Y-64008000D01*
X118182571Y-64080571D01*
X118255142Y-64153143D01*
X118327714Y-64298286D01*
X118327714Y-64661143D01*
X118255142Y-64806286D01*
X118182571Y-64878857D01*
X118037428Y-64951429D01*
X117602000Y-64951429D01*
X117456857Y-64878857D01*
X117384285Y-64806286D01*
X119053429Y-64951429D02*
X119343714Y-64951429D01*
X119488857Y-64878857D01*
X119561429Y-64806286D01*
X119706571Y-64588571D01*
X119779143Y-64298286D01*
X119779143Y-63717714D01*
X119706571Y-63572571D01*
X119634000Y-63500000D01*
X119488857Y-63427429D01*
X119198571Y-63427429D01*
X119053429Y-63500000D01*
X118980857Y-63572571D01*
X118908286Y-63717714D01*
X118908286Y-64080571D01*
X118980857Y-64225714D01*
X119053429Y-64298286D01*
X119198571Y-64370857D01*
X119488857Y-64370857D01*
X119634000Y-64298286D01*
X119706571Y-64225714D01*
X119779143Y-64080571D01*
D16*
X92067143Y-52173143D02*
X92019524Y-52220762D01*
X91876667Y-52268381D01*
X91781429Y-52268381D01*
X91638571Y-52220762D01*
X91543333Y-52125524D01*
X91495714Y-52030286D01*
X91448095Y-51839810D01*
X91448095Y-51696952D01*
X91495714Y-51506476D01*
X91543333Y-51411238D01*
X91638571Y-51316000D01*
X91781429Y-51268381D01*
X91876667Y-51268381D01*
X92019524Y-51316000D01*
X92067143Y-51363619D01*
X92400476Y-51268381D02*
X93019524Y-51268381D01*
X92686190Y-51649333D01*
X92829048Y-51649333D01*
X92924286Y-51696952D01*
X92971905Y-51744571D01*
X93019524Y-51839810D01*
X93019524Y-52077905D01*
X92971905Y-52173143D01*
X92924286Y-52220762D01*
X92829048Y-52268381D01*
X92543333Y-52268381D01*
X92448095Y-52220762D01*
X92400476Y-52173143D01*
X93638571Y-51268381D02*
X93733810Y-51268381D01*
X93829048Y-51316000D01*
X93876667Y-51363619D01*
X93924286Y-51458857D01*
X93971905Y-51649333D01*
X93971905Y-51887429D01*
X93924286Y-52077905D01*
X93876667Y-52173143D01*
X93829048Y-52220762D01*
X93733810Y-52268381D01*
X93638571Y-52268381D01*
X93543333Y-52220762D01*
X93495714Y-52173143D01*
X93448095Y-52077905D01*
X93400476Y-51887429D01*
X93400476Y-51649333D01*
X93448095Y-51458857D01*
X93495714Y-51363619D01*
X93543333Y-51316000D01*
X93638571Y-51268381D01*
X118991143Y-45061143D02*
X118943524Y-45108762D01*
X118800667Y-45156381D01*
X118705429Y-45156381D01*
X118562571Y-45108762D01*
X118467333Y-45013524D01*
X118419714Y-44918286D01*
X118372095Y-44727810D01*
X118372095Y-44584952D01*
X118419714Y-44394476D01*
X118467333Y-44299238D01*
X118562571Y-44204000D01*
X118705429Y-44156381D01*
X118800667Y-44156381D01*
X118943524Y-44204000D01*
X118991143Y-44251619D01*
X119324476Y-44156381D02*
X119943524Y-44156381D01*
X119610190Y-44537333D01*
X119753048Y-44537333D01*
X119848286Y-44584952D01*
X119895905Y-44632571D01*
X119943524Y-44727810D01*
X119943524Y-44965905D01*
X119895905Y-45061143D01*
X119848286Y-45108762D01*
X119753048Y-45156381D01*
X119467333Y-45156381D01*
X119372095Y-45108762D01*
X119324476Y-45061143D01*
X120895905Y-45156381D02*
X120324476Y-45156381D01*
X120610190Y-45156381D02*
X120610190Y-44156381D01*
X120514952Y-44299238D01*
X120419714Y-44394476D01*
X120324476Y-44442095D01*
X163187143Y-130246381D02*
X162853809Y-129770190D01*
X162615714Y-130246381D02*
X162615714Y-129246381D01*
X162996667Y-129246381D01*
X163091905Y-129294000D01*
X163139524Y-129341619D01*
X163187143Y-129436857D01*
X163187143Y-129579714D01*
X163139524Y-129674952D01*
X163091905Y-129722571D01*
X162996667Y-129770190D01*
X162615714Y-129770190D01*
X163568095Y-129341619D02*
X163615714Y-129294000D01*
X163710952Y-129246381D01*
X163949048Y-129246381D01*
X164044286Y-129294000D01*
X164091905Y-129341619D01*
X164139524Y-129436857D01*
X164139524Y-129532095D01*
X164091905Y-129674952D01*
X163520476Y-130246381D01*
X164139524Y-130246381D01*
X164996667Y-129579714D02*
X164996667Y-130246381D01*
X164758571Y-129198762D02*
X164520476Y-129913048D01*
X165139524Y-129913048D01*
X159631143Y-130246381D02*
X159297809Y-129770190D01*
X159059714Y-130246381D02*
X159059714Y-129246381D01*
X159440667Y-129246381D01*
X159535905Y-129294000D01*
X159583524Y-129341619D01*
X159631143Y-129436857D01*
X159631143Y-129579714D01*
X159583524Y-129674952D01*
X159535905Y-129722571D01*
X159440667Y-129770190D01*
X159059714Y-129770190D01*
X160012095Y-129341619D02*
X160059714Y-129294000D01*
X160154952Y-129246381D01*
X160393048Y-129246381D01*
X160488286Y-129294000D01*
X160535905Y-129341619D01*
X160583524Y-129436857D01*
X160583524Y-129532095D01*
X160535905Y-129674952D01*
X159964476Y-130246381D01*
X160583524Y-130246381D01*
X161488286Y-129246381D02*
X161012095Y-129246381D01*
X160964476Y-129722571D01*
X161012095Y-129674952D01*
X161107333Y-129627333D01*
X161345429Y-129627333D01*
X161440667Y-129674952D01*
X161488286Y-129722571D01*
X161535905Y-129817810D01*
X161535905Y-130055905D01*
X161488286Y-130151143D01*
X161440667Y-130198762D01*
X161345429Y-130246381D01*
X161107333Y-130246381D01*
X161012095Y-130198762D01*
X160964476Y-130151143D01*
X107561143Y-69540381D02*
X107227809Y-69064190D01*
X106989714Y-69540381D02*
X106989714Y-68540381D01*
X107370667Y-68540381D01*
X107465905Y-68588000D01*
X107513524Y-68635619D01*
X107561143Y-68730857D01*
X107561143Y-68873714D01*
X107513524Y-68968952D01*
X107465905Y-69016571D01*
X107370667Y-69064190D01*
X106989714Y-69064190D01*
X107942095Y-68635619D02*
X107989714Y-68588000D01*
X108084952Y-68540381D01*
X108323048Y-68540381D01*
X108418286Y-68588000D01*
X108465905Y-68635619D01*
X108513524Y-68730857D01*
X108513524Y-68826095D01*
X108465905Y-68968952D01*
X107894476Y-69540381D01*
X108513524Y-69540381D01*
X109370667Y-68540381D02*
X109180190Y-68540381D01*
X109084952Y-68588000D01*
X109037333Y-68635619D01*
X108942095Y-68778476D01*
X108894476Y-68968952D01*
X108894476Y-69349905D01*
X108942095Y-69445143D01*
X108989714Y-69492762D01*
X109084952Y-69540381D01*
X109275429Y-69540381D01*
X109370667Y-69492762D01*
X109418286Y-69445143D01*
X109465905Y-69349905D01*
X109465905Y-69111810D01*
X109418286Y-69016571D01*
X109370667Y-68968952D01*
X109275429Y-68921333D01*
X109084952Y-68921333D01*
X108989714Y-68968952D01*
X108942095Y-69016571D01*
X108894476Y-69111810D01*
X186594762Y-74207619D02*
X186499524Y-74160000D01*
X186404286Y-74064762D01*
X186261429Y-73921905D01*
X186166190Y-73874286D01*
X186070952Y-73874286D01*
X186118571Y-74112381D02*
X186023333Y-74064762D01*
X185928095Y-73969524D01*
X185880476Y-73779048D01*
X185880476Y-73445714D01*
X185928095Y-73255238D01*
X186023333Y-73160000D01*
X186118571Y-73112381D01*
X186309048Y-73112381D01*
X186404286Y-73160000D01*
X186499524Y-73255238D01*
X186547143Y-73445714D01*
X186547143Y-73779048D01*
X186499524Y-73969524D01*
X186404286Y-74064762D01*
X186309048Y-74112381D01*
X186118571Y-74112381D01*
X187499524Y-74112381D02*
X186928095Y-74112381D01*
X187213809Y-74112381D02*
X187213809Y-73112381D01*
X187118571Y-73255238D01*
X187023333Y-73350476D01*
X186928095Y-73398095D01*
X218598762Y-110783619D02*
X218503524Y-110736000D01*
X218408286Y-110640762D01*
X218265429Y-110497905D01*
X218170190Y-110450286D01*
X218074952Y-110450286D01*
X218122571Y-110688381D02*
X218027333Y-110640762D01*
X217932095Y-110545524D01*
X217884476Y-110355048D01*
X217884476Y-110021714D01*
X217932095Y-109831238D01*
X218027333Y-109736000D01*
X218122571Y-109688381D01*
X218313048Y-109688381D01*
X218408286Y-109736000D01*
X218503524Y-109831238D01*
X218551143Y-110021714D01*
X218551143Y-110355048D01*
X218503524Y-110545524D01*
X218408286Y-110640762D01*
X218313048Y-110688381D01*
X218122571Y-110688381D01*
X219408286Y-109688381D02*
X219217809Y-109688381D01*
X219122571Y-109736000D01*
X219074952Y-109783619D01*
X218979714Y-109926476D01*
X218932095Y-110116952D01*
X218932095Y-110497905D01*
X218979714Y-110593143D01*
X219027333Y-110640762D01*
X219122571Y-110688381D01*
X219313048Y-110688381D01*
X219408286Y-110640762D01*
X219455905Y-110593143D01*
X219503524Y-110497905D01*
X219503524Y-110259810D01*
X219455905Y-110164571D01*
X219408286Y-110116952D01*
X219313048Y-110069333D01*
X219122571Y-110069333D01*
X219027333Y-110116952D01*
X218979714Y-110164571D01*
X218932095Y-110259810D01*
X84740762Y-105957619D02*
X84645524Y-105910000D01*
X84550286Y-105814762D01*
X84407429Y-105671905D01*
X84312190Y-105624286D01*
X84216952Y-105624286D01*
X84264571Y-105862381D02*
X84169333Y-105814762D01*
X84074095Y-105719524D01*
X84026476Y-105529048D01*
X84026476Y-105195714D01*
X84074095Y-105005238D01*
X84169333Y-104910000D01*
X84264571Y-104862381D01*
X84455048Y-104862381D01*
X84550286Y-104910000D01*
X84645524Y-105005238D01*
X84693143Y-105195714D01*
X84693143Y-105529048D01*
X84645524Y-105719524D01*
X84550286Y-105814762D01*
X84455048Y-105862381D01*
X84264571Y-105862381D01*
X85169333Y-105862381D02*
X85359809Y-105862381D01*
X85455048Y-105814762D01*
X85502667Y-105767143D01*
X85597905Y-105624286D01*
X85645524Y-105433810D01*
X85645524Y-105052857D01*
X85597905Y-104957619D01*
X85550286Y-104910000D01*
X85455048Y-104862381D01*
X85264571Y-104862381D01*
X85169333Y-104910000D01*
X85121714Y-104957619D01*
X85074095Y-105052857D01*
X85074095Y-105290952D01*
X85121714Y-105386190D01*
X85169333Y-105433810D01*
X85264571Y-105481429D01*
X85455048Y-105481429D01*
X85550286Y-105433810D01*
X85597905Y-105386190D01*
X85645524Y-105290952D01*
X83756572Y-90717619D02*
X83661334Y-90670000D01*
X83566096Y-90574762D01*
X83423239Y-90431905D01*
X83328000Y-90384286D01*
X83232762Y-90384286D01*
X83280381Y-90622381D02*
X83185143Y-90574762D01*
X83089905Y-90479524D01*
X83042286Y-90289048D01*
X83042286Y-89955714D01*
X83089905Y-89765238D01*
X83185143Y-89670000D01*
X83280381Y-89622381D01*
X83470858Y-89622381D01*
X83566096Y-89670000D01*
X83661334Y-89765238D01*
X83708953Y-89955714D01*
X83708953Y-90289048D01*
X83661334Y-90479524D01*
X83566096Y-90574762D01*
X83470858Y-90622381D01*
X83280381Y-90622381D01*
X84661334Y-90622381D02*
X84089905Y-90622381D01*
X84375619Y-90622381D02*
X84375619Y-89622381D01*
X84280381Y-89765238D01*
X84185143Y-89860476D01*
X84089905Y-89908095D01*
X85280381Y-89622381D02*
X85375620Y-89622381D01*
X85470858Y-89670000D01*
X85518477Y-89717619D01*
X85566096Y-89812857D01*
X85613715Y-90003333D01*
X85613715Y-90241429D01*
X85566096Y-90431905D01*
X85518477Y-90527143D01*
X85470858Y-90574762D01*
X85375620Y-90622381D01*
X85280381Y-90622381D01*
X85185143Y-90574762D01*
X85137524Y-90527143D01*
X85089905Y-90431905D01*
X85042286Y-90241429D01*
X85042286Y-90003333D01*
X85089905Y-89812857D01*
X85137524Y-89717619D01*
X85185143Y-89670000D01*
X85280381Y-89622381D01*
X86296572Y-75223619D02*
X86201334Y-75176000D01*
X86106096Y-75080762D01*
X85963239Y-74937905D01*
X85868000Y-74890286D01*
X85772762Y-74890286D01*
X85820381Y-75128381D02*
X85725143Y-75080762D01*
X85629905Y-74985524D01*
X85582286Y-74795048D01*
X85582286Y-74461714D01*
X85629905Y-74271238D01*
X85725143Y-74176000D01*
X85820381Y-74128381D01*
X86010858Y-74128381D01*
X86106096Y-74176000D01*
X86201334Y-74271238D01*
X86248953Y-74461714D01*
X86248953Y-74795048D01*
X86201334Y-74985524D01*
X86106096Y-75080762D01*
X86010858Y-75128381D01*
X85820381Y-75128381D01*
X87201334Y-75128381D02*
X86629905Y-75128381D01*
X86915619Y-75128381D02*
X86915619Y-74128381D01*
X86820381Y-74271238D01*
X86725143Y-74366476D01*
X86629905Y-74414095D01*
X88153715Y-75128381D02*
X87582286Y-75128381D01*
X87868000Y-75128381D02*
X87868000Y-74128381D01*
X87772762Y-74271238D01*
X87677524Y-74366476D01*
X87582286Y-74414095D01*
X138295143Y-70824381D02*
X137961809Y-70348190D01*
X137723714Y-70824381D02*
X137723714Y-69824381D01*
X138104667Y-69824381D01*
X138199905Y-69872000D01*
X138247524Y-69919619D01*
X138295143Y-70014857D01*
X138295143Y-70157714D01*
X138247524Y-70252952D01*
X138199905Y-70300571D01*
X138104667Y-70348190D01*
X137723714Y-70348190D01*
X139247524Y-70824381D02*
X138676095Y-70824381D01*
X138961809Y-70824381D02*
X138961809Y-69824381D01*
X138866571Y-69967238D01*
X138771333Y-70062476D01*
X138676095Y-70110095D01*
X139818952Y-70252952D02*
X139723714Y-70205333D01*
X139676095Y-70157714D01*
X139628476Y-70062476D01*
X139628476Y-70014857D01*
X139676095Y-69919619D01*
X139723714Y-69872000D01*
X139818952Y-69824381D01*
X140009429Y-69824381D01*
X140104667Y-69872000D01*
X140152286Y-69919619D01*
X140199905Y-70014857D01*
X140199905Y-70062476D01*
X140152286Y-70157714D01*
X140104667Y-70205333D01*
X140009429Y-70252952D01*
X139818952Y-70252952D01*
X139723714Y-70300571D01*
X139676095Y-70348190D01*
X139628476Y-70443429D01*
X139628476Y-70633905D01*
X139676095Y-70729143D01*
X139723714Y-70776762D01*
X139818952Y-70824381D01*
X140009429Y-70824381D01*
X140104667Y-70776762D01*
X140152286Y-70729143D01*
X140199905Y-70633905D01*
X140199905Y-70443429D01*
X140152286Y-70348190D01*
X140104667Y-70300571D01*
X140009429Y-70252952D01*
X211939143Y-51442857D02*
X211986762Y-51490476D01*
X212034381Y-51633333D01*
X212034381Y-51728571D01*
X211986762Y-51871429D01*
X211891524Y-51966667D01*
X211796286Y-52014286D01*
X211605810Y-52061905D01*
X211462952Y-52061905D01*
X211272476Y-52014286D01*
X211177238Y-51966667D01*
X211082000Y-51871429D01*
X211034381Y-51728571D01*
X211034381Y-51633333D01*
X211082000Y-51490476D01*
X211129619Y-51442857D01*
X211034381Y-51109524D02*
X211034381Y-50490476D01*
X211415333Y-50823810D01*
X211415333Y-50680952D01*
X211462952Y-50585714D01*
X211510571Y-50538095D01*
X211605810Y-50490476D01*
X211843905Y-50490476D01*
X211939143Y-50538095D01*
X211986762Y-50585714D01*
X212034381Y-50680952D01*
X212034381Y-50966667D01*
X211986762Y-51061905D01*
X211939143Y-51109524D01*
X211129619Y-50109524D02*
X211082000Y-50061905D01*
X211034381Y-49966667D01*
X211034381Y-49728571D01*
X211082000Y-49633333D01*
X211129619Y-49585714D01*
X211224857Y-49538095D01*
X211320095Y-49538095D01*
X211462952Y-49585714D01*
X212034381Y-50157143D01*
X212034381Y-49538095D01*
X211939143Y-56776857D02*
X211986762Y-56824476D01*
X212034381Y-56967333D01*
X212034381Y-57062571D01*
X211986762Y-57205429D01*
X211891524Y-57300667D01*
X211796286Y-57348286D01*
X211605810Y-57395905D01*
X211462952Y-57395905D01*
X211272476Y-57348286D01*
X211177238Y-57300667D01*
X211082000Y-57205429D01*
X211034381Y-57062571D01*
X211034381Y-56967333D01*
X211082000Y-56824476D01*
X211129619Y-56776857D01*
X211367714Y-55919714D02*
X212034381Y-55919714D01*
X210986762Y-56157810D02*
X211701048Y-56395905D01*
X211701048Y-55776857D01*
X211034381Y-55205429D02*
X211034381Y-55110190D01*
X211082000Y-55014952D01*
X211129619Y-54967333D01*
X211224857Y-54919714D01*
X211415333Y-54872095D01*
X211653429Y-54872095D01*
X211843905Y-54919714D01*
X211939143Y-54967333D01*
X211986762Y-55014952D01*
X212034381Y-55110190D01*
X212034381Y-55205429D01*
X211986762Y-55300667D01*
X211939143Y-55348286D01*
X211843905Y-55395905D01*
X211653429Y-55443524D01*
X211415333Y-55443524D01*
X211224857Y-55395905D01*
X211129619Y-55348286D01*
X211082000Y-55300667D01*
X211034381Y-55205429D01*
X211939143Y-62364857D02*
X211986762Y-62412476D01*
X212034381Y-62555333D01*
X212034381Y-62650571D01*
X211986762Y-62793429D01*
X211891524Y-62888667D01*
X211796286Y-62936286D01*
X211605810Y-62983905D01*
X211462952Y-62983905D01*
X211272476Y-62936286D01*
X211177238Y-62888667D01*
X211082000Y-62793429D01*
X211034381Y-62650571D01*
X211034381Y-62555333D01*
X211082000Y-62412476D01*
X211129619Y-62364857D01*
X211367714Y-61507714D02*
X212034381Y-61507714D01*
X210986762Y-61745810D02*
X211701048Y-61983905D01*
X211701048Y-61364857D01*
X212034381Y-60460095D02*
X212034381Y-61031524D01*
X212034381Y-60745810D02*
X211034381Y-60745810D01*
X211177238Y-60841048D01*
X211272476Y-60936286D01*
X211320095Y-61031524D01*
X211939143Y-68206857D02*
X211986762Y-68254476D01*
X212034381Y-68397333D01*
X212034381Y-68492571D01*
X211986762Y-68635429D01*
X211891524Y-68730667D01*
X211796286Y-68778286D01*
X211605810Y-68825905D01*
X211462952Y-68825905D01*
X211272476Y-68778286D01*
X211177238Y-68730667D01*
X211082000Y-68635429D01*
X211034381Y-68492571D01*
X211034381Y-68397333D01*
X211082000Y-68254476D01*
X211129619Y-68206857D01*
X211367714Y-67349714D02*
X212034381Y-67349714D01*
X210986762Y-67587810D02*
X211701048Y-67825905D01*
X211701048Y-67206857D01*
X211129619Y-66873524D02*
X211082000Y-66825905D01*
X211034381Y-66730667D01*
X211034381Y-66492571D01*
X211082000Y-66397333D01*
X211129619Y-66349714D01*
X211224857Y-66302095D01*
X211320095Y-66302095D01*
X211462952Y-66349714D01*
X212034381Y-66921143D01*
X212034381Y-66302095D01*
X211939143Y-73794857D02*
X211986762Y-73842476D01*
X212034381Y-73985333D01*
X212034381Y-74080571D01*
X211986762Y-74223429D01*
X211891524Y-74318667D01*
X211796286Y-74366286D01*
X211605810Y-74413905D01*
X211462952Y-74413905D01*
X211272476Y-74366286D01*
X211177238Y-74318667D01*
X211082000Y-74223429D01*
X211034381Y-74080571D01*
X211034381Y-73985333D01*
X211082000Y-73842476D01*
X211129619Y-73794857D01*
X211367714Y-72937714D02*
X212034381Y-72937714D01*
X210986762Y-73175810D02*
X211701048Y-73413905D01*
X211701048Y-72794857D01*
X211034381Y-72509143D02*
X211034381Y-71890095D01*
X211415333Y-72223429D01*
X211415333Y-72080571D01*
X211462952Y-71985333D01*
X211510571Y-71937714D01*
X211605810Y-71890095D01*
X211843905Y-71890095D01*
X211939143Y-71937714D01*
X211986762Y-71985333D01*
X212034381Y-72080571D01*
X212034381Y-72366286D01*
X211986762Y-72461524D01*
X211939143Y-72509143D01*
X200255143Y-70270666D02*
X200302762Y-70318285D01*
X200350381Y-70461142D01*
X200350381Y-70556380D01*
X200302762Y-70699238D01*
X200207524Y-70794476D01*
X200112286Y-70842095D01*
X199921810Y-70889714D01*
X199778952Y-70889714D01*
X199588476Y-70842095D01*
X199493238Y-70794476D01*
X199398000Y-70699238D01*
X199350381Y-70556380D01*
X199350381Y-70461142D01*
X199398000Y-70318285D01*
X199445619Y-70270666D01*
X199683714Y-69413523D02*
X200350381Y-69413523D01*
X199302762Y-69651619D02*
X200017048Y-69889714D01*
X200017048Y-69270666D01*
X200255143Y-64682666D02*
X200302762Y-64730285D01*
X200350381Y-64873142D01*
X200350381Y-64968380D01*
X200302762Y-65111238D01*
X200207524Y-65206476D01*
X200112286Y-65254095D01*
X199921810Y-65301714D01*
X199778952Y-65301714D01*
X199588476Y-65254095D01*
X199493238Y-65206476D01*
X199398000Y-65111238D01*
X199350381Y-64968380D01*
X199350381Y-64873142D01*
X199398000Y-64730285D01*
X199445619Y-64682666D01*
X199350381Y-63777904D02*
X199350381Y-64254095D01*
X199826571Y-64301714D01*
X199778952Y-64254095D01*
X199731333Y-64158857D01*
X199731333Y-63920761D01*
X199778952Y-63825523D01*
X199826571Y-63777904D01*
X199921810Y-63730285D01*
X200159905Y-63730285D01*
X200255143Y-63777904D01*
X200302762Y-63825523D01*
X200350381Y-63920761D01*
X200350381Y-64158857D01*
X200302762Y-64254095D01*
X200255143Y-64301714D01*
X200255143Y-58840666D02*
X200302762Y-58888285D01*
X200350381Y-59031142D01*
X200350381Y-59126380D01*
X200302762Y-59269238D01*
X200207524Y-59364476D01*
X200112286Y-59412095D01*
X199921810Y-59459714D01*
X199778952Y-59459714D01*
X199588476Y-59412095D01*
X199493238Y-59364476D01*
X199398000Y-59269238D01*
X199350381Y-59126380D01*
X199350381Y-59031142D01*
X199398000Y-58888285D01*
X199445619Y-58840666D01*
X199350381Y-57983523D02*
X199350381Y-58174000D01*
X199398000Y-58269238D01*
X199445619Y-58316857D01*
X199588476Y-58412095D01*
X199778952Y-58459714D01*
X200159905Y-58459714D01*
X200255143Y-58412095D01*
X200302762Y-58364476D01*
X200350381Y-58269238D01*
X200350381Y-58078761D01*
X200302762Y-57983523D01*
X200255143Y-57935904D01*
X200159905Y-57888285D01*
X199921810Y-57888285D01*
X199826571Y-57935904D01*
X199778952Y-57983523D01*
X199731333Y-58078761D01*
X199731333Y-58269238D01*
X199778952Y-58364476D01*
X199826571Y-58412095D01*
X199921810Y-58459714D01*
X200255143Y-53252666D02*
X200302762Y-53300285D01*
X200350381Y-53443142D01*
X200350381Y-53538380D01*
X200302762Y-53681238D01*
X200207524Y-53776476D01*
X200112286Y-53824095D01*
X199921810Y-53871714D01*
X199778952Y-53871714D01*
X199588476Y-53824095D01*
X199493238Y-53776476D01*
X199398000Y-53681238D01*
X199350381Y-53538380D01*
X199350381Y-53443142D01*
X199398000Y-53300285D01*
X199445619Y-53252666D01*
X199350381Y-52919333D02*
X199350381Y-52252666D01*
X200350381Y-52681238D01*
X200255143Y-47918666D02*
X200302762Y-47966285D01*
X200350381Y-48109142D01*
X200350381Y-48204380D01*
X200302762Y-48347238D01*
X200207524Y-48442476D01*
X200112286Y-48490095D01*
X199921810Y-48537714D01*
X199778952Y-48537714D01*
X199588476Y-48490095D01*
X199493238Y-48442476D01*
X199398000Y-48347238D01*
X199350381Y-48204380D01*
X199350381Y-48109142D01*
X199398000Y-47966285D01*
X199445619Y-47918666D01*
X199778952Y-47347238D02*
X199731333Y-47442476D01*
X199683714Y-47490095D01*
X199588476Y-47537714D01*
X199540857Y-47537714D01*
X199445619Y-47490095D01*
X199398000Y-47442476D01*
X199350381Y-47347238D01*
X199350381Y-47156761D01*
X199398000Y-47061523D01*
X199445619Y-47013904D01*
X199540857Y-46966285D01*
X199588476Y-46966285D01*
X199683714Y-47013904D01*
X199731333Y-47061523D01*
X199778952Y-47156761D01*
X199778952Y-47347238D01*
X199826571Y-47442476D01*
X199874190Y-47490095D01*
X199969429Y-47537714D01*
X200159905Y-47537714D01*
X200255143Y-47490095D01*
X200302762Y-47442476D01*
X200350381Y-47347238D01*
X200350381Y-47156761D01*
X200302762Y-47061523D01*
X200255143Y-47013904D01*
X200159905Y-46966285D01*
X199969429Y-46966285D01*
X199874190Y-47013904D01*
X199826571Y-47061523D01*
X199778952Y-47156761D01*
M02*
