G04 #@! TF.FileFunction,Soldermask,Bot*
%FSLAX46Y46*%
G04 Gerber Fmt 4.6, Leading zero omitted, Abs format (unit mm)*
G04 Created by KiCad (PCBNEW (2014-11-29 BZR 5307)-product) date Sat 04 Jul 2015 02:05:10 PM CDT*
%MOMM*%
G01*
G04 APERTURE LIST*
%ADD10C,0.100000*%
%ADD11C,2.400000*%
%ADD12O,2.099260X3.900120*%
%ADD13C,4.199840*%
%ADD14C,3.400000*%
%ADD15R,3.399740X8.400000*%
%ADD16C,1.700000*%
%ADD17C,1.800000*%
%ADD18R,2.398980X2.398980*%
%ADD19C,2.398980*%
%ADD20C,1.797000*%
%ADD21C,1.900000*%
%ADD22C,2.200000*%
%ADD23R,2.432000X2.127200*%
%ADD24O,2.432000X2.127200*%
%ADD25R,2.127200X2.432000*%
%ADD26O,2.127200X2.432000*%
%ADD27R,2.432000X2.432000*%
%ADD28O,2.432000X2.432000*%
%ADD29C,6.100000*%
%ADD30R,1.700000X1.700000*%
G04 APERTURE END LIST*
D10*
D11*
X191516000Y-117328000D03*
X189016000Y-114828000D03*
X194016000Y-114828000D03*
X182118000Y-117328000D03*
X179618000Y-114828000D03*
X184618000Y-114828000D03*
D12*
X171450000Y-104394000D03*
X173990000Y-104394000D03*
X168910000Y-104394000D03*
D13*
X171450000Y-121158000D03*
D12*
X171450000Y-93345000D03*
X168910000Y-93345000D03*
X173990000Y-93345000D03*
D13*
X171450000Y-76581000D03*
D14*
X227584000Y-72422000D03*
X227584000Y-76422000D03*
D15*
X135841740Y-55626000D03*
X129842260Y-55626000D03*
D16*
X224330000Y-68540000D03*
X230330000Y-63540000D03*
D17*
X218440000Y-100330000D03*
X213360000Y-100330000D03*
X210820000Y-100330000D03*
X208280000Y-100330000D03*
X208280000Y-105410000D03*
X210820000Y-105410000D03*
X213360000Y-105410000D03*
X218440000Y-105410000D03*
X87630000Y-100330000D03*
X92710000Y-100330000D03*
X95250000Y-100330000D03*
X97790000Y-100330000D03*
X97790000Y-95250000D03*
X95250000Y-95250000D03*
X92710000Y-95250000D03*
X87630000Y-95250000D03*
X87630000Y-115570000D03*
X92710000Y-115570000D03*
X95250000Y-115570000D03*
X97790000Y-115570000D03*
X97790000Y-110490000D03*
X95250000Y-110490000D03*
X92710000Y-110490000D03*
X87630000Y-110490000D03*
X135890000Y-111760000D03*
X130810000Y-111760000D03*
X128270000Y-111760000D03*
X125730000Y-111760000D03*
X125730000Y-116840000D03*
X128270000Y-116840000D03*
X130810000Y-116840000D03*
X135890000Y-116840000D03*
X135890000Y-96520000D03*
X130810000Y-96520000D03*
X128270000Y-96520000D03*
X125730000Y-96520000D03*
X125730000Y-101600000D03*
X128270000Y-101600000D03*
X130810000Y-101600000D03*
X135890000Y-101600000D03*
X135890000Y-81280000D03*
X130810000Y-81280000D03*
X128270000Y-81280000D03*
X125730000Y-81280000D03*
X125730000Y-86360000D03*
X128270000Y-86360000D03*
X130810000Y-86360000D03*
X135890000Y-86360000D03*
X87630000Y-85090000D03*
X92710000Y-85090000D03*
X95250000Y-85090000D03*
X97790000Y-85090000D03*
X97790000Y-80010000D03*
X95250000Y-80010000D03*
X92710000Y-80010000D03*
X87630000Y-80010000D03*
D16*
X198247000Y-117094000D03*
X207137000Y-117094000D03*
X200152000Y-114554000D03*
X205232000Y-120269000D03*
X215392000Y-116459000D03*
X215392000Y-125349000D03*
X217932000Y-118364000D03*
X212217000Y-123444000D03*
X119340000Y-86820000D03*
X114340000Y-80820000D03*
X119340000Y-102060000D03*
X114340000Y-96060000D03*
X109180000Y-86820000D03*
X104180000Y-80820000D03*
X131112000Y-77430000D03*
X137112000Y-72430000D03*
X109180000Y-102060000D03*
X104180000Y-96060000D03*
X109180000Y-117300000D03*
X104180000Y-111300000D03*
X119340000Y-117300000D03*
X114340000Y-111300000D03*
D18*
X143256000Y-46228000D03*
D19*
X143256000Y-48768000D03*
D20*
X111760000Y-116840000D03*
X111760000Y-119380000D03*
X111760000Y-101600000D03*
X111760000Y-104140000D03*
X111760000Y-86360000D03*
X111760000Y-88900000D03*
X125984000Y-70866000D03*
X123444000Y-70866000D03*
X111760000Y-111760000D03*
X111760000Y-109220000D03*
X111760000Y-96520000D03*
X111760000Y-93980000D03*
X111760000Y-81280000D03*
X111760000Y-78740000D03*
X125984000Y-76200000D03*
X125984000Y-73660000D03*
X101600000Y-119380000D03*
X99060000Y-119380000D03*
X101600000Y-104140000D03*
X99060000Y-104140000D03*
X101600000Y-88900000D03*
X99060000Y-88900000D03*
X123190000Y-76200000D03*
X123190000Y-73660000D03*
D14*
X223266000Y-76422000D03*
X223266000Y-72422000D03*
D11*
X231394000Y-58166000D03*
X224394000Y-58166000D03*
D20*
X208280000Y-96520000D03*
X210820000Y-96520000D03*
X201930000Y-96520000D03*
X204470000Y-96520000D03*
X201930000Y-90170000D03*
X201930000Y-92710000D03*
X189230000Y-101600000D03*
X189230000Y-104140000D03*
X189230000Y-86360000D03*
X189230000Y-88900000D03*
X194310000Y-101600000D03*
X194310000Y-104140000D03*
X194310000Y-86360000D03*
X194310000Y-88900000D03*
D21*
X196040000Y-93250000D03*
X190040000Y-93250000D03*
X196040000Y-97250000D03*
X190040000Y-97250000D03*
X162020000Y-84280000D03*
X162020000Y-78280000D03*
X158020000Y-84280000D03*
X158020000Y-78280000D03*
D22*
X156130000Y-90680000D03*
X146130000Y-90680000D03*
X156130000Y-122680000D03*
X146130000Y-122680000D03*
D23*
X87884000Y-63500000D03*
D24*
X87884000Y-66040000D03*
X87884000Y-68580000D03*
D18*
X112268000Y-62230000D03*
D19*
X114808000Y-62230000D03*
D25*
X90170000Y-72390000D03*
D26*
X92710000Y-72390000D03*
X95250000Y-72390000D03*
X97790000Y-72390000D03*
X100330000Y-72390000D03*
X102870000Y-72390000D03*
D27*
X106934000Y-74168000D03*
D28*
X109474000Y-74168000D03*
D25*
X109220000Y-45974000D03*
D26*
X106680000Y-45974000D03*
X104140000Y-45974000D03*
X101600000Y-45974000D03*
X99060000Y-45974000D03*
X96520000Y-45974000D03*
D29*
X231648000Y-46482000D03*
X231648000Y-128778000D03*
X85852000Y-128778000D03*
X85852000Y-46482000D03*
D30*
X206883000Y-50673000D03*
D16*
X209383000Y-50673000D03*
D30*
X206883000Y-56261000D03*
D16*
X209383000Y-56261000D03*
D30*
X206883000Y-61849000D03*
D16*
X209383000Y-61849000D03*
D30*
X206883000Y-67437000D03*
D16*
X209383000Y-67437000D03*
D30*
X206883000Y-73025000D03*
D16*
X209383000Y-73025000D03*
D30*
X204470000Y-70104000D03*
D16*
X201970000Y-70104000D03*
D30*
X204470000Y-64516000D03*
D16*
X201970000Y-64516000D03*
D30*
X204470000Y-58928000D03*
D16*
X201970000Y-58928000D03*
D30*
X204470000Y-53340000D03*
D16*
X201970000Y-53340000D03*
D30*
X204470000Y-47752000D03*
D16*
X201970000Y-47752000D03*
M02*
