M48
;DRILL file {kicad (2014-11-29 BZR 5307)-product} date Sat 24 Jan 2015 07:08:01 PM CST
;FORMAT={-:-/ absolute / inch / decimal}
FMAT,2
INCH,TZ
T1C0.025
T2C0.031
T3C0.031
T4C0.032
T5C0.032
T6C0.039
T7C0.039
T8C0.040
T9C0.051
T10C0.063
T11C0.079
T12C0.130
%
G90
G05
M72
T1
X3.29Y-3.35
X3.29Y-3.95
X3.29Y-4.55
X3.35Y-4.17
X3.41Y-3.5
X3.44Y-3.25
X3.46Y-2.27
X3.46Y-2.38
X3.57Y-2.75
X3.61Y-4.2
X3.625Y-2.2
X3.67Y-2.75
X3.7Y-4.2
X3.71Y-2.43
X3.71Y-3.6
X3.74Y-2.31
X3.78Y-4.87
X3.79Y-3.6
X3.81Y-2.58
X3.96Y-4.87
X4.02Y-2.3
X4.02Y-2.43
X4.07Y-2.7
X4.2Y-2.17
X4.2Y-2.23
X4.33Y-2.4
X4.54Y-2.73
X4.57Y-2.96
X4.57Y-3.05
X4.66Y-2.73
X4.67Y-2.96
X4.67Y-3.05
X4.96Y-2.3
X5.01Y-4.2
X5.06Y-2.96
X5.09Y-4.2
X5.11Y-3.53
X5.35Y-4.87
X5.47Y-3.8
X5.5Y-3.59
X5.58Y-2.3
X5.59Y-3.08
X5.59Y-3.2
X5.91Y-3.47
X6.22Y-3.65
X6.44Y-3.64
X6.44Y-3.74
X6.5Y-2.8
X6.5Y-2.93
X6.5Y-3.04
X6.5Y-3.17
X6.66Y-3.69
X6.69Y-4.91
X6.69Y-4.99
X6.74Y-4.89
X6.74Y-5.02
X6.75Y-3.52
X6.9Y-2.
X6.9Y-2.25
X7.29Y-2.61
X7.3Y-4.91
X7.41Y-3.08
X7.7Y-4.6
X8.13Y-3.86
X8.24Y-3.1
X8.33Y-3.65
X8.42Y-4.98
X8.51Y-4.01
X8.51Y-4.1
X8.67Y-4.72
X8.83Y-3.43
X8.83Y-4.18
T2
X4.1016Y-3.1819
X4.1016Y-3.7819
X4.1016Y-4.3819
X4.2984Y-3.4181
X4.2984Y-4.0181
X4.2984Y-4.6181
X4.5016Y-3.1819
X4.5016Y-3.7819
X4.5016Y-4.3819
X4.6984Y-3.4181
X4.6984Y-4.0181
X4.6984Y-4.6181
X5.1619Y-3.0484
X5.3981Y-2.8516
X6.2213Y-3.0819
X6.2213Y-3.3181
X6.3787Y-3.0819
X6.3787Y-3.3181
X7.325Y-4.5
X7.4Y-4.4
X7.4819Y-3.6713
X7.4819Y-3.8287
X7.6Y-4.625
X7.675Y-4.5
X7.7181Y-3.6713
X7.7181Y-3.8287
X7.875Y-4.75
X8.Y-4.475
X8.Y-4.825
X8.1Y-4.55
X8.4819Y-3.2984
X8.7181Y-3.1016
T3
X3.45Y-3.15
X3.45Y-3.35
X3.45Y-3.75
X3.45Y-3.95
X3.45Y-4.35
X3.45Y-4.55
X3.65Y-3.15
X3.65Y-3.35
X3.65Y-3.75
X3.65Y-3.95
X3.65Y-4.35
X3.65Y-4.55
X3.75Y-3.15
X3.75Y-3.35
X3.75Y-3.75
X3.75Y-3.95
X3.75Y-4.35
X3.75Y-4.55
X3.85Y-3.15
X3.85Y-3.35
X3.85Y-3.75
X3.85Y-3.95
X3.85Y-4.35
X3.85Y-4.55
X4.95Y-3.2
X4.95Y-3.4
X4.95Y-3.8
X4.95Y-4.
X4.95Y-4.4
X4.95Y-4.6
X5.05Y-3.2
X5.05Y-3.4
X5.05Y-3.8
X5.05Y-4.
X5.05Y-4.4
X5.05Y-4.6
X5.15Y-3.2
X5.15Y-3.4
X5.15Y-3.8
X5.15Y-4.
X5.15Y-4.4
X5.15Y-4.6
X5.35Y-3.2
X5.35Y-3.4
X5.35Y-3.8
X5.35Y-4.
X5.35Y-4.4
X5.35Y-4.6
X8.2Y-3.95
X8.2Y-4.15
X8.3Y-3.95
X8.3Y-4.15
X8.4Y-3.95
X8.4Y-4.15
X8.6Y-3.95
X8.6Y-4.15
T4
X4.52Y-2.45
X4.62Y-2.45
X5.95Y-2.25
X5.95Y-2.35
X7.775Y-2.575
X7.775Y-2.675
X7.8Y-2.9
X7.9Y-2.9
X7.95Y-2.625
X8.025Y-2.275
X8.025Y-2.375
X8.05Y-2.625
X8.05Y-2.9
X8.15Y-2.9
T5
X3.9Y-3.5
X3.9Y-4.1
X3.9Y-4.7
X4.Y-3.5
X4.Y-4.1
X4.Y-4.7
X4.4Y-3.1
X4.4Y-3.2
X4.4Y-3.4
X4.4Y-3.5
X4.4Y-3.7
X4.4Y-3.8
X4.4Y-4.
X4.4Y-4.1
X4.4Y-4.3
X4.4Y-4.4
X4.4Y-4.6
X4.4Y-4.7
X4.85Y-2.9
X4.85Y-3.
X4.86Y-2.79
X4.96Y-2.79
X4.96Y-2.9
X4.96Y-3.
X7.45Y-3.4
X7.45Y-3.5
X7.45Y-4.
X7.45Y-4.1
X7.65Y-3.4
X7.65Y-3.5
X7.65Y-4.
X7.65Y-4.1
X7.95Y-3.55
X7.95Y-3.65
X7.95Y-3.8
X8.05Y-3.8
X8.2Y-3.8
X8.3Y-3.8
T6
X5.7531Y-3.5701
X5.7531Y-4.8299
X6.1469Y-3.5701
X6.1469Y-4.8299
T7
X6.65Y-3.
X6.65Y-4.35
X6.75Y-3.
X6.75Y-4.35
X6.85Y-3.
X6.85Y-4.35
T8
X3.46Y-2.5
X3.46Y-2.6
X3.46Y-2.7
X3.55Y-2.85
X3.65Y-2.85
X3.75Y-2.85
X3.8Y-2.
X3.85Y-2.85
X3.9Y-2.
X3.95Y-2.85
X4.Y-2.
X4.05Y-2.85
X4.1Y-2.
X4.2Y-2.
X4.21Y-2.92
X4.3Y-2.
X4.31Y-2.92
X7.8Y-3.4
X7.9Y-3.4
T9
X6.6516Y-3.3992
X6.6516Y-3.9508
X6.75Y-3.3008
X6.75Y-4.0492
X6.8484Y-3.3992
X6.8484Y-3.9508
T10
X8.5244Y-2.45
X8.8Y-2.45
T11
X8.55Y-2.7213
X8.55Y-2.8787
X8.85Y-2.7213
X8.85Y-2.8787
T12
X3.38Y-1.98
X3.38Y-5.07
X8.82Y-1.98
X8.82Y-5.07
T0
M30
