G04 #@! TF.FileFunction,Soldermask,Top*
%FSLAX46Y46*%
G04 Gerber Fmt 4.6, Leading zero omitted, Abs format (unit mm)*
G04 Created by KiCad (PCBNEW (2014-11-29 BZR 5307)-product) date Sat 04 Jul 2015 02:05:10 PM CDT*
%MOMM*%
G01*
G04 APERTURE LIST*
%ADD10C,0.100000*%
%ADD11R,4.057600X2.432000*%
%ADD12R,1.416000X2.432000*%
%ADD13C,2.400000*%
%ADD14O,2.099260X3.900120*%
%ADD15C,4.199840*%
%ADD16C,3.400000*%
%ADD17R,2.398980X1.299160*%
%ADD18R,2.398980X1.400760*%
%ADD19R,0.700000X2.400000*%
%ADD20R,2.400000X0.700000*%
%ADD21C,1.700000*%
%ADD22C,1.800000*%
%ADD23R,4.972000X2.940000*%
%ADD24R,1.250000X1.250000*%
%ADD25R,1.900000X1.650000*%
%ADD26R,1.650000X1.900000*%
%ADD27R,2.398980X2.398980*%
%ADD28C,2.398980*%
%ADD29C,1.797000*%
%ADD30R,3.956000X2.432000*%
%ADD31R,2.800000X2.800000*%
%ADD32R,3.300000X2.800000*%
%ADD33R,2.900000X3.300000*%
%ADD34R,2.100000X2.400000*%
%ADD35R,2.400000X2.100000*%
%ADD36C,1.900000*%
%ADD37C,2.200000*%
%ADD38R,2.432000X2.127200*%
%ADD39O,2.432000X2.127200*%
%ADD40R,9.290000X11.068000*%
%ADD41R,2.686000X2.178000*%
%ADD42R,2.127200X2.432000*%
%ADD43O,2.127200X2.432000*%
%ADD44R,2.432000X2.432000*%
%ADD45O,2.432000X2.432000*%
%ADD46C,1.924000*%
%ADD47C,6.100000*%
%ADD48R,1.200100X2.200860*%
%ADD49R,2.200860X1.200100*%
%ADD50R,1.700000X1.700000*%
G04 APERTURE END LIST*
D10*
D11*
X150114000Y-52832000D03*
D12*
X150114000Y-46228000D03*
X147828000Y-46228000D03*
X152400000Y-46228000D03*
D13*
X191516000Y-117328000D03*
X189016000Y-114828000D03*
X194016000Y-114828000D03*
X182118000Y-117328000D03*
X179618000Y-114828000D03*
X184618000Y-114828000D03*
D14*
X171450000Y-104394000D03*
X173990000Y-104394000D03*
X168910000Y-104394000D03*
D15*
X171450000Y-121158000D03*
D14*
X171450000Y-93345000D03*
X168910000Y-93345000D03*
X173990000Y-93345000D03*
D15*
X171450000Y-76581000D03*
D16*
X227584000Y-72422000D03*
X227584000Y-76422000D03*
D17*
X144536160Y-70690740D03*
D18*
X144536160Y-68041520D03*
X152135840Y-68041520D03*
X152135840Y-70642480D03*
D19*
X94484000Y-56168143D03*
X94984000Y-56168143D03*
X95484000Y-56168143D03*
X95984000Y-56168143D03*
X96484000Y-56168143D03*
X96984000Y-56168143D03*
X97484000Y-56168143D03*
X97984000Y-56168143D03*
X98484000Y-56168143D03*
X98984000Y-56168143D03*
X99484000Y-56168143D03*
X99984000Y-56168143D03*
X100484000Y-56168143D03*
X100984000Y-56168143D03*
X101484000Y-56168143D03*
X101984000Y-56168143D03*
D20*
X92084000Y-66068143D03*
X92084000Y-65568143D03*
X92084000Y-65068143D03*
X92084000Y-64568143D03*
X92084000Y-64068143D03*
X92084000Y-63568143D03*
X92084000Y-63068143D03*
X92084000Y-62568143D03*
X92084000Y-62068143D03*
X92084000Y-61568143D03*
X92084000Y-61068143D03*
X92084000Y-60568143D03*
X92084000Y-60068143D03*
X92084000Y-59568143D03*
X92084000Y-59068143D03*
X92084000Y-58568143D03*
X104384000Y-66068143D03*
X104384000Y-65568143D03*
X104384000Y-65068143D03*
X104384000Y-64568143D03*
X104384000Y-64068143D03*
X104384000Y-63568143D03*
X104384000Y-63068143D03*
X104384000Y-62568143D03*
X104384000Y-62068143D03*
X104384000Y-61568143D03*
X104384000Y-61068143D03*
X104384000Y-60568143D03*
X104384000Y-60068143D03*
X104384000Y-59568143D03*
X104384000Y-59068143D03*
X104384000Y-58568143D03*
D19*
X101984000Y-68468143D03*
X101484000Y-68468143D03*
X100984000Y-68468143D03*
X100484000Y-68468143D03*
X99984000Y-68468143D03*
X99484000Y-68468143D03*
X98984000Y-68468143D03*
X98484000Y-68468143D03*
X97984000Y-68468143D03*
X97484000Y-68468143D03*
X96984000Y-68468143D03*
X96484000Y-68468143D03*
X95984000Y-68468143D03*
X95484000Y-68468143D03*
X94984000Y-68468143D03*
X94484000Y-68468143D03*
D21*
X224330000Y-68540000D03*
X230330000Y-63540000D03*
D22*
X218440000Y-100330000D03*
X213360000Y-100330000D03*
X210820000Y-100330000D03*
X208280000Y-100330000D03*
X208280000Y-105410000D03*
X210820000Y-105410000D03*
X213360000Y-105410000D03*
X218440000Y-105410000D03*
X87630000Y-100330000D03*
X92710000Y-100330000D03*
X95250000Y-100330000D03*
X97790000Y-100330000D03*
X97790000Y-95250000D03*
X95250000Y-95250000D03*
X92710000Y-95250000D03*
X87630000Y-95250000D03*
X87630000Y-115570000D03*
X92710000Y-115570000D03*
X95250000Y-115570000D03*
X97790000Y-115570000D03*
X97790000Y-110490000D03*
X95250000Y-110490000D03*
X92710000Y-110490000D03*
X87630000Y-110490000D03*
X135890000Y-111760000D03*
X130810000Y-111760000D03*
X128270000Y-111760000D03*
X125730000Y-111760000D03*
X125730000Y-116840000D03*
X128270000Y-116840000D03*
X130810000Y-116840000D03*
X135890000Y-116840000D03*
X135890000Y-96520000D03*
X130810000Y-96520000D03*
X128270000Y-96520000D03*
X125730000Y-96520000D03*
X125730000Y-101600000D03*
X128270000Y-101600000D03*
X130810000Y-101600000D03*
X135890000Y-101600000D03*
X135890000Y-81280000D03*
X130810000Y-81280000D03*
X128270000Y-81280000D03*
X125730000Y-81280000D03*
X125730000Y-86360000D03*
X128270000Y-86360000D03*
X130810000Y-86360000D03*
X135890000Y-86360000D03*
X87630000Y-85090000D03*
X92710000Y-85090000D03*
X95250000Y-85090000D03*
X97790000Y-85090000D03*
X97790000Y-80010000D03*
X95250000Y-80010000D03*
X92710000Y-80010000D03*
X87630000Y-80010000D03*
D23*
X231902000Y-115570000D03*
X231902000Y-111315500D03*
X231902000Y-119824500D03*
X231902000Y-93472000D03*
X231902000Y-89217500D03*
X231902000Y-97726500D03*
D24*
X207010000Y-90170000D03*
X207010000Y-86820000D03*
X211074000Y-125984000D03*
X207724000Y-125984000D03*
X201168000Y-125984000D03*
X204518000Y-125984000D03*
D21*
X198247000Y-117094000D03*
X207137000Y-117094000D03*
X200152000Y-114554000D03*
X205232000Y-120269000D03*
X215392000Y-116459000D03*
X215392000Y-125349000D03*
X217932000Y-118364000D03*
X212217000Y-123444000D03*
X119340000Y-86820000D03*
X114340000Y-80820000D03*
X119340000Y-102060000D03*
X114340000Y-96060000D03*
X109180000Y-86820000D03*
X104180000Y-80820000D03*
X131112000Y-77430000D03*
X137112000Y-72430000D03*
X109180000Y-102060000D03*
X104180000Y-96060000D03*
X109180000Y-117300000D03*
X104180000Y-111300000D03*
X119340000Y-117300000D03*
X114340000Y-111300000D03*
D25*
X207030000Y-92710000D03*
X209530000Y-92710000D03*
X204450000Y-78740000D03*
X201950000Y-78740000D03*
D26*
X155956000Y-46248000D03*
X155956000Y-48748000D03*
X196469000Y-48153000D03*
X196469000Y-50653000D03*
X193421000Y-48153000D03*
X193421000Y-50653000D03*
D27*
X143256000Y-46228000D03*
D28*
X143256000Y-48768000D03*
D26*
X190119000Y-48153000D03*
X190119000Y-50653000D03*
X187071000Y-48153000D03*
X187071000Y-50653000D03*
X183769000Y-48153000D03*
X183769000Y-50653000D03*
X184150000Y-100310000D03*
X184150000Y-97810000D03*
X184150000Y-91420000D03*
X184150000Y-88920000D03*
X153670000Y-82530000D03*
X153670000Y-80030000D03*
D29*
X111760000Y-116840000D03*
X111760000Y-119380000D03*
X111760000Y-101600000D03*
X111760000Y-104140000D03*
X111760000Y-86360000D03*
X111760000Y-88900000D03*
X125984000Y-70866000D03*
X123444000Y-70866000D03*
X111760000Y-111760000D03*
X111760000Y-109220000D03*
X111760000Y-96520000D03*
X111760000Y-93980000D03*
X111760000Y-81280000D03*
X111760000Y-78740000D03*
X125984000Y-76200000D03*
X125984000Y-73660000D03*
X101600000Y-119380000D03*
X99060000Y-119380000D03*
X101600000Y-104140000D03*
X99060000Y-104140000D03*
X101600000Y-88900000D03*
X99060000Y-88900000D03*
X123190000Y-76200000D03*
X123190000Y-73660000D03*
D26*
X117094000Y-46248000D03*
X117094000Y-48748000D03*
X114554000Y-46248000D03*
X114554000Y-48748000D03*
D25*
X207792000Y-129540000D03*
X210292000Y-129540000D03*
X204450000Y-129540000D03*
X201950000Y-129540000D03*
D30*
X216916000Y-72390000D03*
X216916000Y-67310000D03*
D16*
X223266000Y-76422000D03*
X223266000Y-72422000D03*
D31*
X232594000Y-54366000D03*
D32*
X223294000Y-54366000D03*
D33*
X219244000Y-58916000D03*
D13*
X231394000Y-58166000D03*
X224394000Y-58166000D03*
D34*
X210820000Y-89630000D03*
X210820000Y-85630000D03*
D35*
X202470000Y-82550000D03*
X206470000Y-82550000D03*
X193580000Y-78740000D03*
X197580000Y-78740000D03*
X193580000Y-82550000D03*
X197580000Y-82550000D03*
D29*
X208280000Y-96520000D03*
X210820000Y-96520000D03*
X201930000Y-96520000D03*
X204470000Y-96520000D03*
D35*
X179610000Y-123952000D03*
X183610000Y-123952000D03*
D29*
X201930000Y-90170000D03*
X201930000Y-92710000D03*
D34*
X180340000Y-105188000D03*
X180340000Y-109188000D03*
D35*
X191230000Y-123952000D03*
X187230000Y-123952000D03*
D29*
X189230000Y-101600000D03*
X189230000Y-104140000D03*
X189230000Y-86360000D03*
X189230000Y-88900000D03*
D34*
X179324000Y-99536000D03*
X179324000Y-95536000D03*
D29*
X194310000Y-101600000D03*
X194310000Y-104140000D03*
X194310000Y-86360000D03*
X194310000Y-88900000D03*
D34*
X184150000Y-109188000D03*
X184150000Y-105188000D03*
D35*
X168942000Y-98552000D03*
X172942000Y-98552000D03*
X218472000Y-127254000D03*
X222472000Y-127254000D03*
D34*
X197612000Y-120174000D03*
X197612000Y-124174000D03*
D36*
X196040000Y-93250000D03*
X190040000Y-93250000D03*
X196040000Y-97250000D03*
X190040000Y-97250000D03*
X162020000Y-84280000D03*
X162020000Y-78280000D03*
X158020000Y-84280000D03*
X158020000Y-78280000D03*
D37*
X156130000Y-90680000D03*
X146130000Y-90680000D03*
X156130000Y-122680000D03*
X146130000Y-122680000D03*
D38*
X87884000Y-63500000D03*
D39*
X87884000Y-66040000D03*
X87884000Y-68580000D03*
D40*
X192659000Y-58166000D03*
D41*
X183896000Y-55626000D03*
X183896000Y-60706000D03*
D26*
X113284000Y-74656000D03*
X113284000Y-72156000D03*
D25*
X112288000Y-58420000D03*
X114788000Y-58420000D03*
D27*
X112268000Y-62230000D03*
D28*
X114808000Y-62230000D03*
D25*
X92476000Y-53594000D03*
X94976000Y-53594000D03*
D26*
X119634000Y-46248000D03*
X119634000Y-48748000D03*
D42*
X90170000Y-72390000D03*
D43*
X92710000Y-72390000D03*
X95250000Y-72390000D03*
X97790000Y-72390000D03*
X100330000Y-72390000D03*
X102870000Y-72390000D03*
D34*
X160274000Y-123730000D03*
X160274000Y-127730000D03*
X163830000Y-127730000D03*
X163830000Y-123730000D03*
D44*
X106934000Y-74168000D03*
D45*
X109474000Y-74168000D03*
D42*
X109220000Y-45974000D03*
D43*
X106680000Y-45974000D03*
X104140000Y-45974000D03*
X101600000Y-45974000D03*
X99060000Y-45974000D03*
X96520000Y-45974000D03*
D35*
X109950000Y-70866000D03*
X105950000Y-70866000D03*
D46*
X105918000Y-68072000D03*
D47*
X231648000Y-46482000D03*
X231648000Y-128778000D03*
X85852000Y-128778000D03*
X85852000Y-46482000D03*
D48*
X188280000Y-75669140D03*
X190180000Y-75669140D03*
X189230000Y-72666860D03*
D49*
X215414860Y-107762000D03*
X215414860Y-109662000D03*
X218417140Y-108712000D03*
D48*
X88580000Y-105432860D03*
X86680000Y-105432860D03*
X87630000Y-108435140D03*
X88580000Y-90192860D03*
X86680000Y-90192860D03*
X87630000Y-93195140D03*
D49*
X86636860Y-76012000D03*
X86636860Y-77912000D03*
X89639140Y-76962000D03*
D35*
X140938000Y-68072000D03*
X136938000Y-68072000D03*
D50*
X206883000Y-50673000D03*
D21*
X209383000Y-50673000D03*
D50*
X206883000Y-56261000D03*
D21*
X209383000Y-56261000D03*
D50*
X206883000Y-61849000D03*
D21*
X209383000Y-61849000D03*
D50*
X206883000Y-67437000D03*
D21*
X209383000Y-67437000D03*
D50*
X206883000Y-73025000D03*
D21*
X209383000Y-73025000D03*
D50*
X204470000Y-70104000D03*
D21*
X201970000Y-70104000D03*
D50*
X204470000Y-64516000D03*
D21*
X201970000Y-64516000D03*
D50*
X204470000Y-58928000D03*
D21*
X201970000Y-58928000D03*
D50*
X204470000Y-53340000D03*
D21*
X201970000Y-53340000D03*
D50*
X204470000Y-47752000D03*
D21*
X201970000Y-47752000D03*
M02*
