G04 #@! TF.FileFunction,Soldermask,Bot*
%FSLAX46Y46*%
G04 Gerber Fmt 4.6, Leading zero omitted, Abs format (unit mm)*
G04 Created by KiCad (PCBNEW (2014-11-29 BZR 5307)-product) date Sat 24 Jan 2015 07:23:43 PM CST*
%MOMM*%
G01*
G04 APERTURE LIST*
%ADD10C,0.100000*%
%ADD11R,3.399740X6.399480*%
%ADD12C,1.700000*%
%ADD13C,2.400000*%
%ADD14C,1.800000*%
%ADD15R,2.398980X2.398980*%
%ADD16C,2.398980*%
%ADD17C,1.797000*%
%ADD18R,2.432000X2.432000*%
%ADD19O,2.432000X2.432000*%
%ADD20C,3.400000*%
%ADD21O,2.099260X3.900120*%
%ADD22C,1.900000*%
%ADD23C,2.200000*%
%ADD24R,2.432000X2.127200*%
%ADD25O,2.432000X2.127200*%
%ADD26R,2.127200X2.432000*%
%ADD27O,2.127200X2.432000*%
%ADD28C,6.100000*%
G04 APERTURE END LIST*
D10*
D11*
X136349740Y-58420000D03*
X130350260Y-58420000D03*
D12*
X221440000Y-78780000D03*
X215440000Y-83780000D03*
D13*
X171450000Y-83840000D03*
X173950000Y-86340000D03*
X168950000Y-86340000D03*
X171450000Y-102850000D03*
X168950000Y-100350000D03*
X173950000Y-100350000D03*
D14*
X218440000Y-100330000D03*
X213360000Y-100330000D03*
X210820000Y-100330000D03*
X208280000Y-100330000D03*
X208280000Y-105410000D03*
X210820000Y-105410000D03*
X213360000Y-105410000D03*
X218440000Y-105410000D03*
X87630000Y-100330000D03*
X92710000Y-100330000D03*
X95250000Y-100330000D03*
X97790000Y-100330000D03*
X97790000Y-95250000D03*
X95250000Y-95250000D03*
X92710000Y-95250000D03*
X87630000Y-95250000D03*
X87630000Y-115570000D03*
X92710000Y-115570000D03*
X95250000Y-115570000D03*
X97790000Y-115570000D03*
X97790000Y-110490000D03*
X95250000Y-110490000D03*
X92710000Y-110490000D03*
X87630000Y-110490000D03*
X135890000Y-111760000D03*
X130810000Y-111760000D03*
X128270000Y-111760000D03*
X125730000Y-111760000D03*
X125730000Y-116840000D03*
X128270000Y-116840000D03*
X130810000Y-116840000D03*
X135890000Y-116840000D03*
X135890000Y-96520000D03*
X130810000Y-96520000D03*
X128270000Y-96520000D03*
X125730000Y-96520000D03*
X125730000Y-101600000D03*
X128270000Y-101600000D03*
X130810000Y-101600000D03*
X135890000Y-101600000D03*
X135890000Y-81280000D03*
X130810000Y-81280000D03*
X128270000Y-81280000D03*
X125730000Y-81280000D03*
X125730000Y-86360000D03*
X128270000Y-86360000D03*
X130810000Y-86360000D03*
X135890000Y-86360000D03*
X87630000Y-85090000D03*
X92710000Y-85090000D03*
X95250000Y-85090000D03*
X97790000Y-85090000D03*
X97790000Y-80010000D03*
X95250000Y-80010000D03*
X92710000Y-80010000D03*
X87630000Y-80010000D03*
D12*
X186055000Y-114300000D03*
X194945000Y-114300000D03*
X187960000Y-111760000D03*
X193040000Y-117475000D03*
X203200000Y-113665000D03*
X203200000Y-122555000D03*
X205740000Y-115570000D03*
X200025000Y-120650000D03*
X119340000Y-86820000D03*
X114340000Y-80820000D03*
X119340000Y-102060000D03*
X114340000Y-96060000D03*
X109180000Y-86820000D03*
X104180000Y-80820000D03*
X131112000Y-77430000D03*
X137112000Y-72430000D03*
X109180000Y-102060000D03*
X104180000Y-96060000D03*
X109180000Y-117300000D03*
X104180000Y-111300000D03*
X119340000Y-117300000D03*
X114340000Y-111300000D03*
D15*
X200660000Y-73660000D03*
D16*
X198120000Y-73660000D03*
D15*
X204470000Y-66675000D03*
D16*
X201930000Y-66675000D03*
D15*
X197485000Y-65405000D03*
D16*
X197485000Y-67945000D03*
D15*
X207010000Y-73660000D03*
D16*
X204470000Y-73660000D03*
D15*
X203835000Y-60325000D03*
D16*
X203835000Y-57785000D03*
D15*
X151130000Y-57150000D03*
D16*
X151130000Y-59690000D03*
D17*
X111760000Y-116840000D03*
X111760000Y-119380000D03*
X111760000Y-101600000D03*
X111760000Y-104140000D03*
X111760000Y-86360000D03*
X111760000Y-88900000D03*
X125984000Y-70866000D03*
X123444000Y-70866000D03*
X111760000Y-111760000D03*
X111760000Y-109220000D03*
X111760000Y-96520000D03*
X111760000Y-93980000D03*
X111760000Y-81280000D03*
X111760000Y-78740000D03*
X125984000Y-76200000D03*
X125984000Y-73660000D03*
X101600000Y-119380000D03*
X99060000Y-119380000D03*
X101600000Y-104140000D03*
X99060000Y-104140000D03*
X101600000Y-88900000D03*
X99060000Y-88900000D03*
X123190000Y-76200000D03*
X123190000Y-73660000D03*
D18*
X198120000Y-86360000D03*
D19*
X200660000Y-86360000D03*
D20*
X224790000Y-69120000D03*
X224790000Y-73120000D03*
X217170000Y-69120000D03*
X217170000Y-73120000D03*
D13*
X223520000Y-62230000D03*
X216520000Y-62230000D03*
D21*
X171450000Y-110490000D03*
X168910000Y-110490000D03*
X173990000Y-110490000D03*
X171450000Y-76200000D03*
X173990000Y-76200000D03*
X168910000Y-76200000D03*
D17*
X208280000Y-96520000D03*
X210820000Y-96520000D03*
X201930000Y-96520000D03*
X204470000Y-96520000D03*
X201930000Y-90170000D03*
X201930000Y-92710000D03*
X189230000Y-101600000D03*
X189230000Y-104140000D03*
X189230000Y-86360000D03*
X189230000Y-88900000D03*
X194310000Y-101600000D03*
X194310000Y-104140000D03*
X194310000Y-86360000D03*
X194310000Y-88900000D03*
D22*
X196040000Y-93250000D03*
X190040000Y-93250000D03*
X196040000Y-97250000D03*
X190040000Y-97250000D03*
X162020000Y-84280000D03*
X162020000Y-78280000D03*
X158020000Y-84280000D03*
X158020000Y-78280000D03*
D23*
X156130000Y-90680000D03*
X146130000Y-90680000D03*
X156130000Y-122680000D03*
X146130000Y-122680000D03*
D24*
X87884000Y-63500000D03*
D25*
X87884000Y-66040000D03*
X87884000Y-68580000D03*
D15*
X114808000Y-62230000D03*
D16*
X117348000Y-62230000D03*
D26*
X90170000Y-72390000D03*
D27*
X92710000Y-72390000D03*
X95250000Y-72390000D03*
X97790000Y-72390000D03*
X100330000Y-72390000D03*
X102870000Y-72390000D03*
D18*
X106934000Y-74168000D03*
D19*
X109474000Y-74168000D03*
D26*
X109220000Y-50800000D03*
D27*
X106680000Y-50800000D03*
X104140000Y-50800000D03*
X101600000Y-50800000D03*
X99060000Y-50800000D03*
X96520000Y-50800000D03*
D28*
X224028000Y-50292000D03*
X224028000Y-128778000D03*
X85852000Y-128778000D03*
X85852000Y-50292000D03*
M02*
