M48
;DRILL file {kicad (2014-11-29 BZR 5307)-product} date Sat 04 Jul 2015 02:05:02 PM CDT
;FORMAT={-:-/ absolute / inch / decimal}
FMAT,2
INCH,TZ
T1C0.025
T2C0.031
T3C0.031
T4C0.032
T5C0.032
T6C0.039
T7C0.039
T8C0.040
T9C0.051
T10C0.063
T11C0.079
T12C0.130
T13C0.150
%
G90
G05
M72
T1
X3.29Y-3.35
X3.29Y-3.95
X3.29Y-4.55
X3.37Y-4.25
X3.39Y-3.67
X3.44Y-3.25
X3.46Y-2.27
X3.46Y-2.38
X3.57Y-2.75
X3.61Y-4.2
X3.625Y-2.2
X3.67Y-2.75
X3.7Y-4.2
X3.71Y-2.43
X3.71Y-3.6
X3.74Y-2.31
X3.78Y-4.87
X3.79Y-3.6
X3.81Y-2.58
X3.96Y-4.87
X4.02Y-2.3
X4.02Y-2.43
X4.07Y-2.7
X4.54Y-2.73
X4.57Y-2.96
X4.57Y-3.05
X4.66Y-2.73
X4.67Y-2.96
X4.67Y-3.05
X5.01Y-4.2
X5.06Y-2.96
X5.09Y-4.2
X5.11Y-1.97
X5.11Y-2.41
X5.11Y-3.53
X5.35Y-1.97
X5.35Y-2.45
X5.35Y-4.87
X5.47Y-3.8
X5.5Y-3.59
X5.58Y-2.19
X5.91Y-1.92
X5.91Y-3.47
X6.02Y-1.95
X6.02Y-2.03
X6.22Y-2.64
X6.22Y-3.65
X6.28Y-1.92
X7.Y-1.8
X7.03Y-2.78
X7.03Y-2.9
X7.15Y-1.75
X7.21Y-4.04
X7.29Y-4.04
X7.59Y-2.98
X7.6Y-4.41
X8.18Y-4.71
X8.24Y-3.1
X8.51Y-4.01
X8.51Y-4.1
X8.53Y-4.42
X9.13Y-3.31
X9.13Y-4.09
T2
X4.1016Y-3.1819
X4.1016Y-3.7819
X4.1016Y-4.3819
X4.2984Y-3.4181
X4.2984Y-4.0181
X4.2984Y-4.6181
X4.5016Y-3.1819
X4.5016Y-3.7819
X4.5016Y-4.3819
X4.6984Y-3.4181
X4.6984Y-4.0181
X4.6984Y-4.6181
X5.1619Y-3.0484
X5.3981Y-2.8516
X6.2213Y-3.0819
X6.2213Y-3.3181
X6.3787Y-3.0819
X6.3787Y-3.3181
X7.4819Y-3.6713
X7.4819Y-3.8287
X7.7181Y-3.6713
X7.7181Y-3.8287
X7.805Y-4.61
X7.88Y-4.51
X7.9516Y-1.88
X7.9516Y-2.1
X7.9516Y-2.32
X7.9516Y-2.54
X7.9516Y-2.76
X8.05Y-1.88
X8.05Y-2.1
X8.05Y-2.32
X8.05Y-2.54
X8.05Y-2.76
X8.08Y-4.735
X8.145Y-1.995
X8.145Y-2.215
X8.145Y-2.435
X8.145Y-2.655
X8.145Y-2.875
X8.155Y-4.61
X8.2434Y-1.995
X8.2434Y-2.215
X8.2434Y-2.435
X8.2434Y-2.655
X8.2434Y-2.875
X8.355Y-4.86
X8.48Y-4.585
X8.48Y-4.935
X8.58Y-4.66
X8.8319Y-2.6984
X9.0681Y-2.5016
T3
X3.45Y-3.15
X3.45Y-3.35
X3.45Y-3.75
X3.45Y-3.95
X3.45Y-4.35
X3.45Y-4.55
X3.65Y-3.15
X3.65Y-3.35
X3.65Y-3.75
X3.65Y-3.95
X3.65Y-4.35
X3.65Y-4.55
X3.75Y-3.15
X3.75Y-3.35
X3.75Y-3.75
X3.75Y-3.95
X3.75Y-4.35
X3.75Y-4.55
X3.85Y-3.15
X3.85Y-3.35
X3.85Y-3.75
X3.85Y-3.95
X3.85Y-4.35
X3.85Y-4.55
X4.95Y-3.2
X4.95Y-3.4
X4.95Y-3.8
X4.95Y-4.
X4.95Y-4.4
X4.95Y-4.6
X5.05Y-3.2
X5.05Y-3.4
X5.05Y-3.8
X5.05Y-4.
X5.05Y-4.4
X5.05Y-4.6
X5.15Y-3.2
X5.15Y-3.4
X5.15Y-3.8
X5.15Y-4.
X5.15Y-4.4
X5.15Y-4.6
X5.35Y-3.2
X5.35Y-3.4
X5.35Y-3.8
X5.35Y-4.
X5.35Y-4.4
X5.35Y-4.6
X8.2Y-3.95
X8.2Y-4.15
X8.3Y-3.95
X8.3Y-4.15
X8.4Y-3.95
X8.4Y-4.15
X8.6Y-3.95
X8.6Y-4.15
T4
X4.42Y-2.45
X4.52Y-2.45
X5.64Y-1.82
X5.64Y-1.92
T5
X3.9Y-3.5
X3.9Y-4.1
X3.9Y-4.7
X4.Y-3.5
X4.Y-4.1
X4.Y-4.7
X4.4Y-3.1
X4.4Y-3.2
X4.4Y-3.4
X4.4Y-3.5
X4.4Y-3.7
X4.4Y-3.8
X4.4Y-4.
X4.4Y-4.1
X4.4Y-4.3
X4.4Y-4.4
X4.4Y-4.6
X4.4Y-4.7
X4.85Y-2.9
X4.85Y-3.
X4.86Y-2.79
X4.96Y-2.79
X4.96Y-2.9
X4.96Y-3.
X7.45Y-3.4
X7.45Y-3.5
X7.45Y-4.
X7.45Y-4.1
X7.65Y-3.4
X7.65Y-3.5
X7.65Y-4.
X7.65Y-4.1
X7.95Y-3.55
X7.95Y-3.65
X7.95Y-3.8
X8.05Y-3.8
X8.2Y-3.8
X8.3Y-3.8
T6
X5.7531Y-3.5701
X5.7531Y-4.8299
X6.1469Y-3.5701
X6.1469Y-4.8299
T7
X6.65Y-3.675
X6.65Y-4.11
X6.75Y-3.675
X6.75Y-4.11
X6.85Y-3.675
X6.85Y-4.11
T8
X3.46Y-2.5
X3.46Y-2.6
X3.46Y-2.7
X3.55Y-2.85
X3.65Y-2.85
X3.75Y-2.85
X3.8Y-1.81
X3.85Y-2.85
X3.9Y-1.81
X3.95Y-2.85
X4.Y-1.81
X4.05Y-2.85
X4.1Y-1.81
X4.2Y-1.81
X4.21Y-2.92
X4.3Y-1.81
X4.31Y-2.92
T9
X7.0716Y-4.5208
X7.17Y-4.6192
X7.2684Y-4.5208
X7.4416Y-4.5208
X7.54Y-4.6192
X7.6384Y-4.5208
T10
X8.8344Y-2.29
X9.11Y-2.29
T11
X8.79Y-2.8513
X8.79Y-3.0087
X8.96Y-2.8513
X8.96Y-3.0087
T12
X3.38Y-1.83
X3.38Y-5.07
X9.12Y-1.83
X9.12Y-5.07
T13
X6.75Y-3.015
X6.75Y-4.77
T0
M30
